Medium.sfdir
StartChar: exclam
Encoding: 33 33 1
Width: 319
Flags: MW
LayerCount: 2
Fore
SplineSet
117 722 m 1xe0
 201 722 l 1xe0
 192 175 l 1
 125 175 l 1xd0
 118 671 l 1
 117 722 l 1xe0
EndSplineSet
Refer: 14 46 S 1 0 0 1 21 0 2
EndChar
StartChar: quotedbl
Encoding: 34 34 2
Width: 500
Flags: MW
LayerCount: 2
Fore
SplineSet
126 722 m 1
 204 722 l 1xc0
 196 362 l 1
 196 362 l 1xa0
 135 362 l 1xa0
 126 722 l 1
294 722 m 1
 372 722 l 1x90
 363 362 l 1
 302 362 l 1x88
 302 362 l 1x88
 294 722 l 1
EndSplineSet
EndChar
StartChar: numbersign
Encoding: 35 35 3
Width: 833
Flags: MW
LayerCount: 2
Fore
SplineSet
56 150 m 0
 56 158 59 169 69 175 c 0
 75 178 82 180 93 180 c 2
 258 180 l 1
 291 320 l 1
 91 320 l 2
 81 320 73 322 68 326 c 0
 57 333 56 345 56 350 c 0
 56 358 58 367 66 373 c 0
 72 378 81 381 96 381 c 2
 307 381 l 1
 382 683 l 2
 383 688 386 704 396 714 c 0
 401 719 407 722 416 722 c 0
 432 722 445 708 446 693 c 0
 446 685 444 677 442 670 c 2
 370 381 l 1
 527 381 l 1
 601 683 l 2
 602 688 605 703 614 713 c 0
 619 718 626 722 635 722 c 0
 652 722 665 708 665 692 c 1
 666 685 663 677 662 670 c 2
 590 381 l 1
 726 381 l 2
 744 380 754 381 763 375 c 0
 771 369 776 360 776 350 c 0
 776 343 774 334 766 328 c 0
 760 324 752 320 739 320 c 2
 574 320 l 1
 540 180 l 1
 741 180 l 2
 753 180 761 177 766 172 c 0
 774 165 776 154 776 150 c 0
 776 142 774 132 764 126 c 0
 758 122 749 119 736 119 c 2
 525 119 l 1
 450 -183 l 2
 449 -188 446 -204 436 -214 c 0
 431 -219 425 -222 416 -222 c 0
 400 -222 386 -208 386 -192 c 0
 386 -185 388 -177 390 -170 c 2
 461 119 l 1
 305 119 l 1
 230 -183 l 2
 229 -189 226 -207 214 -216 c 0
 209 -220 204 -222 196 -222 c 0
 180 -222 167 -208 166 -192 c 0
 166 -185 169 -177 170 -170 c 2
 242 119 l 1
 105 119 l 2
 95 119 81 119 70 124 c 0
 62 128 56 136 56 150 c 0
321 180 m 1
 477 180 l 1
 511 320 l 1
 355 320 l 1
 321 180 l 1
EndSplineSet
EndChar
StartChar: percent
Encoding: 37 37 5
Width: 833
Flags: MW
LayerCount: 2
Fore
SplineSet
55 556 m 0
 55 616 75 670 106 706 c 0
 130 733 161 750 195 750 c 0
 225 750 256 735 282 706 c 0
 311 673 333 622 333 555 c 0
 333 496 314 443 285 408 c 0
 261 379 229 361 195 361 c 0
 162 361 129 379 103 410 c 0
 75 444 55 494 55 556 c 0
130 556 m 0
 130 506 138 475 149 456 c 0
 168 421 195 424 198 423 c 1
 216 425 233 440 245 466 c 0
 256 489 263 519 263 556 c 0
 263 601 253 637 238 660 c 0
 226 679 210 689 195 689 c 0
 181 689 164 682 151 660 c 0
 141 644 134 620 131 586 c 0
 130 577 130 567 130 556 c 0
176 -7 m 0
 176 1 183 11 185 13 c 1
 620 737 l 2
 623 742 630 749 639 749 c 0
 649 749 658 741 658 730 c 0
 658 721 650 710 646 702 c 2
 221 -5 l 2
 215 -14 209 -27 196 -27 c 0
 185 -27 176 -18 176 -7 c 0
499 167 m 0
 499 222 516 272 543 308 c 0
 568 341 602 361 639 361 c 0
 672 361 703 345 726 318 c 0
 752 288 769 246 775 198 c 0
 776 188 777 177 777 166 c 0
 777 112 761 63 736 28 c 0
 711 -7 677 -28 639 -28 c 0
 602 -28 565 -6 538 32 c 0
 514 66 499 112 499 167 c 0
574 167 m 0
 574 109 585 76 598 58 c 0
 617 32 640 35 642 34 c 1
 658 36 673 48 685 68 c 0
 698 91 707 125 707 167 c 0
 707 214 696 251 680 274 c 0
 668 291 653 300 639 300 c 0
 626 300 609 293 596 272 c 0
 586 256 578 231 575 194 c 0
 574 186 574 177 574 167 c 0
EndSplineSet
EndChar
StartChar: quotesingle
Encoding: 39 39 7
Width: 278
Flags: MW
LayerCount: 2
Fore
SplineSet
99 722 m 1
 177 722 l 1xc0
 171 465 l 1
 169 362 l 1
 169 362 l 1xa0
 108 362 l 1
 108 362 l 1xa0
 99 722 l 1
EndSplineSet
EndChar
StartChar: parenleft
Encoding: 40 40 8
Width: 389
Flags: MW
LayerCount: 2
Fore
SplineSet
80 250 m 0
 80 550 203 689 271 750 c 1
 333 750 l 1
 304 719 281 697 252 648 c 0
 181 529 158 387 158 250 c 0
 158 -115 321 -231 333 -250 c 1
 271 -250 l 1
 207 -192 80 -54 80 250 c 0
EndSplineSet
EndChar
StartChar: parenright
Encoding: 41 41 9
Width: 389
Flags: MW
LayerCount: 2
Fore
SplineSet
55 -250 m 1
 84 -219 106 -197 135 -149 c 0
 207 -30 230 113 230 250 c 0
 230 615 67 731 55 750 c 1
 116 750 l 1
 184 689 308 550 308 251 c 0
 308 -51 184 -189 116 -250 c 1
 55 -250 l 1
EndSplineSet
EndChar
StartChar: plus
Encoding: 43 43 11
Width: 778
Flags: MW
LayerCount: 2
Fore
SplineSet
55 250 m 0
 56 267 69 277 77 279 c 0
 85 281 94 281 102 281 c 2
 358 281 l 1
 358 538 l 2
 358 547 359 556 361 563 c 0
 365 575 372 583 388 583 c 0
 405 583 412 574 416 564 c 4
 420 553 419 541 419 538 c 2
 419 281 l 1
 675 281 l 2
 684 281 691 281 698 279 c 0
 712 275 720 267 721 250 c 0
 720 233 712 225 702 222 c 0
 695 220 687 220 681 220 c 2
 419 220 l 1
 419 -38 l 2
 419 -56 419 -65 407 -76 c 0
 401 -81 394 -83 389 -83 c 0
 371 -83 362 -69 359 -60 c 0
 357 -53 358 -46 358 -38 c 2
 358 220 l 1
 100 220 l 2
 99 220 96 219 92 219 c 0
 86 219 81 220 77 221 c 0
 61 226 56 240 55 250 c 0
EndSplineSet
EndChar
StartChar: hyphen
Encoding: 45 45 13
Width: 333
Flags: MW
LayerCount: 2
Fore
SplineSet
10 193 m 1
 10 252 l 1
 276 252 l 1
 276 193 l 1
 10 193 l 1
EndSplineSet
EndChar
StartChar: slash
Encoding: 47 47 15
Width: 500
Flags: MW
LayerCount: 2
Fore
SplineSet
56 -219 m 0
 56 -210 62 -197 65 -186 c 2
 381 720 l 2
 384 731 391 749 413 749 c 0
 428 749 443 738 443 719 c 0
 443 711 439 700 436 691 c 2
 118 -220 l 2
 113 -233 108 -240 103 -244 c 4
 96 -249 90 -248 87 -250 c 1
 86 -250 l 2
 70 -250 56 -236 56 -219 c 0
EndSplineSet
EndChar
StartChar: two
Encoding: 50 50 18
Width: 500
Flags: MW
LayerCount: 2
Fore
SplineSet
41 514 m 1
 66 598 119 678 235 678 c 0
 368 678 449 577 449 464 c 0
 449 367 386 313 282 221 c 0
 249 192 201 146 121 70 c 1
 449 71 l 1
 449 -0 l 1
 49 -0 l 1
 49 65 l 1
 179 194 l 2
 275 283 366 354 366 461 c 0
 366 545 308 613 222 613 c 0
 100 613 88 461 84 459 c 1
 41 514 l 1
EndSplineSet
EndChar
StartChar: four
Encoding: 52 52 20
Width: 500
Flags: MW
LayerCount: 2
Fore
SplineSet
27 171 m 1
 27 219 l 0
 27 232 28 234 38 250 c 2
 280 655 l 1
 372 655 l 1
 372 232 l 1xe8
 471 232 l 1
 471 171 l 1
 372 171 l 1
 372 -0 l 1
 292 -0 l 1
 292 171 l 1xf0
 27 171 l 1
105 232 m 1
 298 232 l 1xe8
 298 618 l 1
 285 538 233 449 105 232 c 1
EndSplineSet
EndChar
StartChar: less
Encoding: 60 60 28
Width: 778
Flags: MW
LayerCount: 2
Fore
SplineSet
83 250 m 3
 83 266.278820596 88 271 117 286 c 2
 643 552 l 2
 649 555 656 558 663 558 c 0
 681 558 693 543 693 528 c 0
 693 506 673 498 659 491 c 2
 182 250 l 1
 201 241 228 227 244 219 c 2
 659 9 l 2
 673 2 693 -6 693 -28 c 0
 693 -44 680 -58 663 -58 c 0
 652 -58 636 -48 624 -42 c 2
 117 214 l 2
 85.4658369112 229.922575445 83 241.455996255 83 250 c 3
EndSplineSet
EndChar
StartChar: equal
Encoding: 61 61 29
Width: 778
Flags: MW
LayerCount: 2
Fore
SplineSet
56 350 m 0
 56 357 58 367 68 374 c 0
 74 378 83 381 96 381 c 6
 681 381 l 2
 693 381 702 379 708 375 c 0
 719 368 721 356 721 350 c 0
 721 343 718 333 710 327 c 0
 704 323 696 320 684 320 c 2
 93 320 l 2
 78 320 69 324 64 329 c 0
 57 336 56 346 56 350 c 0
56 150 m 0
 56 158 59 170 70 176 c 0
 75 179 82 181 92 181 c 0
 95 181 99 180 102 180 c 2
 683 180 l 2
 694 180 702 177 708 174 c 0
 719 167 721 157 721 150 c 0
 721 143 719 134 710 127 c 0
 704 122 694 119 680 119 c 2
 95 119 l 2
 83 119 74 122 68 126 c 0
 58 133 56 143 56 150 c 0
EndSplineSet
EndChar
StartChar: greater
Encoding: 62 62 30
Width: 778
Flags: MW
LayerCount: 2
Fore
SplineSet
83 -28 m 0
 83 -6 104 2 118 9 c 2
 595 250 l 1
 578 259 555 270 534 281 c 2
 118 491 l 2
 104 498 83 506 83 528 c 0
 83 543 96 558 114 558 c 0
 125 558 141 548 153 542 c 2
 660 286 l 2
 699 266 691 258 693 250 c 1
 691 234 689 229 660 214 c 2
 135 -51 l 2
 128 -55 121 -58 114 -58 c 0
 96 -58 83 -43 83 -28 c 0
EndSplineSet
EndChar
StartChar: question
Encoding: 63 63 31
Width: 472
Flags: MW
LayerCount: 2
Fore
SplineSet
55 677 m 1
 94 705 144 730 210 733 c 4
 214 733 219 733 223 733 c 0
 382 733 416 636 416 571 c 0
 416 484 363 450 347 434 c 0
 253 343 255 246 255 215 c 2
 255 175 l 1
 188 175 l 1
 188 207 l 2
 188 414 293 476 318 508 c 0
 322 513 338 534 338 572 c 0
 338 652 282 672 225 672 c 0xd8
 155 672 111 642 78 614 c 1
 55 677 l 1
EndSplineSet
Refer: 14 46 N 1 0 0 1 84 0 2
EndChar
StartChar: A
Encoding: 65 65 33
Width: 667
Flags: MW
LayerCount: 2
Fore
SplineSet
27 -0 m 1
 288 694 l 1
 377 694 l 1
 637 -0 l 1
 545 -0 l 1
 468 204 l 1
 178 204 l 1
 102 -0 l 1
 27 -0 l 1
199 260 m 1
 447 260 l 1
 336 579 l 25
 323 624 l 17
 308 551 284 497 199 260 c 1
EndSplineSet
EndChar
StartChar: B
Encoding: 66 66 34
Width: 667
Flags: MW
LayerCount: 2
Fore
SplineSet
96 0 m 1
 96 694 l 1
 318 694 l 2
 391 694 447 679 488 657 c 0
 555 620 582 563 582 520 c 0xf8
 582 457 529 392 414 363 c 1
 515 347 610 282 610 188 c 0
 610 121 564 65 500 32 c 0
 468 16 432 6 395 2 c 0
 378 0 361 0 344 0 c 2
 96 0 l 1
180 56 m 1
 322 56 l 2
 408 56 468 83 500 119 c 0
 519 140 528 165 528 189 c 0xf4
 528 233 494 281 432 308 c 0
 409 318 382 326 351 329 c 0
 334 330 317 330 300 330 c 2
 181 330 l 1
 180 293 l 1
 180 56 l 1
180 392 m 1
 300 392 l 2
 378 392 435 416 468 447 c 0
 491 469 503 494 503 519 c 0xf8
 503 567 449 638 295 638 c 2
 181 638 l 1
 180 603 l 1
 180 392 l 1
EndSplineSet
EndChar
StartChar: C
Encoding: 67 67 35
Width: 639
Flags: MW
LayerCount: 2
Fore
SplineSet
66 347 m 0
 66 541 198 716 396 716 c 0
 467 716 525 701 577 682 c 1
 562 599 l 1
 508 632 467 652 392 652 c 0
 251 652 156 505 156 347 c 0
 156 186 251 42 395 42 c 0
 497 42 532 70 582 103 c 1
 588 33 l 1
 518 -8 478 -22 394 -22 c 0
 197 -22 66 155 66 347 c 0
EndSplineSet
EndChar
StartChar: E
Encoding: 69 69 37
Width: 597
Flags: MW
LayerCount: 2
Fore
SplineSet
94 0 m 1
 94 691 l 1
 541 691 l 1
 541 625 l 1
 184 627 l 1
 184 390 l 1
 514 390 l 1
 514 329 l 1
 184 329 l 1
 184 70 l 1
 555 72 l 1
 555 0 l 1
 94 0 l 1
EndSplineSet
EndChar
StartChar: F
Encoding: 70 70 38
Width: 569
Flags: MW
LayerCount: 2
Fore
SplineSet
94 0 m 1
 94 691 l 1
 527 691 l 1
 527 625 l 1
 184 627 l 1
 184 376 l 1
 485 376 l 1
 485 315 l 1
 184 315 l 1
 184 0 l 1
 94 0 l 1
EndSplineSet
EndChar
StartChar: G
Encoding: 71 71 39
Width: 667
Flags: MW
LayerCount: 2
Fore
SplineSet
66 347 m 0
 66 541 200 716 391 716 c 0
 478 716 533 697 591 668 c 1
 576 585 l 1
 520 627 476 652 393 652 c 0
 251 652 156 506 156 348 c 0
 156 176 260 42 392 42 c 0
 466 42 514 62 521 63 c 1
 521 237 l 1
 388 237 l 1
 388 299 l 1
 599 299 l 1
 599 26 l 1
 523 -9 454 -22 391 -22 c 0
 208 -22 66 144 66 347 c 0
EndSplineSet
EndChar
StartChar: H
Encoding: 72 72 40
Width: 708
Flags: MW
LayerCount: 2
Fore
SplineSet
94 0 m 1
 94 694 l 1
 184 694 l 1
 184 392 l 1
 524 392 l 1
 524 694 l 1
 614 694 l 1
 614 0 l 1
 524 0 l 1
 524 330 l 1
 184 330 l 1
 184 0 l 1
 94 0 l 1
EndSplineSet
EndChar
StartChar: J
Encoding: 74 74 42
Width: 472
Flags: MW
LayerCount: 2
Fore
SplineSet
41 20 m 1
 54 95 l 1
 63 88 106 40 183 40 c 0
 240 40 301 63 301 157 c 2
 301 694 l 1
 388 694 l 1
 388 155 l 2
 388 13 293 -22 212 -22 c 0
 161 -22 102 -11 41 20 c 1
EndSplineSet
EndChar
StartChar: L
Encoding: 76 76 44
Width: 542
Flags: MW
LayerCount: 2
Fore
SplineSet
94 0 m 1
 94 694 l 1
 184 694 l 1
 184 65 l 1
 499 66 l 1
 499 0 l 1
 94 0 l 1
EndSplineSet
EndChar
StartChar: M
Encoding: 77 77 45
Width: 875
Flags: MW
LayerCount: 2
Fore
SplineSet
100 -0 m 1
 100 694 l 1
 214 694 l 1
 368 293 l 2
 409 181 433 116 437 92 c 1
 438 92 l 1
 443 126 499 268 506 292 c 2
 660 694 l 1
 775 694 l 1
 775 -0 l 1
 697 -0 l 1
 697 592 l 2
 697 612 696 624 696 624 c 1
 696 624 693 606 686 587 c 2
 626 423 l 25
 472 22 l 1
 400 22 l 1
 250 411 l 2
 212 517 187 580 178 624 c 1
 178 -0 l 1
 100 -0 l 1
EndSplineSet
EndChar
StartChar: N
Encoding: 78 78 46
Width: 708
Flags: MW
LayerCount: 2
Fore
SplineSet
95 -0 m 1
 95 694 l 1
 220 694 l 1
 494 150 l 1
 533 70 l 1
 533 694 l 1
 611 694 l 1
 611 -0 l 1
 486 -0 l 1
 212 544 l 1
 173 624 l 1
 173 -0 l 1
 95 -0 l 1
EndSplineSet
EndChar
StartChar: O
Encoding: 79 79 47
Width: 736
Flags: MW
LayerCount: 2
Fore
SplineSet
55 345 m 0
 55 554 199 716 368 716 c 0
 534 716 679 555 679 345 c 0
 679 143 542 -22 367 -22 c 0
 204 -22 55 132 55 345 c 0
145 359 m 0
 145 190 234 43 367 43 c 0
 494 43 590 182 590 359 c 0
 590 540 483 652 367 652 c 0
 244 652 145 531 145 359 c 0
EndSplineSet
EndChar
StartChar: P
Encoding: 80 80 48
Width: 639
Flags: MW
LayerCount: 2
Fore
SplineSet
95 0 m 1
 95 694 l 1
 331 694 l 2
 385 694 434 688 485 655 c 0
 546 618 582 558 582 493 c 0
 582 409 513 288 335 288 c 0
 324 288 313 289 302 289 c 2
 185 289 l 1
 185 0 l 1
 95 0 l 1
182 347 m 1
 315 347 l 2
 464 347 501 434 501 493 c 0
 501 550 464 638 315 638 c 2
 182 638 l 1
 182 347 l 1
EndSplineSet
EndChar
StartChar: Q
Encoding: 81 81 49
Width: 736
Flags: MW
LayerCount: 2
Fore
SplineSet
55 345 m 0
 55 513 153 674 310 710 c 0
 329 714 348 716 367 716 c 0
 438 716 506 687 559 638 c 0
 632 571 680 466 680 345 c 0
 680 152 565 58 533 33 c 1
 652 -125 l 1
 547 -125 l 1
 463 -5 l 1
 436 -13 411 -22 367 -22 c 0
 296 -22 230 6 177 54 c 0
 104 120 55 224 55 345 c 0
142 344 m 0
 142 199 212 83 311 51 c 0
 329 45 348 42 368 42 c 0
 396 42 413 49 424 51 c 1
 323 195 l 1
 412 195 l 1
 490 90 l 1
 491 90 l 1
 523 119 593 191 593 344 c 0
 593 452 557 542 500 596 c 0
 463 632 416 652 366 652 c 2
 365 652 l 2
 313 651 264 628 225 586 c 0
 179 537 148 463 143 370 c 0
 143 361 142 353 142 344 c 0
EndSplineSet
EndChar
StartChar: R
Encoding: 82 82 50
Width: 646
Flags: MW
LayerCount: 2
Fore
SplineSet
95 0 m 1
 95 694 l 1
 321 694 l 2
 396 694 452 678 493 655 c 0
 563 615 589 553 589 508 c 0
 589 437 536 360 418 326 c 1
 617 0 l 1
 527 0 l 1
 340 316 l 1
 182 316 l 1
 182 0 l 1
 95 0 l 1
182 378 m 1
 296 378 l 2
 331 378 370 376 413 391 c 0
 480 414 508 461 508 507 c 0
 508 540 494 581 447 609 c 0
 418 626 376 638 317 638 c 2
 182 638 l 1
 182 378 l 1
EndSplineSet
EndChar
StartChar: S
Encoding: 83 83 51
Width: 555
Flags: MW
LayerCount: 2
Fore
SplineSet
44 47 m 1
 59 130 l 1
 107 91 175 47 273 47 c 0
 360 47 419 110 419 179 c 0
 419 232 384 279 333 299 c 0
 264 327 150 320 84 421 c 0
 67 448 56 479 55 519 c 0
 55 616 140 716 281 716 c 0
 286 716 290 716 295 716 c 0
 367 714 415 694 464 668 c 1
 450 585 l 1
 401 624 359 649 280 649 c 0
 189 649 135 590 135 531 c 0
 135 481 171 442 215 424 c 0
 244 413 330 397 365 382 c 0
 429 356 499 289 499 189 c 0
 499 81 410 -22 273 -22 c 0
 181 -22 107 7 44 47 c 1
EndSplineSet
EndChar
StartChar: T
Encoding: 84 84 52
Width: 680
Flags: MW
LayerCount: 2
Fore
SplineSet
35 623 m 1
 35 689 l 1
 643 689 l 1
 643 623 l 1
 384 624 l 1
 384 0 l 1
 295 0 l 1
 295 624 l 1
 35 623 l 1
EndSplineSet
EndChar
StartChar: U
Encoding: 85 85 53
Width: 687
Flags: MW
LayerCount: 2
Fore
SplineSet
94 257 m 2
 94 694 l 1
 184 694 l 1
 184 279 l 2
 184 252 182 224 186 197 c 0
 190 162 202 127 223 98 c 0
 250 61 291 34 346 34 c 0
 386 34 429 49 461 82 c 0
 489 111 510 154 514 212 c 2
 514 694 l 1
 593 694 l 1
 593 266 l 2
 593 242 603 136 518 50 c 0
 484 16 424 -22 346 -22 c 0
 280 -22 221 3 177 43 c 0
 134 82 104 136 96 196 c 0
 94 217 94 237 94 257 c 2
EndSplineSet
EndChar
StartChar: V
Encoding: 86 86 54
Width: 667
Flags: MW
LayerCount: 2
Fore
SplineSet
14 694 m 1
 107 694 l 1
 260 300 l 2
 311 163 329 117 341 70 c 1
 347 112 408 260 419 295 c 2
 574 694 l 1
 652 694 l 1
 379 -0 l 1
 287 -0 l 1
 14 694 l 1
EndSplineSet
EndChar
StartChar: W
Encoding: 87 87 55
Width: 944
Flags: MW
LayerCount: 2
Fore
SplineSet
14 694 m 1
 101 694 l 1
 101 694 199 359 234 208 c 10
 268 70 l 1
 272 115 302 225 320 290 c 2
 435 694 l 1
 517 694 l 1
 517 694 583 476 635 283 c 2
 664 175 l 18
 678 125 685 80 687 70 c 1
 690 104 724 229 740 289 c 2
 857 694 l 1
 929 694 l 1
 726 0 l 1
 639 0 l 1
 532 369 l 2
 476 577 483 549 469 624 c 1
 465 585 429 454 410 388 c 2
 298 0 l 1
 218 0 l 1
 14 694 l 1
EndSplineSet
EndChar
StartChar: X
Encoding: 88 88 56
Width: 667
Flags: MW
LayerCount: 2
Fore
SplineSet
14 -0 m 1
 282 365 l 1
 282 366 l 1
 28 694 l 1
 133 694 l 1
 326 433 l 1
 514 694 l 1
 610 694 l 1
 369 366 l 1
 369 365 l 1
 652 -0 l 1
 547 -0 l 1
 327 305 l 1
 325 305 l 1
 110 -0 l 1
 14 -0 l 1
EndSplineSet
EndChar
StartChar: Y
Encoding: 89 89 57
Width: 667
Flags: MW
LayerCount: 2
Fore
SplineSet
2 694 m 1
 107 694 l 1
 254 481 l 2
 298 415 326 376 341 348 c 1
 368 397 574 694 574 694 c 17
 662 694 l 1
 376 278 l 1
 376 -0 l 1
 289 -0 l 1
 289 278 l 1
 2 694 l 1
EndSplineSet
EndChar
StartChar: Z
Encoding: 90 90 58
Width: 611
Flags: MW
LayerCount: 2
Fore
SplineSet
55 -0 m 1
 55 25 l 2
 55 44 55 44 68 63 c 2
 440 632 l 1
 69 631 l 1
 69 694 l 5
 555 694 l 1
 555 670 l 2
 555 651 554 652 542 633 c 2
 170 65 l 1
 560 66 l 1
 560 -0 l 1
 55 -0 l 1
EndSplineSet
EndChar
StartChar: bracketleft
Encoding: 91 91 59
Width: 289
Flags: MW
LayerCount: 2
Fore
SplineSet
100 -250 m 1xd0
 100 750 l 1
 266 750 l 1
 266 689 l 1xd0
 175 689 l 1
 175 -189 l 1xe0
 266 -189 l 1
 266 -250 l 1
 100 -250 l 1xd0
EndSplineSet
EndChar
StartChar: backslash
Encoding: 92 92 60
Width: 500
Flags: MW
LayerCount: 2
Fore
SplineSet
56 719 m 0
 56 737 71 749 86 749 c 0
 110 749 117 724 121 711 c 2
 438 -197 l 2
 440 -204 443 -211 443 -219 c 0
 443 -233 431 -250 413 -250 c 0
 387 -250 381 -220 376 -206 c 2
 57 709 l 2
 56 712 56 716 56 719 c 0
EndSplineSet
EndChar
StartChar: asciicircum
Encoding: 94 94 62
Width: 611
Flags: MW
LayerCount: 2
Fore
SplineSet
133 445 m 1
 274 630 l 1
 336 630 l 1
 477 445 l 1
 416 445 l 1
 305 581 l 1
 194 445 l 1
 133 445 l 1
EndSplineSet
EndChar
StartChar: underscore
Encoding: 95 95 63
Width: 778
Flags: MW
LayerCount: 2
Fore
SplineSet
84 -228 m 0
 84 -206 107 -208 118 -208 c 2
 660 -208 l 2
 671 -208 693 -206 693 -228 c 0
 693 -236 689 -248 665 -248 c 2
 118 -248 l 2
 105 -248 84 -248 84 -228 c 0
EndSplineSet
EndChar
StartChar: grave
Encoding: 96 96 64
Width: 500
Flags: MW
LayerCount: 2
Fore
SplineSet
97 640 m 1
 175 640 l 1
 308 510 l 1
 247 510 l 1
 97 640 l 1
EndSplineSet
EndChar
StartChar: a
Encoding: 97 97 65
Width: 480
Flags: MW
LayerCount: 2
Fore
SplineSet
44 113 m 0
 44 219 219 244 322 245 c 1
 322 279 l 2
 321 311 320 341 296 371 c 0
 272 400 246 401 233 401 c 0
 159 401 117 373 83 350 c 1
 77 417 l 1
 124 444 169 461 236 461 c 0
 330 461 394 387 400 305 c 2
 400 0 l 1
 324 0 l 1
 324 35 l 1
 271 -2 205 -11 158 -11 c 0
 74 -11 44 67 44 113 c 0
117 114 m 0
 117 77 157 51 210 51 c 0
 256 51 322 66 322 130 c 2
 322 193 l 1
 249 192 117 177 117 114 c 0
EndSplineSet
EndChar
StartChar: c
Encoding: 99 99 67
Width: 444
Flags: MW
LayerCount: 2
Fore
SplineSet
35 223 m 0
 35 339 115 461 255 461 c 0
 317 461 349 452 410 417 c 1
 398 351 l 1
 359 375 333 397 254 397 c 0
 170 397 125 330 115 255 c 4
 114 244 113 234 113 223 c 0
 113 126 169 53 253 53 c 0
 331 53 378 85 410 107 c 1
 415 40 l 1
 370 10 321 -11 252 -11 c 0
 129 -11 35 94 35 223 c 0
EndSplineSet
EndChar
StartChar: d
Encoding: 100 100 68
Width: 517
Flags: MW
LayerCount: 2
Fore
SplineSet
35 221 m 0
 35 303 65 374 112 416 c 0
 140 441 175 456 213 456 c 0
 275 456 323 429 358 401 c 1
 358 722 l 1
 434 722 l 1
 434 0 l 1
 355 0 l 1
 355 52 l 1
 321 20 273 -11 207 -11 c 0
 171 -11 138 3 111 28 c 0
 65 70 35 142 35 221 c 0
113 222 m 0
 113 150 137 105 168 80 c 0
 193 59 224 51 248 51 c 0
 307 51 355 101 355 134 c 2
 355 325 l 2
 355 341 353 347 334 364 c 0
 304 393 271 394 260 394 c 2
 258 394 l 2
 200 394 113 353 113 222 c 0
EndSplineSet
EndChar
StartChar: e
Encoding: 101 101 69
Width: 444
Flags: MW
LayerCount: 2
Fore
SplineSet
34 226 m 0
 34 351 121 461 236 461 c 0
 307 461 405 420 414 249 c 2
 414 220 l 1
 104 220 l 1
 106 169 125 125 154 94 c 4
 180 67 213 51 252 51 c 0
 320 51 367 79 404 106 c 1
 410 40 l 1
 367 11 315 -11 252 -11 c 0
 121 -11 34 102 34 226 c 0
109 275 m 1
 357 275 l 1
 341 387 265 399 236 399 c 0
 160 399 120 325 109 275 c 1
EndSplineSet
EndChar
StartChar: g
Encoding: 103 103 71
Width: 500
Flags: MW
LayerCount: 2
Fore
SplineSet
132 292 m 0
 132 263 139 240 151 222 c 0
 167 199 192 187 222 187 c 0
 242 187 268 194 287 216 c 0
 301 232 311 257 311 293 c 0
 311 301 310 309 309 316 c 0
 305 343 294 364 278 378 c 0
 263 391 244 398 221 398 c 0
 203 398 180 393 162 376 c 0
 148 363 137 344 133 315 c 0
 132 308 132 300 132 292 c 0
97 -71 m 0
 97 -94 113 -112 136 -124 c 0
 163 -138 198 -146 228 -148 c 0
 235 -149 241 -149 247 -149 c 0
 294 -149 339 -138 368 -120 c 0
 388 -107 401 -91 401 -72 c 0
 401 -31 360 -3 252 -3 c 2
 189 -3 l 1
 160 -4 l 2
 119 -7 97 -43 97 -71 c 0
27 -71 m 0
 27 -30 52 9 91 32 c 1
 75 55 66 76 66 108 c 0
 66 140 77 168 95 192 c 1
 95 193 l 1
 65 233 62 272 62 292 c 0
 62 340 84 387 120 418 c 0
 147 441 181 455 221 455 c 0
 226 455 231 454 236 454 c 0
 265 451 289 442 316 424 c 1
 365 444 422 455 474 455 c 1
 485 392 l 1
 465 394 446 395 426 395 c 0
 403 395 368 392 348 391 c 1
 371 359 381 332 381 292 c 0
 381 248 363 206 333 176 c 0
 305 147 266 129 221 129 c 0
 165 129 133 158 130 159 c 0
 120 139 119 129 119 122 c 0
 119 98 131 69 175 69 c 2
 250 69 l 2
 288 69 344 68 390 49 c 4
 424 35 454 10 466 -33 c 0
 469 -45 471 -57 471 -70 c 0
 471 -115 438 -154 386 -178 c 0
 348 -196 301 -206 249 -206 c 0
 203 -206 160 -197 124 -183 c 0
 91 -170 65 -152 48 -130 c 0
 35 -112 27 -92 27 -71 c 0
EndSplineSet
EndChar
StartChar: j
Encoding: 106 106 74
Width: 267
Flags: MW
LayerCount: 2
Fore
SplineSet
96 590 m 1
 96 679 l 1
 186 679 l 1
 186 590 l 1
 96 590 l 1
EndSplineSet
Refer: 393 567 N 1 0 0 1 0 0 2
EndChar
StartChar: k
Encoding: 107 107 75
Width: 489
Flags: MW
LayerCount: 2
Fore
SplineSet
83 0 m 1
 83 722 l 1
 155 722 l 1
 155 236 l 1
 359 445 l 1
 449 445 l 1
 281 273 l 1
 471 0 l 1
 389 0 l 1
 233 224 l 1
 153 142 l 1
 153 0 l 1
 83 0 l 1
EndSplineSet
EndChar
StartChar: m
Encoding: 109 109 77
Width: 794
Flags: MW
LayerCount: 2
Fore
SplineSet
80 0 m 1xdc
 80 450 l 1
 153 450 l 1
 153 404 l 1
 153 380 l 1
 167 398 211 455 299 455 c 0
 383 455 412 412 426 374 c 1
 441 394 486 455 577 455 c 0
 618 455 647 445 667 429 c 4
 697 405 708 368 712 334 c 0
 714 317 714 302 714 288 c 2
 714 0 l 1
 635 0 l 1
 635 281 l 2
 635 340 625 394 538 394 c 0
 462 394 436 314 436 240 c 2
 436 0 l 1
 358 0 l 1
 358 281 l 2
 358 340 347 394 260 394 c 0xec
 184 394 158 314 158 240 c 2
 158 0 l 1
 80 0 l 1xdc
EndSplineSet
EndChar
StartChar: n
Encoding: 110 110 78
Width: 517
Flags: MW
LayerCount: 2
Fore
SplineSet
80 -0 m 1xd8
 80 450 l 1
 153 450 l 1
 153 408 l 5
 153 380 l 1
 167 398 211 455 299 455 c 0
 350 455 382 440 402 417 c 0
 423 393 431 360 434 328 c 0
 435 314 436 301 436 288 c 2
 436 -0 l 1
 358 -0 l 1
 358 281 l 2
 358 340 347 394 260 394 c 0xe8
 184 394 158 314 158 240 c 2
 158 -0 l 1
 80 -0 l 1xd8
EndSplineSet
EndChar
StartChar: o
Encoding: 111 111 79
Width: 500
Flags: MW
LayerCount: 2
Fore
SplineSet
30 221 m 0
 30 336 114 461 249 461 c 0
 368 461 469 355 469 220 c 0
 469 84 363 -11 249 -11 c 0
 135 -11 30 84 30 221 c 0
108 231 m 0
 108 119 171 53 249 53 c 0
 316 53 390 106 390 231 c 0
 390 337 328 399 249 399 c 0
 185 399 108 352 108 231 c 0
EndSplineSet
EndChar
StartChar: p
Encoding: 112 112 80
Width: 517
Flags: MW
LayerCount: 2
Fore
SplineSet
81 -195 m 1
 81 445 l 1
 156 445 l 1
 156 396 l 1
 178 414 201 426 222 435 c 0
 263 452 300 455 322 455 c 0
 368 455 407 428 435 386 c 0
 463 343 480 285 480 224 c 0
 480 157 458 94 420 50 c 0
 388 13 345 -11 294 -11 c 0
 258 -11 228 -1 202 14 c 0
 186 23 172 34 159 46 c 1
 159 -195 l 1
 81 -195 l 1
159 126 m 2
 159 112 172 89 194 72 c 0
 210 60 231 50 256 50 c 0
 292 50 330 68 358 100 c 0
 384 130 401 171 401 222 c 0
 401 233 401 244 399 254 c 4
 393 291 378 325 355 350 c 0
 332 375 301 391 265 391 c 0
 236 391 213 381 196 370 c 0
 172 354 160 334 159 334 c 1
 159 126 l 2
EndSplineSet
EndChar
StartChar: q
Encoding: 113 113 81
Width: 517
Flags: MW
LayerCount: 2
Fore
SplineSet
35 221 m 0
 35 352 117 455 221 455 c 0
 286 455 329 421 358 388 c 1
 358 455 l 1
 434 455 l 1xf4
 434 -195 l 1
 355 -195 l 1
 355 50 l 1xf8
 316 14 264 -11 204 -11 c 0
 161 -11 123 10 94 44 c 4
 58 87 35 150 35 221 c 0
113 221 m 0
 113 170 132 123 161 92 c 0
 185 67 215 51 249 51 c 0
 303 51 358 95 358 138 c 2
 358 285 l 2
 358 314 330 392 258 392 c 0xf4
 223 392 178 372 148 332 c 0
 127 304 113 267 113 221 c 0
EndSplineSet
EndChar
StartChar: r
Encoding: 114 114 82
Width: 342
Flags: MW
LayerCount: 2
Fore
SplineSet
81 0 m 1xd0
 81 450 l 1
 151 450 l 1
 151 404 l 5
 151 360 l 1xe0
 168 384 220 454 326 455 c 1
 326 388 l 1
 268 386 156 351 156 206 c 2xd0
 156 0 l 1
 81 0 l 1xd0
EndSplineSet
EndChar
StartChar: s
Encoding: 115 115 83
Width: 383
Flags: MW
LayerCount: 2
Fore
SplineSet
27 34 m 1
 39 102 l 1
 82 77 121 52 196 52 c 0
 271 52 289 93 289 120 c 0
 289 159 253 178 233 184 c 0
 211 191 168 196 137 206 c 0
 110 214 78 232 56 260 c 0
 42 278 33 301 33 329 c 0
 33 363 44 407 88 435 c 4
 113 451 148 461 197 461 c 0
 253 461 289 453 343 430 c 1
 332 364 l 1
 292 383 260 401 188 401 c 0
 119 401 104 364 104 340 c 0
 104 267 216 278 273 252 c 0
 314 233 360 192 360 127 c 0
 360 93 349 49 310 20 c 0
 285 1 249 -11 197 -11 c 0
 163 -11 102 -7 27 34 c 1
EndSplineSet
EndChar
StartChar: u
Encoding: 117 117 85
Width: 517
Flags: MW
LayerCount: 2
Fore
SplineSet
80 122 m 2
 80 445 l 1
 158 445 l 1
 158 110 l 2
 159 88 162 71 174 60 c 0
 186 50 205 45 238 45 c 0
 273 45 300 56 320 72 c 0
 342 90 354 114 357 136 c 0
 358 146 358 156 358 165 c 2
 358 445 l 1
 436 445 l 1
 436 -0 l 1
 360 -0 l 1
 360 28 l 1
 360 48 l 1
 340 30 316 17 292 8 c 0
 256 -6 217 -11 185 -11 c 0
 150 -11 127 -2 111 12 c 0
 80 40 80 87 80 122 c 2
EndSplineSet
EndChar
StartChar: v
Encoding: 118 118 86
Width: 461
Flags: MW
LayerCount: 2
Fore
SplineSet
14 445 m 1
 91 445 l 1
 184 201 l 2
 221 97 227 81 232 50 c 1
 241 116 359 406 372 445 c 1
 446 445 l 1
 274 0 l 1
 186 0 l 1
 14 445 l 1
EndSplineSet
EndChar
StartChar: w
Encoding: 119 119 87
Width: 683
Flags: MW
LayerCount: 2
Fore
SplineSet
14 445 m 1
 89 445 l 1
 193 114 190 90 197 50 c 1
 200 125 299 427 303 445 c 1
 374 445 l 1
 447 201 l 2
 477 96 481 81 485 50 c 1
 491 116 589 419 596 445 c 1
 669 445 l 1
 531 0 l 1
 444 0 l 1
 332 372 348 328 337 394 c 1
 333 315 236 24 231 0 c 1
 152 0 l 1
 14 445 l 1
EndSplineSet
EndChar
StartChar: x
Encoding: 120 120 88
Width: 461
Flags: MW
LayerCount: 2
Fore
SplineSet
0 -0 m 1
 194 228 l 1
 194 230 l 1
 6 445 l 1
 89 445 l 1
 227 280 l 1
 228 280 l 1
 361 445 l 1
 444 445 l 1
 260 230 l 1
 260 229 l 1
 460 -0 l 1
 377 -0 l 1
 227 188 l 1
 83 -0 l 1
 0 -0 l 1
EndSplineSet
EndChar
StartChar: y
Encoding: 121 121 89
Width: 461
Flags: MW
LayerCount: 2
Fore
SplineSet
14 445 m 1
 93 445 l 1
 244 98 226 105 238 50 c 1
 240 141 366 427 371 445 c 1
 446 445 l 1
 229 -90 l 2
 207 -140 189 -169 169 -186 c 4
 152 -200 135 -205 114 -205 c 0
 95 -205 65 -203 41 -197 c 1
 36 -132 l 1
 69 -143 92 -149 109 -149 c 0
 123 -149 134 -145 144 -135 c 0
 161 -118 176 -83 202 -15 c 0
 205 -8 206 -3 206 1 c 0
 206 6 204 10 201 18 c 2
 14 445 l 1
EndSplineSet
EndChar
StartChar: z
Encoding: 122 122 90
Width: 435
Flags: MW
LayerCount: 2
Fore
SplineSet
27 0 m 1
 27 41 l 1
 293 386 l 1
 41 385 l 1
 41 445 l 1
 398 445 l 1
 398 405 l 1
 133 62 l 1
 401 63 l 5
 401 0 l 1
 27 0 l 1
EndSplineSet
EndChar
StartChar: bar
Encoding: 124 124 92
Width: 278
Flags: MW
LayerCount: 2
Fore
SplineSet
118 -220 m 2
 118 720 l 2
 118 733 121 740 125 744 c 0
 129 748 134 749 138 749 c 0
 146 749 150 746 153 741 c 0
 158 734 158 724 158 720 c 2
 158 -220 l 2
 158 -231 156 -238 153 -242 c 4
 149 -248 143 -249 138 -249 c 0
 130 -249 126 -246 123 -242 c 0
 119 -236 118 -227 118 -220 c 2
EndSplineSet
EndChar
StartChar: asciitilde
Encoding: 126 126 94
Width: 611
Flags: MW
LayerCount: 2
Fore
SplineSet
83 557 m 1xb0
 86 632 145 676 210 676 c 0x70
 278 676 335 619 399 619 c 0xb0
 433 619 462 638 466 676 c 1
 527 676 l 1x70
 524 602 465 557 400 557 c 0xb0
 332 557 275 615 211 615 c 0x70
 177 615 148 595 144 557 c 1
 83 557 l 1xb0
EndSplineSet
EndChar
StartChar: exclamdown
Encoding: 161 161 100
Width: 319
Flags: MW
LayerCount: 2
Fore
SplineSet
117 -195 m 1xe0
 125 353 l 1
 192 353 l 1xd0
 200 -143 l 1
 201 -195 l 1
 117 -195 l 1xe0
EndSplineSet
Refer: 14 46 S 1 0 0 1 21 444 2
EndChar
StartChar: cent
Encoding: 162 162 99
Width: 500
Flags: MW
LayerCount: 2
Fore
SplineSet
35 222 m 0
 35 330 112 441 247 459 c 1
 247 547 l 1
 306 547 l 1
 306 460 l 1
 370 458 400 449 465 417 c 1
 454 351 l 1
 405 376 381 392 306 396 c 1
 306 54 l 1
 371 60 408 74 465 107 c 1
 471 40 l 1
 419 11 373 -5 306 -10 c 1
 306 -97 l 1
 247 -97 l 1
 247 -9 l 1
 130 5 35 100 35 222 c 0
115 197 m 4
 125 122 176 69 247 56 c 1
 247 394 l 1
 151 377 113 295 113 223 c 0
 113 214 114 205 115 197 c 4
EndSplineSet
EndChar
StartChar: sterling
Encoding: 163 163 100
Width: 639
Flags: MW
LayerCount: 2
Fore
SplineSet
55 58 m 0
 55 110 113 145 183 145 c 0
 203 145 219 142 234 138 c 1
 236 156 238 174 238 194 c 2
 238 332 l 1
 166 332 l 1
 166 390 l 1
 238 390 l 1
 238 528 l 2
 238 612 263 670 297 707 c 0
 333 747 378 763 415 763 c 0
 549 763 582 604 582 549 c 0
 582 512 559 507 547 507 c 0
 514 507 504 541 504 541 c 1
 504 541 l 1xfc
 504 548 503 555 503 562 c 0
 497 678 449 702 416 702 c 0
 396 702 372 695 352 671 c 0
 338 654 326 628 320 590 c 0
 317 573 316 555 316 533 c 2
 316 390 l 1
 416 390 l 1
 416 332 l 1
 316 332 l 1
 316 193 l 2
 316 162 314 144 305 112 c 1
 322 105 423 50 480 50 c 0
 522 50 532 80 532 145 c 1
 610 145 l 1xfa
 607 48 532 -11 453 -11 c 0
 402 -11 367 5 269 51 c 5
 218 -8 156 -11 140 -11 c 0
 94 -11 55 17 55 58 c 0
130 61 m 0
 130 54 136 51 144 51 c 0
 175 51 202 76 202 76 c 1
 182 81 167 83 157 83 c 0xf8
 133 83 130 68 130 61 c 0
EndSplineSet
EndChar
StartChar: currency
Encoding: 164 164 106
Width: 757
Flags: MW
LayerCount: 2
Fore
SplineSet
46 -29 m 0
 46 -27 47 -25 47 -22 c 1
 49 -16 53 -11 64 0 c 0
 78 15 105 40 155 90 c 1
 155 91 l 1
 103 149 81 222 81 286 c 0
 81 357 107 428 155 481 c 1
 155 482 l 1
 62 574 46 586 46 600 c 0
 46 607 54 618 65 618 c 2
 68 618 l 2
 76 618 78 614 183 510 c 1
 236 557 307 583 378 583 c 0
 442 583 515 561 573 510 c 1
 574 510 l 1
 673 608 l 2
 678 613 686 618 691 618 c 0
 698 618 711 614 711 596 c 0
 711 588 707 586 602 481 c 1
 649 427 675 357 675 286 c 0
 675 204 644 141 602 90 c 1
 701 -8 710 -14 710 -28 c 0
 711 -36 706 -38 705 -41 c 1
 698 -45 695 -47 693 -47 c 0
 691 -47 689 -46 686 -46 c 1
 674 -40 662 -26 574 62 c 1
 573 62 l 1
 520 15 449 -11 378 -11 c 0
 296 -11 233 20 183 62 c 1
 75 -46 78 -46 64 -46 c 0
 54 -46 46 -34 46 -29 c 0
121 286 m 0
 121 154 221 42 355 30 c 0
 363 29 370 29 378 29 c 0
 516 29 635 139 635 286 c 0
 635 425 523 543 379 543 c 0
 374 543 369 543 364 543 c 0
 231 535 121 426 121 286 c 0
EndSplineSet
EndChar
StartChar: yen
Encoding: 165 165 326
Width: 667
Flags: MW
LayerCount: 2
Fore
SplineSet
-27 189 m 0
 -27 200 -23 206 -18 211 c 0
 -9 219 5 220 13 220 c 2
 290 220 l 1
 290 278 l 1
 235 358 l 1
 16 358 l 2
 12 358 7 358 2 359 c 0
 -5 360 -13 362 -18 366 c 0
 -23 370 -27 377 -27 388 c 0
 -27 396 -25 406 -16 412 c 0
 -10 416 0 419 14 419 c 2
 22 419 l 2
 24 419 27 419 29 420 c 1
 193 420 l 1
 3 694 l 1
 109 694 l 1
 296 420 l 1
 388 420 l 1
 576 694 l 1
 664 694 l 1
 475 420 l 1
 653 420 l 2
 660 420 665 419 670 418 c 0
 690 413 694 399 694 388 c 0
 694 369 682 362 670 359 c 0
 664 358 657 358 652 358 c 2
 433 358 l 1
 377 278 l 1
 377 220 l 1
 650 220 l 2
 657 220 664 220 671 218 c 0
 684 214 694 202 694 189 c 0
 694 175 685 163 672 160 c 0
 665 158 658 158 651 158 c 2
 377 158 l 1
 377 -0 l 1
 290 -0 l 1
 290 158 l 1
 16 158 l 2
 13 158 9 158 6 158 c 0
 2 158 -1 159 -4 160 c 0
 -9 161 -13 164 -17 167 c 0
 -23 172 -27 180 -27 189 c 0
337 358 m 1
 342 348 l 1
 348 358 l 1
 337 358 l 1
EndSplineSet
EndChar
StartChar: brokenbar
Encoding: 166 166 96
Width: 167
Flags: MW
LayerCount: 2
Fore
SplineSet
63 141 m 2
 63 165 75 169 83 169 c 0
 104 169 103 142 103 142 c 1
 103 -221 l 2
 103 -245 91 -249 83 -249 c 0
 62 -249 63 -222 63 -222 c 1
 63 141 l 2
63 358 m 1
 63 721 l 2
 63 744 75 749 83 749 c 0
 104 749 103 723 103 722 c 2
 103 360 l 2
 103 335 91 331 83 331 c 0
 62 331 63 358 63 358 c 1
EndSplineSet
EndChar
StartChar: section
Encoding: 167 167 105
Width: 444
Flags: MW
LayerCount: 2
Fore
SplineSet
44 -133 m 1
 56 -65 l 1
 77 -88 120 -144 217 -144 c 0
 280 -144 295 -74 295 -36 c 0
 295 48 217 75 200 83 c 0
 173 98 69 158 69 271 c 0
 69 316 84 349 100 373 c 0
 120 401 142 415 142 415 c 1
 142 417 l 17
 107 451 69 497 69 563 c 0
 69 644 125 733 224 733 c 0
 293 733 332 710 371 675 c 1
 365 638 l 1
 359 609 l 1
 345 624 306 672 226 672 c 0
 164 672 148 602 148 564 c 0
 148 526 165 499 184 481 c 0
 207 459 234 449 243 445 c 0
 270 430 374 370 374 257 c 0
 374 215 361 183 346 159 c 0
 334 140 321 127 301 112 c 1
 301 110 l 17
 336 77 374 33 374 -35 c 0
 374 -119 318 -205 217 -205 c 0
 135 -205 86 -173 44 -133 c 1
148 272 m 0
 148 238 161 213 177 195 c 0
 203 165 239 154 243 154 c 0
 264 154 295 197 295 256 c 0
 295 297 276 325 255 343 c 0
 231 365 204 373 200 373 c 0
 179 373 148 330 148 272 c 0
EndSplineSet
EndChar
StartChar: copyright
Encoding: 169 169 126
Width: 1111
Flags: MW
LayerCount: 2
Fore
SplineSet
55 250 m 0
 55 535 276 772 555 772 c 0
 820 772 1054 548 1054 250 c 0
 1054 -28 841 -272 554 -272 c 0
 287 -272 55 -46 55 250 c 0
95 250 m 0
 95 -13 298 -232 553 -232 c 0
 804 -232 1014 -21 1014 250 c 0
 1014 513 810 732 556 732 c 0
 303 732 95 519 95 250 c 0
288 243 m 0
 288 301 311 355 352 399 c 4
 412 464 509 508 627 508 c 0
 682 508 722 500 771 484 c 1
 757 401 l 1
 722 423 694 444 625 444 c 0
 489 444 377 355 377 243 c 0
 377 146 470 42 628 42 c 0
 706 42 730 59 776 86 c 1
 782 17 l 1
 732 -9 706 -22 626 -22 c 0
 466 -22 342 60 302 167 c 0
 293 191 288 217 288 243 c 0
EndSplineSet
EndChar
StartChar: ordfeminine
Encoding: 170 170 113
Width: 444
Flags: MW
LayerCount: 2
Fore
SplineSet
44 465 m 0
 44 495 67 515 99 528 c 0
 157 552 244 554 266 554 c 1
 266 590 l 2
 266 646 253 707 202 707 c 0
 141 707 103 673 83 656 c 1
 77 724 l 1
 117 752 155 766 206 766 c 0
 261 766 345 728 345 588 c 2
 345 375 l 1
 269 375 l 1
 269 408 l 1
 256 399 209 364 130 364 c 0
 61 364 44 435 44 465 c 0
118 472 m 1
 115 440 147 426 180 426 c 0
 220 426 258 448 265 487 c 2
 266 503 l 1
 176 500 129 482 121 477 c 1
 118 472 l 1
EndSplineSet
EndChar
StartChar: guillemotleft
Encoding: 171 171 104
Width: 667
Flags: MW
LayerCount: 2
Fore
SplineSet
110 220 m 5
 334 439 l 5
 399 439 l 5
 183 219 l 5
 399 0 l 5
 334 0 l 5
 110 220 l 5
276 220 m 5
 500 439 l 5
 565 439 l 5
 350 219 l 5
 565 0 l 5
 500 0 l 5
 276 220 l 5
EndSplineSet
EndChar
StartChar: logicalnot
Encoding: 172 172 120
Width: 667
Flags: MW
LayerCount: 2
Fore
SplineSet
56 332 m 0
 56 354 80 351 90 352 c 2
 583 352 l 2
 609 352 610 336 610 323 c 2
 610 71 l 2
 610 47 598 43 590 43 c 0
 577 43 573 52 571 60 c 0
 570 65 570 70 570 73 c 2
 570 312 l 1
 88 312 l 2
 85 312 83 312 80 312 c 4
 66 313 56 318 56 332 c 0
EndSplineSet
EndChar
StartChar: registered
Encoding: 174 174 128
Width: 1111
Flags: MW
LayerCount: 2
Fore
SplineSet
55 250 m 0
 55 535 276 772 555 772 c 0
 820 772 1054 548 1054 250 c 0
 1054 -28 841 -272 554 -272 c 0
 287 -272 55 -46 55 250 c 0
95 250 m 0
 95 -13 298 -232 553 -232 c 0
 804 -232 1014 -21 1014 250 c 0
 1014 513 810 732 556 732 c 0
 303 732 95 519 95 250 c 0
345 0 m 1
 345 486 l 1
 569 486 l 2
 622 486 683 483 745 454 c 0
 768 443 786 431 800 418 c 0
 822 397 832 374 832 352 c 0
 832 285 754 239 671 221 c 1
 860 0 l 1
 770 0 l 1
 594 212 l 1
 431 212 l 1
 431 0 l 1
 345 0 l 1
431 274 m 1
 554 274 l 2
 566 274 577 274 588 274 c 4
 630 275 661 278 693 291 c 0
 753 314 749 346 751 351 c 1
 747 390 717 430 553 430 c 2
 432 430 l 1
 431 373 l 1
 431 274 l 1
EndSplineSet
EndChar
StartChar: macron
Encoding: 175 175 126
Width: 500
Flags: MW
LayerCount: 2
Fore
SplineSet
69 618 m 1
 69 682 l 1
 429 682 l 1
 429 618 l 1
 69 618 l 1
EndSplineSet
EndChar
StartChar: degree
Encoding: 176 176 127
Width: 333
Flags: MW
LayerCount: 2
Fore
SplineSet
55 583 m 0
 55 644 105 694 166 694 c 0
 230 694 277 642 277 583 c 0
 277 522 227 472 166 472 c 0
 102 472 55 524 55 583 c 0
95 583 m 0
 95 548 122 515 162 513 c 0
 163 513 165 513 166 513 c 0
 204 513 236 542 236 583 c 0
 236 619 208 654 166 654 c 0
 128 654 95 624 95 583 c 0
EndSplineSet
EndChar
StartChar: plusminus
Encoding: 177 177 145
Width: 778
Flags: MW
LayerCount: 2
Fore
SplineSet
56 19 m 0
 56 31 63 40 83 40 c 2
 368 40 l 1
 368 313 l 1
 86 313 l 2
 70 313 56 316 56 333 c 0
 56 350 70 353 85 353 c 2
 368 353 l 1
 368 635 l 2
 368 651 370 665 388 665 c 0
 406 665 408 652 408 636 c 2
 408 353 l 1
 690 353 l 2
 705 353 721 349 721 333 c 0
 721 316 706 313 691 313 c 2
 408 313 l 1
 408 40 l 1
 695 40 l 2
 702 40 707 38 711 36 c 0
 717 32 720 28 720 20 c 0
 720 13 717 8 713 5 c 0
 707 0 697 0 692 -0 c 2
 84 -0 l 2
 58 0 56 14 56 19 c 0
EndSplineSet
EndChar
StartChar: two.superior
Encoding: 178 178 133
Width: 444
Flags: MW
LayerCount: 2
Fore
SplineSet
41 691 m 1
 87 748 134 772 207 772 c 0
 317 772 393 710 393 624 c 0
 393 545 303 530 232 495 c 0
 220 490 209 483 116 431 c 1
 265 431 l 1
 290 432 l 1
 393 432 l 1
 393 361 l 1
 49 361 l 1
 49 431 l 1
 138 484 150 491 161 497 c 0
 222 528 310 550 310 622 c 0
 310 673 262 708 194 708 c 0
 122 708 98 667 80 633 c 1
 41 691 l 1
EndSplineSet
EndChar
StartChar: three.superior
Encoding: 179 179 147
Width: 444
Flags: MW
LayerCount: 2
Fore
SplineSet
41 378 m 1
 50 439 l 1
 82 430 116 421 155 416 c 0
 174 414 194 412 216 412 c 0xe8
 255 412 279 422 293 434 c 4
 308 447 312 463 312 474 c 0xe8
 312 496 295 513 281 521 c 0
 259 534 233 535 207 535 c 2
 166 535 l 1
 166 597 l 1
 207 601 243 600 272 626 c 0
 283 637 291 651 291 667 c 0
 291 685 277 713 219 713 c 0
 160 713 121 688 88 661 c 1
 55 717 l 1
 100 750 154 772 219 772 c 0
 305 772 374 726 374 667 c 0xf0
 374 597 305 568 303 565 c 1
 337 555 401 527 401 473 c 0
 401 442 380 404 337 379 c 0
 308 362 268 350 218 350 c 0
 198 350 178 351 157 353 c 0
 122 357 84 365 41 378 c 1
EndSplineSet
EndChar
StartChar: acute
Encoding: 180 180 196
Width: 500
Flags: MW
LayerCount: 2
Fore
SplineSet
190 510 m 1
 323 640 l 1
 401 640 l 1
 252 510 l 1
 190 510 l 1
EndSplineSet
EndChar
StartChar: micro
Encoding: 181 181 126
Width: 517
Flags: MW
LayerCount: 2
Fore
SplineSet
80 -195 m 1
 80 445 l 1
 158 445 l 1
 158 110 l 2
 159 67 170 45 238 45 c 0
 313 45 352 94 357 136 c 0
 358 146 358 156 358 165 c 2
 358 445 l 1
 436 445 l 1
 436 0 l 1
 360 0 l 1
 360 28 l 5
 360 48 l 1
 309 4 240 -11 186 -11 c 0
 177 -11 167 -10 158 -9 c 1
 158 -195 l 1
 80 -195 l 1
EndSplineSet
EndChar
StartChar: paragraph
Encoding: 182 182 199
Width: 611
Flags: MW
LayerCount: 2
Fore
SplineSet
55 484 m 0
 55 601 148 707 277 721 c 0
 291 722 304 722 318 722 c 2
 551 722 l 2
 568 722 582 718 582 702 c 0xe8
 582 698 580 691 574 687 c 0
 570 684 564 682 556 682 c 2
 499 682 l 1
 499 -165 l 2
 499 -169 499 -173 498 -176 c 0
 495 -191 486 -194 479 -194 c 0
 467 -194 462 -186 460 -178 c 0
 459 -174 459 -169 459 -165 c 2
 459 682 l 1
 390 682 l 1
 390 -161 l 2
 390 -170 389 -179 386 -185 c 0
 383 -190 378 -194 370 -194 c 0
 362 -194 357 -190 354 -186 c 0
 351 -182 350 -176 350 -165 c 2
 350 244 l 1xd8
 217 251 55 323 55 484 c 0
EndSplineSet
EndChar
StartChar: periodcentered
Encoding: 183 183 116
Width: 236
Flags: MW
LayerCount: 2
Fore
SplineSet
73 175 m 1
 73 264 l 1
 163 264 l 1
 163 175 l 1
 73 175 l 1
EndSplineSet
EndChar
StartChar: cedilla
Encoding: 184 184 128
Width: 444
Flags: MW
LayerCount: 2
Fore
SplineSet
117 -192 m 1
 191 -23 l 1
 252 -23 l 1
 187 -192 l 1
 117 -192 l 1
EndSplineSet
EndChar
StartChar: one.superior
Encoding: 185 185 134
Width: 444
Flags: MW
LayerCount: 2
Fore
SplineSet
69 639 m 1
 69 697 l 1
 180 698 228 746 253 772 c 1
 272 772 l 1
 272 420 l 1
 374 420 l 1
 374 361 l 1
 83 361 l 1
 83 420 l 1
 192 420 l 1
 192 665 l 1
 181 660 143 639 69 639 c 1
EndSplineSet
EndChar
StartChar: ordmasculine
Encoding: 186 186 114
Width: 444
Flags: MW
LayerCount: 2
Fore
SplineSet
30 561 m 0
 30 664 108 766 222 766 c 0
 334 766 414 666 414 561 c 0
 414 456 332 364 222 364 c 0
 216 364 209 364 203 365 c 0
 110 375 30 453 30 561 c 0
111 543 m 0
 114 516 122 493 134 475 c 0
 154 445 185 428 223 428 c 0
 247 428 278 437 301 463 c 0
 321 485 335 519 335 570 c 0
 335 614 322 648 301 671 c 0
 281 693 253 705 222 705 c 0
 195 705 162 695 139 667 c 0
 121 646 109 615 109 570 c 0
 109 561 110 552 111 543 c 0
EndSplineSet
EndChar
StartChar: onequarter
Encoding: 188 188 135
Width: 444
Flags: MW
LayerCount: 2
Fore
SplineSet
8 280 m 1
 10 286 13 290 16 293 c 0
 22 298 29 298 35 298 c 2
 48 298 l 1
 404 298 l 2
 413 298 420 298 425 295 c 0
 429 293 432 289 434 283 c 1
 434 281 434 280 434 278 c 0
 434 272 433 267 428 263 c 0
 424 260 417 258 407 258 c 2
 36 258 l 2
 25 258 18 260 14 263 c 0
 7 268 9 277 8 280 c 1
27 -47 m 1
 220 218 l 1
 317 218 l 1xf9
 317 -47 l 1xf9
 416 -47 l 1
 416 -109 l 1
 317 -109 l 1
 317 -195 l 1
 237 -195 l 1
 237 -109 l 1xfa
 27 -109 l 1
 27 -47 l 1
69 672 m 1
 69 731 l 1
 123 731 191 733 252 772 c 1
 272 772 l 1
 272 396 l 1
 374 396 l 1
 374 338 l 1
 82 338 l 1
 82 396 l 1
 192 396 l 1
 192 686 l 1xfc
 156 676 124 673 69 672 c 1
110 -47 m 1
 242 -47 l 1xf9
 242 164 l 1
 237 130 110 -47 110 -47 c 1
EndSplineSet
EndChar
StartChar: onehalf
Encoding: 189 189 138
Width: 444
Flags: MW
LayerCount: 2
Fore
SplineSet
8 280 m 1
 10 286 13 290 16 293 c 0
 22 298 29 298 35 298 c 2
 48 298 l 1
 404 298 l 2
 413 298 420 298 425 295 c 0
 429 293 432 289 434 283 c 1
 434 281 434 280 434 278 c 0
 434 272 433 267 428 263 c 0
 424 260 417 258 407 258 c 2
 36 258 l 2
 25 258 18 260 14 263 c 0
 7 268 9 277 8 280 c 1
69 672 m 1
 69 731 l 1
 123 731 191 733 252 772 c 1
 272 772 l 1
 272 396 l 1
 374 396 l 1
 374 338 l 1
 82 338 l 1
 82 396 l 1
 192 396 l 1
 192 686 l 1xfc
 156 676 124 673 69 672 c 1
41 155 m 1
 87 215 134 241 207 241 c 0
 317 241 393 175 393 84 c 0
 393 0 303 -16 232 -53 c 0
 220 -58 209 -66 116 -121 c 1
 265 -121 l 1
 290 -120 l 1
 393 -120 l 1
 393 -195 l 1
 49 -195 l 1
 49 -121 l 1
 138 -65 150 -57 161 -51 c 0
 222 -18 310 6 310 82 c 0
 310 136 262 173 194 173 c 0
 122 173 98 129 80 93 c 1
 41 155 l 1
EndSplineSet
EndChar
StartChar: threequarters
Encoding: 190 190 130
Width: 444
Flags: MW
LayerCount: 2
Fore
SplineSet
27 -47 m 1
 220 218 l 1
 317 218 l 1xf9
 317 -47 l 1xf9
 416 -47 l 1
 416 -109 l 1
 317 -109 l 1
 317 -195 l 1
 237 -195 l 1
 237 -109 l 1xfa
 27 -109 l 1
 27 -47 l 1
41 345 m 1
 50 412 l 1
 82 402 116 391 155 386 c 0
 174 383 194 382 216 382 c 0xe8
 255 382 279 392 293 406 c 0
 308 420 312 437 312 449 c 0xe8
 312 473 295 491 281 500 c 0
 259 514 233 515 207 515 c 2
 166 515 l 1
 166 583 l 1
 207 587 243 586 272 614 c 0
 283 626 291 641 291 658 c 0
 291 677 277 708 219 708 c 0
 160 708 121 681 88 652 c 1
 55 712 l 1
 100 748 154 772 219 772 c 0
 305 772 374 722 374 658 c 0xf0
 374 582 305 551 303 548 c 1
 337 537 401 506 401 448 c 0
 401 414 380 374 337 347 c 0
 308 328 268 315 218 315 c 0
 198 315 178 317 157 319 c 0
 122 323 84 331 41 345 c 1
110 -47 m 1
 242 -47 l 1xf9
 242 164 l 1
 237 130 110 -47 110 -47 c 1
8 280 m 1
 10 286 13 290 16 293 c 0
 22 298 29 298 35 298 c 2
 48 298 l 1
 404 298 l 2
 413 298 420 298 425 295 c 0
 429 293 432 289 434 283 c 1
 434 281 434 280 434 278 c 0
 434 272 433 267 428 263 c 0
 424 260 417 258 407 258 c 2
 36 258 l 2
 25 258 18 260 14 263 c 0
 7 268 9 277 8 280 c 1
EndSplineSet
EndChar
StartChar: questiondown
Encoding: 191 191 107
Width: 472
Flags: MW
LayerCount: 2
Fore
SplineSet
55 -43 m 0
 55 43 93 70 115 95 c 0
 140 125 158 156 169 188 c 0
 183 228 188 268 188 310 c 2
 188 353 l 1
 255 353 l 1
 255 323 l 2
 255 252 245 198 230 156 c 0
 203 78 161 42 148 19 c 0
 135 -3 133 -27 133 -47 c 0
 133 -81 141 -105 155 -120 c 4
 171 -137 194 -144 223 -144 c 0
 308 -144 366 -105 393 -86 c 1
 416 -150 l 1
 370 -178 305 -205 223 -205 c 0xe8
 205 -205 189 -203 174 -200 c 0
 133 -192 104 -172 86 -148 c 0
 63 -117 55 -78 55 -43 c 0
EndSplineSet
Refer: 14 46 N 1 0 0 1 84 444 2
EndChar
StartChar: Agrave
Encoding: 192 192 131
Width: 667
Flags: MW
LayerCount: 2
Fore
SplineSet
190 850 m 1
 301 850 l 25
 458 760 l 1
 380 760 l 25
 370 761 l 1
 359 765 l 1
 190 850 l 1
EndSplineSet
Refer: 33 65 N 1 0 0 1 0 0 3
EndChar
StartChar: Acircumflex
Encoding: 194 194 137
Width: 667
Flags: MW
LayerCount: 2
Fore
SplineSet
170 727 m 1
 294 900 l 1
 370 900 l 1
 481 727 l 1
 419 727 l 1
 325 849 l 1
 232 727 l 1
 170 727 l 1
EndSplineSet
Refer: 33 65 N 1 0 0 1 0 0 2
EndChar
StartChar: Atilde
Encoding: 195 195 134
Width: 667
Flags: MW
LayerCount: 2
Fore
SplineSet
166 727 m 1
 167 823 204 889 262 889 c 0
 330 889 335 790 399 790 c 0
 403 790 407 790 412 791 c 1
 420 797 427 801 432 822 c 0
 435 836 437 856 437 889 c 1
 499 889 l 1
 499 877 498 866 497 856 c 0
 487 757 438 727 402 727 c 0
 337 727 324 827 265 827 c 0
 233 827 228 786 227 738 c 0
 227 734 227 731 227 727 c 1
 166 727 l 1
EndSplineSet
Refer: 33 65 N 1 0 0 1 0 0 2
EndChar
StartChar: Adieresis
Encoding: 196 196 142
Width: 667
Flags: MW
LayerCount: 2
Fore
SplineSet
190 760 m 1
 190 849 l 1
 280 849 l 1
 280 760 l 1
 190 760 l 1
385 760 m 1
 385 849 l 1
 475 849 l 1
 475 760 l 1
 385 760 l 1
EndSplineSet
Refer: 33 65 N 1 0 0 1 0 0 2
EndChar
StartChar: Aring
Encoding: 197 197 145
Width: 667
Flags: MW
LayerCount: 2
Fore
SplineSet
212 777 m 0
 212 842 266 888 323 888 c 0
 387 888 434 836 434 777 c 0
 434 720 389 666 323 666 c 0
 258 666 212 719 212 777 c 0
268 777 m 0
 268 764 272 749 283 739 c 0
 291 732 302 728 319 727 c 0
 320 727 322 727 323 727 c 0
 344 727 358 733 366 742 c 0
 375 752 378 765 378 777 c 0
 378 789 375 803 365 813 c 0
 357 821 344 827 324 827 c 0xdf
 323 827 321 827 320 827 c 0
 299 826 286 819 278 809 c 0
 271 800 268 788 268 777 c 0
EndSplineSet
Refer: 33 65 N 1 0 0 1 0 0 2
EndChar
StartChar: AE
Encoding: 198 198 129
Width: 861
Flags: MW
LayerCount: 2
Fore
SplineSet
27 -0 m 1
 311 694 l 1
 804 694 l 1
 804 628 l 1
 757 628 l 1
 734 629 l 1
 529 629 l 1
 507 630 l 1
 507 392 l 1
 777 392 l 1
 777 330 l 1
 507 330 l 1
 507 70 l 1
 572 70 l 1
 596 71 l 1
 758 71 l 1
 779 72 l 1
 818 72 l 1
 818 -0 l 1
 418 -0 l 1
 418 222 l 1
 193 222 l 1
 102 -0 l 1
 27 -0 l 1
217 278 m 1
 418 278 l 1
 418 630 l 1
 360 630 l 1
 217 278 l 1
EndSplineSet
EndChar
StartChar: Egrave
Encoding: 200 200 160
Width: 597
Flags: MW
LayerCount: 2
Fore
SplineSet
142 850 m 1
 253 850 l 25
 410 760 l 1
 332 760 l 25
 322 761 l 1
 311 765 l 1
 142 850 l 1
EndSplineSet
Refer: 37 69 N 1 0 0 1 0 0 2
EndChar
StartChar: Eacute
Encoding: 201 201 144
Width: 597
Flags: MW
LayerCount: 2
Fore
SplineSet
200 760 m 1
 357 850 l 25
 467 850 l 1
 309 771 l 1
 287 761 l 1
 272 760 l 1
 224 760 l 1
 200 760 l 1
EndSplineSet
Refer: 37 69 N 1 0 0 1 0 0 2
EndChar
StartChar: Ecircumflex
Encoding: 202 202 145
Width: 597
Flags: MW
LayerCount: 2
Fore
SplineSet
170 727 m 1
 295 900 l 1
 356 900 l 1
 481 727 l 1
 420 727 l 1
 325 849 l 1xf4
 231 727 l 1
 170 727 l 1
EndSplineSet
Refer: 37 69 N 1 0 0 1 0 0 2
EndChar
StartChar: Edieresis
Encoding: 203 203 150
Width: 597
Flags: MW
LayerCount: 2
Fore
SplineSet
180 760 m 1
 180 849 l 1
 270 849 l 1
 270 760 l 1
 180 760 l 1
374 760 m 1
 374 849 l 1
 464 849 l 1
 464 760 l 1
 374 760 l 1
EndSplineSet
Refer: 37 69 N 1 0 0 1 0 0 2
EndChar
StartChar: Igrave
Encoding: 204 204 147
Width: 278
Flags: MW
LayerCount: 2
Fore
SplineSet
-16 850 m 1
 95 850 l 25
 252 760 l 1
 174 760 l 25
 164 761 l 1
 153 765 l 1
 -16 850 l 1
EndSplineSet
Refer: 41 73 N 1 0 0 1 1 0 2
EndChar
StartChar: Icircumflex
Encoding: 206 206 166
Width: 278
Flags: MW
LayerCount: 2
Fore
SplineSet
-16 727 m 1
 109 900 l 1
 170 900 l 1
 295 727 l 1
 234 727 l 1
 139 849 l 1xf0
 46 727 l 1
 -16 727 l 1
EndSplineSet
Refer: 41 73 S 1 0 0 1 1 0 2
EndChar
StartChar: Eth
Encoding: 208 208 153
Width: 722
Flags: MW
LayerCount: 2
Fore
SplineSet
0 311 m 1
 0 370 l 1
 95 370 l 1
 95 694 l 1
 341 694 l 2
 404 694 454 686 513 647 c 0
 611 582 666 462 666 342 c 0
 666 166 548 20 391 2 c 0
 375 0 359 0 343 0 c 2
 95 0 l 1
 95 311 l 1
 0 311 l 1
182 56 m 1
 325 56 l 2
 357 56 451 56 520 148 c 0
 562 203 579 272 579 341 c 0
 579 402 567 451 550 489 c 0
 525 546 489 579 466 596 c 0
 419 630 376 638 325 638 c 2
 182 638 l 1
 182 370 l 1
 361 370 l 1
 361 311 l 1
 182 311 l 1
 182 56 l 1
EndSplineSet
EndChar
StartChar: Ntilde
Encoding: 209 209 147
Width: 708
Flags: MW
LayerCount: 2
Fore
SplineSet
186 727 m 1
 187 823 224 889 282 889 c 0
 350 889 355 790 419 790 c 0
 423 790 427 790 432 791 c 1
 440 797 447 801 452 822 c 0
 455 836 457 856 457 889 c 1
 519 889 l 1
 519 877 518 866 517 856 c 0
 507 757 458 727 422 727 c 0
 357 727 344 827 285 827 c 0
 253 827 248 786 247 738 c 0
 247 734 247 731 247 727 c 1
 186 727 l 1
EndSplineSet
Refer: 46 78 N 1 0 0 1 0 0 2
EndChar
StartChar: Ograve
Encoding: 210 210 153
Width: 736
Flags: MW
LayerCount: 2
Fore
SplineSet
225 851 m 1
 336 851 l 25
 493 761 l 1
 415 761 l 25
 405 762 l 1
 394 766 l 1
 225 851 l 1
EndSplineSet
Refer: 47 79 N 1 0 0 1 0 0 2
EndChar
StartChar: Ocircumflex
Encoding: 212 212 155
Width: 736
Flags: MW
LayerCount: 2
Fore
SplineSet
212 727 m 1
 336 900 l 1
 398 900 l 1
 523 727 l 1
 462 727 l 1
 367 849 l 1
 273 727 l 1
 212 727 l 1
EndSplineSet
Refer: 47 79 S 1 0 0 1 0 0 2
EndChar
StartChar: Otilde
Encoding: 213 213 160
Width: 736
Flags: MW
LayerCount: 2
Fore
SplineSet
198 774 m 1
 200 848 248 889 296 889 c 0xde
 348 889 385 836 430 836 c 0xee
 436 836 442 837 447 840 c 0
 461 847 469 865 470 889 c 1
 531 889 l 1xde
 528 815 481 775 433 775 c 0xee
 381 775 344 828 300 828 c 0xde
 294 828 290 827 285 825 c 0
 270 818 261 800 259 774 c 1
 198 774 l 1
EndSplineSet
Refer: 47 79 N 1 0 0 1 0 0 2
EndChar
StartChar: Odieresis
Encoding: 214 214 156
Width: 736
Flags: MW
LayerCount: 2
Fore
SplineSet
225 760 m 1
 225 849 l 1
 315 849 l 1
 315 760 l 1
 225 760 l 1
420 760 m 1
 420 849 l 1
 510 849 l 1
 510 760 l 1
 420 760 l 1
EndSplineSet
Refer: 47 79 N 1 0 0 1 0 0 2
EndChar
StartChar: Oslash
Encoding: 216 216 132
Width: 778
Flags: MW
LayerCount: 2
Fore
SplineSet
55 345 m 0
 55 462 105 568 183 637 c 0
 239 686 310 716 388 716 c 0
 449 716 497 699 541 675 c 1
 589 759 l 1
 590 759 l 1
 645 727 l 1
 593 637 l 1
 625 610 654 574 676 531 c 4
 704 478 721 414 721 345 c 0
 721 249 687 159 630 93 c 0
 570 23 485 -22 388 -22 c 0
 327 -22 279 -5 235 19 c 1
 187 -65 l 1
 132 -33 l 1
 183 56 l 1
 96 130 55 240 55 345 c 0
143 301 m 1
 150 234 173 168 218 117 c 1
 508 619 l 1
 472 641 436 655 388 655 c 0
 331 655 274 632 229 587 c 0
 177 535 141 453 141 344 c 0
 141 330 142 315 143 301 c 1
268 75 m 1
 306 54 335 39 389 39 c 0
 455 39 531 73 581 147 c 0
 614 196 635 261 635 346 c 0
 635 408 623 457 608 493 c 0
 590 537 568 564 558 576 c 1
 557 576 l 1
 268 75 l 1
EndSplineSet
EndChar
StartChar: Ugrave
Encoding: 217 217 163
Width: 687
Flags: MW
LayerCount: 2
Fore
SplineSet
201 851 m 1
 312 851 l 25
 469 761 l 1
 391 761 l 25
 381 762 l 1
 370 766 l 1
 201 851 l 1
EndSplineSet
Refer: 53 85 N 1 0 0 1 0 0 2
EndChar
StartChar: Uacute
Encoding: 218 218 159
Width: 687
Flags: MW
LayerCount: 2
Fore
SplineSet
259 760 m 1
 416 850 l 25
 526 850 l 1
 368 771 l 1
 346 761 l 1
 331 760 l 1
 283 760 l 1
 259 760 l 1
EndSplineSet
Refer: 53 85 N 1 0 0 1 0 0 2
EndChar
StartChar: Ucircumflex
Encoding: 219 219 161
Width: 687
Flags: MW
LayerCount: 2
Fore
SplineSet
190 727 m 1
 315 900 l 1
 372 900 l 1
 502 727 l 1
 440 727 l 1
 346 849 l 1
 252 727 l 1
 190 727 l 1
EndSplineSet
Refer: 53 85 S 1 0 0 1 0 0 2
EndChar
StartChar: Yacute
Encoding: 221 221 180
Width: 667
Flags: MW
LayerCount: 2
Fore
SplineSet
248 760 m 1
 405 850 l 25
 515 850 l 1
 357 771 l 1
 335 761 l 1
 320 760 l 1
 272 760 l 1
 248 760 l 1
EndSplineSet
Refer: 57 89 N 1 0 0 1 0 0 2
EndChar
StartChar: Thorn
Encoding: 222 222 168
Width: 583
Flags: MW
LayerCount: 2
Fore
SplineSet
96 0 m 1
 96 694 l 1
 180 694 l 1
 180 567 l 1
 302 567 l 2
 371 567 421 547 456 519 c 0
 506 478 526 419 526 374 c 0
 526 328 507 276 466 237 c 4
 431 203 379 180 308 180 c 2
 180 180 l 1
 180 0 l 1
 96 0 l 1
180 236 m 1
 282 236 l 2
 338 236 378 255 404 280 c 0
 433 308 445 344 445 373 c 0
 445 406 429 450 386 479 c 0
 358 498 317 511 262 511 c 2
 181 511 l 1
 180 473 l 1
 180 236 l 1
EndSplineSet
EndChar
StartChar: germandbls
Encoding: 223 223 122
Width: 480
Flags: MW
LayerCount: 2
Fore
SplineSet
81 0 m 1
 81 564 l 2
 81 699 168 733 251 733 c 0
 332 733 424 700 424 569 c 0xfc
 424 525 416 413 317 402 c 0
 293 399 283 391 283 335 c 0
 283 258 299 283 358 263 c 0
 393 250 446 208 446 127 c 0
 446 45 401 -11 319 -11 c 0
 274 -11 241 6 212 34 c 1
 224 102 l 1
 229 96 260 52 317 52 c 0
 364 52 375 93 375 120 c 0xfa
 375 133 372 170 339 186 c 0
 314 198 286 191 254 220 c 0
 223 249 212 290 212 331 c 0
 212 399 240 452 303 460 c 0
 319 462 330 459 338 482 c 0
 345 505 346 535 346 564 c 0xfc
 346 625 329 672 253 672 c 0
 154 672 156 593 156 561 c 2
 156 0 l 1
 81 0 l 1
EndSplineSet
EndChar
StartChar: acircumflex
Encoding: 226 226 171
Width: 480
Flags: MW
LayerCount: 2
Fore
SplineSet
83 509 m 1
 208 650 l 1
 292 650 l 1
 394 509 l 1
 333 509 l 1
 239 608 l 1xf4
 144 509 l 1
 83 509 l 1
EndSplineSet
Refer: 65 97 S 1 0 0 1 0 0 2
EndChar
StartChar: ae
Encoding: 230 230 117
Width: 722
Flags: MW
LayerCount: 2
Fore
SplineSet
46 114 m 0
 46 157 75 188 122 210 c 0
 173 233 244 245 321 247 c 1xd8
 321 279 l 1
 320 305 l 2
 316 358 283 401 233 401 c 0
 158 401 116 373 82 350 c 1
 76 417 l 1
 128 446 171 461 234 461 c 0
 270 461 298 451 319 438 c 0
 352 418 368 391 374 383 c 1
 375 383 l 17
 411 429 466 461 527 461 c 0
 566 461 617 447 652 395 c 0
 676 358 693 303 693 220 c 1
 399 220 l 1xb8
 401 201 403 117 477 70 c 0
 489 63 510 51 544 51 c 0
 609 51 652 81 682 106 c 1
 688 40 l 1
 648 11 602 -11 543 -11 c 0
 477 -11 422 18 379 66 c 9
 377 66 l 17
 332 10 235 -11 159 -11 c 0
 69 -11 46 75 46 114 c 0
119 115 m 0
 119 89 144 51 211 51 c 0
 259 51 326 66 326 126 c 0
 326 139 323 185 322 191 c 1xd8
 285 191 212 187 164 166 c 0
 138 155 119 138 119 115 c 0
405 275 m 1
 634 275 l 1
 626 323 611 353 594 371 c 4
 569 397 540 399 528 399 c 0xb8
 500 399 469 385 445 358 c 0
 427 338 412 310 405 275 c 1
EndSplineSet
EndChar
StartChar: ecircumflex
Encoding: 234 234 172
Width: 444
Flags: MW
LayerCount: 2
Fore
SplineSet
66 509 m 1
 190 650 l 1
 253 650 l 1
 377 509 l 1
 316 509 l 1
 221 608 l 1xf4
 127 509 l 1
 66 509 l 1
EndSplineSet
Refer: 69 101 S 1 0 0 1 0 0 2
EndChar
StartChar: igrave
Encoding: 236 236 193
Width: 239
Flags: MW
LayerCount: 2
Fore
SplineSet
-33 640 m 1
 45 640 l 1
 178 510 l 1
 117 510 l 1
 -33 640 l 1
EndSplineSet
Refer: 95 305 N 1 0 0 1 1 0 2
EndChar
StartChar: iacute
Encoding: 237 237 170
Width: 239
Flags: MW
LayerCount: 2
Fore
SplineSet
32 510 m 1
 165 640 l 1
 243 640 l 1
 94 510 l 1
 32 510 l 1
EndSplineSet
Refer: 95 305 N 1 0 0 1 0 0 2
EndChar
StartChar: eth
Encoding: 240 240 182
Width: 500
Flags: MW
LayerCount: 2
Fore
SplineSet
30 220 m 0
 30 285 55 347 96 392 c 0
 135 434 188 461 249 461 c 0
 290 461 318 450 350 434 c 1
 314 508 282 541 238 584 c 1
 237 584 l 1
 142 529 l 1
 108 590 l 1
 177 630 l 1
 126 658 114 664 69 677 c 1
 122 722 l 1
 146 715 168 706 190 695 c 0
 208 686 225 677 240 666 c 1
 338 722 l 1
 373 662 l 1
 300 620 l 1
 371 558 445 455 464 318 c 0
 467 296 469 273 469 249 c 2
 469 236 l 2
 469 181 462 139 432 91 c 0
 391 27 322 -11 249 -11 c 0
 191 -11 136 14 95 56 c 0
 56 97 30 154 30 220 c 0
108 231 m 0
 108 168 129 117 163 86 c 0
 186 65 216 53 249 53 c 0
 286 53 318 67 342 92 c 0
 372 123 390 171 390 226 c 0
 390 237 389 248 388 258 c 0
 382 307 361 347 329 372 c 0
 307 389 280 399 249 399 c 0
 217 399 181 387 154 360 c 0
 127 333 108 291 108 231 c 0
EndSplineSet
EndChar
StartChar: divide
Encoding: 247 247 180
Width: 778
Flags: MW
LayerCount: 2
Fore
SplineSet
56 251 m 0
 56 268 72 270 85 270 c 2
 684 270 l 2
 693 270 704 270 711 266 c 0
 716 263 720 259 720 250 c 0
 720 242 717 237 712 234 c 0
 705 230 696 230 692 230 c 2
 83 230 l 2
 59 230 56 244 56 251 c 0
326 -6 m 2
 326 61 l 2
 326 80 335 89 353 89 c 2
 418 89 l 2
 448 89 450 77 450 59 c 2
 450 -2 l 2
 450 -19 443 -34 421 -34 c 2
 356 -34 l 2
 329 -34 326 -20 326 -6 c 2
326 439 m 2
 326 506 l 2
 326 525 335 534 353 534 c 2
 418 534 l 2
 435 534 450 533 450 506 c 2
 450 440 l 2
 450 418 442 411 422 411 c 2
 356 411 l 2
 340 411 326 420 326 439 c 2
EndSplineSet
EndChar
StartChar: oslash
Encoding: 248 248 120
Width: 500
Flags: MW
LayerCount: 2
Fore
SplineSet
31 221 m 0
 31 289 58 354 103 399 c 0
 141 437 191 461 249 461 c 0
 281 461 305 454 337 440 c 1
 402 556 l 1
 402 556 l 1
 456 526 l 1
 388 405 l 1
 424 369 467 314 467 221 c 0
 467 156 443 98 403 56 c 0
 364 15 310 -11 249 -11 c 0
 214 -11 187 -2 163 8 c 1
 96 -112 l 1
 42 -82 l 1
 111 41 l 1
 69 77 31 140 31 221 c 0
106 220 m 0
 106 190 110 167 116 150 c 0
 125 123 138 109 144 99 c 1
 306 386 l 1
 290 393 276 399 249 399 c 0
 215 399 179 385 151 355 c 0
 127 329 109 290 106 236 c 0
 106 231 106 225 106 220 c 0
194 62 m 1
 211 55 230 51 249 51 c 0
 288 51 328 67 356 101 c 0
 378 128 392 167 392 219 c 0
 392 224 392 228 392 233 c 0
 391 261 385 283 379 300 c 0
 370 324 360 339 355 346 c 1
 354 346 l 1
 194 62 l 1
EndSplineSet
EndChar
StartChar: thorn
Encoding: 254 254 190
Width: 517
Flags: MW
LayerCount: 2
Fore
SplineSet
81 -195 m 1
 81 722 l 1
 156 722 l 1
 156 396 l 1
 221 448 288 455 322 455 c 0
 416 455 480 344 480 224 c 0
 480 101 405 -11 294 -11 c 0
 235 -11 192 16 159 46 c 1
 159 -195 l 1
 81 -195 l 1
159 126 m 2
 159 102 197 50 256 50 c 0
 292 50 328 67 356 98 c 0
 383 128 401 170 401 222 c 0
 401 231 400 241 399 250 c 0
 394 290 378 326 353 352 c 4
 330 376 300 391 265 391 c 0
 195 391 160 334 159 334 c 1
 159 126 l 2
EndSplineSet
EndChar
StartChar: Amacron
Encoding: 256 256 208
Width: 667
Flags: MW
LayerCount: 2
Fore
SplineSet
28 786 m 0
 28 808 51 806 62 806 c 2
 604 806 l 2
 615 806 637 808 637 786 c 0
 637 778 633 766 609 766 c 2
 62 766 l 2
 49 766 28 766 28 786 c 0
EndSplineSet
Refer: 33 65 N 1 0 0 1 0 0 3
EndChar
StartChar: amacron
Encoding: 257 257 203
Width: 480
Flags: MW
LayerCount: 2
Fore
SplineSet
74 551 m 1
 74 615 l 1
 434 615 l 1
 434 551 l 1
 74 551 l 1
EndSplineSet
Refer: 65 97 N 1 0 0 1 0 0 3
EndChar
StartChar: Abreve
Encoding: 258 258 458
Width: 667
Flags: MW
LayerCount: 2
Fore
SplineSet
156 889 m 1
 217 889 l 1
 221 822 278 794 325 794 c 0
 379 794 430 828 433 889 c 1
 495 889 l 1
 492 789 411 727 325 727 c 0
 237 727 158 790 156 889 c 1
EndSplineSet
Refer: 33 65 S 1 0 0 1 0 0 2
EndChar
StartChar: Aogonek
Encoding: 260 260 251
Width: 667
Flags: MW
LayerCount: 2
Fore
SplineSet
609 0 m 1
 604 -3 519 -49 519 -107 c 0
 519 -113 520 -117 522 -122 c 0
 523 -125 525 -128 527 -130 c 0
 536 -141 551 -147 570 -147 c 0
 596 -147 622 -137 637 -133 c 1
 653 -192 l 1
 599 -217 565 -217 556 -217 c 0
 498 -217 459 -181 459 -128 c 0
 459 -77 497 -29 544 0 c 1
 609 0 l 1
EndSplineSet
Refer: 33 65 N 1 0 0 1 0 0 2
EndChar
StartChar: aogonek
Encoding: 261 261 328
Width: 480
Flags: MW
LayerCount: 2
Fore
SplineSet
389 0 m 1
 384 -3 299 -49 299 -107 c 0
 299 -113 300 -117 302 -122 c 0
 303 -125 305 -128 307 -130 c 0
 316 -141 331 -147 350 -147 c 0
 376 -147 402 -137 417 -133 c 1
 433 -192 l 1
 379 -217 345 -217 336 -217 c 0
 278 -217 239 -181 239 -128 c 0
 239 -77 277 -29 324 0 c 1
 389 0 l 1
EndSplineSet
Refer: 65 97 N 1 0 0 1 0 0 2
EndChar
StartChar: Ccaron
Encoding: 268 268 479
Width: 639
Flags: MW
LayerCount: 2
Fore
SplineSet
210 889 m 1
 271 889 l 1
 368 778 l 1
 465 889 l 1
 526 889 l 1
 404 727 l 1
 332 727 l 1
 210 889 l 1
EndSplineSet
Refer: 35 67 N 1 0 0 1 0 0 2
EndChar
StartChar: Dcaron
Encoding: 270 270 463
Width: 722
Flags: MW
LayerCount: 2
Fore
SplineSet
207 889 m 1
 268 889 l 1
 365 778 l 1
 462 889 l 1
 524 889 l 1xec
 401 727 l 1
 330 727 l 1
 207 889 l 1
EndSplineSet
Refer: 36 68 N 1 0 0 1 0 0 2
EndChar
StartChar: dcaron
Encoding: 271 271 260
Width: 633
Flags: MW
LayerCount: 2
Fore
SplineSet
489 597 m 1
 515 680 l 1
 489 680 l 1
 489 764 l 1
 573 764 l 1
 573 695 l 2
 573 689 572 684 571 680 c 0
 567 667 531 597 531 597 c 1
 489 597 l 1
EndSplineSet
Refer: 68 100 N 1 0 0 1 0 0 2
EndChar
StartChar: dcroat
Encoding: 273 273 449
Width: 517
Flags: MW
LayerCount: 2
Fore
SplineSet
35 221 m 0
 35 301 64 370 108 412 c 0
 137 440 173 456 213 456 c 0
 275 456 323 429 358 401 c 1
 358 551 l 1
 167 551 l 1
 167 610 l 1
 358 610 l 1
 358 722 l 1
 434 722 l 1
 434 610 l 1
 535 610 l 1
 535 551 l 1
 434 551 l 1xfa
 434 0 l 1
 355 0 l 1
 355 52 l 1
 321 20 273 -11 207 -11 c 0
 161 -11 119 13 89 51 c 0
 55 94 35 155 35 221 c 0
113 214 m 0
 115 153 134 112 160 87 c 0
 187 61 221 51 248 51 c 0xfc
 307 51 355 101 355 134 c 2
 355 325 l 2
 355 341 353 347 334 364 c 0
 304 393 271 394 260 394 c 2
 258 394 l 2
 231 394 197 385 169 362 c 0
 139 337 116 297 113 234 c 0
 113 230 113 226 113 222 c 0
 113 219 113 217 113 214 c 0
EndSplineSet
EndChar
StartChar: Emacron
Encoding: 274 274 262
Width: 597
Flags: MW
LayerCount: 2
Fore
SplineSet
20 786 m 0
 20 808 43 806 54 806 c 2
 596 806 l 2
 607 806 629 808 629 786 c 0
 629 778 625 766 601 766 c 2
 54 766 l 2
 41 766 20 766 20 786 c 0
EndSplineSet
Refer: 37 69 N 1 0 0 1 0 0 3
EndChar
StartChar: emacron
Encoding: 275 275 322
Width: 444
Flags: MW
LayerCount: 2
Fore
SplineSet
54 551 m 1
 54 615 l 1
 414 615 l 1
 414 551 l 1
 54 551 l 1
EndSplineSet
Refer: 69 101 N 1 0 0 1 0 0 3
EndChar
StartChar: eogonek
Encoding: 281 281 475
Width: 444
Flags: MW
LayerCount: 2
Fore
SplineSet
34 226 m 0
 34 296 61 361 105 405 c 0
 140 440 185 461 236 461 c 0
 276 461 326 449 363 403 c 0
 393 367 414 309 414 220 c 1
 104 220 l 1
 106 173 121 132 146 102 c 0
 173 70 210 50 252 50 c 0
 332 50 387 93 404 106 c 1
 410 40 l 1
 374 18 347 4 323 -11 c 0
 304 -23 288 -36 273 -56 c 0
 267 -64 253 -86 253 -106 c 0
 253 -120 258 -129 267 -136 c 0
 276 -143 290 -147 304 -147 c 0
 332 -147 374 -133 374 -133 c 1
 389 -192 l 1
 336 -217 302 -217 292 -217 c 0
 264 -217 241 -208 224 -194 c 4
 206 -178 195 -156 195 -128 c 0
 195 -78 228 -39 264 -10 c 1
 260 -11 255 -11 250 -11 c 0
 193 -11 141 13 102 52 c 0
 60 95 34 156 34 226 c 0
109 275 m 1
 357 275 l 1
 351 314 338 342 322 360 c 0
 293 394 255 399 236 399 c 0
 198 399 169 381 148 356 c 0
 127 331 114 300 109 275 c 1
EndSplineSet
EndChar
StartChar: Ecaron
Encoding: 282 282 353
Width: 597
Flags: MW
LayerCount: 2
Fore
SplineSet
185 889 m 5
 246 889 l 5
 344 778 l 5
 440 889 l 5
 502 889 l 5xf4
 379 727 l 5
 308 727 l 5
 185 889 l 5
EndSplineSet
Refer: 37 69 N 1 0 0 1 0 0 2
EndChar
StartChar: Gbreve
Encoding: 286 286 319
Width: 667
Flags: MW
LayerCount: 2
Fore
SplineSet
199 889 m 1
 260 889 l 1
 264 822 322 794 368 794 c 0xfe
 422 794 473 828 476 889 c 1
 538 889 l 1
 535 789 454 727 368 727 c 0
 280 727 201 790 199 889 c 1
EndSplineSet
Refer: 39 71 N 1 0 0 1 0 0 2
EndChar
StartChar: Gcommaaccent
Encoding: 290 290 394
Width: 667
Flags: MW
LayerCount: 2
Fore
SplineSet
354 -48 m 1
 412 -48 l 1
 412 -97 l 2
 407 -134 392 -161 383 -194 c 1
 354 -194 l 1
 372 -107 l 1
 354 -107 l 1
 354 -48 l 1
EndSplineSet
Refer: 39 71 N 1 0 0 1 0 0 2
EndChar
StartChar: Hbar
Encoding: 294 294 381
Width: 708
Flags: MW
LayerCount: 2
Fore
SplineSet
28 587 m 0
 28 613 51 611 62 611 c 2
 94 611 l 1
 94 694 l 1
 184 694 l 1
 184 611 l 1
 524 611 l 1
 524 694 l 1
 614 694 l 1
 614 611 l 1
 655 611 l 2
 666 611 688 613 688 587 c 0
 688 577 684 563 660 563 c 2
 614 563 l 1
 614 0 l 1
 524 0 l 1
 524 330 l 1
 184 330 l 1
 184 0 l 1
 94 0 l 1
 94 563 l 1
 62 563 l 2
 49 563 28 563 28 587 c 0
524 563 m 1
 184 563 l 1
 184 392 l 1
 524 392 l 1
 524 563 l 1
EndSplineSet
EndChar
StartChar: hbar
Encoding: 295 295 320
Width: 564
Flags: MW
LayerCount: 2
Fore
SplineSet
16 511 m 1
 16 570 l 1
 127 570 l 1
 127 695 l 1
 202 695 l 1
 202 570 l 1
 344 570 l 1
 344 511 l 1
 202 511 l 1
 202 384 l 1
 217 402 234 417 252 429 c 0
 278 446 308 455 346 455 c 0
 399 455 431 438 451 414 c 0
 475 384 482 344 483 312 c 0
 483 303 483 295 483 288 c 2
 483 0 l 1
 405 0 l 1
 405 281 l 2
 405 313 403 349 378 372 c 4
 363 385 341 394 307 394 c 0
 278 394 256 382 240 364 c 0
 214 334 205 286 205 240 c 2
 205 0 l 1
 127 0 l 1
 127 511 l 1
 16 511 l 1
EndSplineSet
EndChar
StartChar: Itilde
Encoding: 296 296 267
Width: 278
Flags: MW
LayerCount: 2
Fore
SplineSet
-27 805 m 1
 -25 879 23 920 71 920 c 0xde
 123 920 160 867 205 867 c 0xee
 211 867 217 868 222 871 c 0
 236 878 244 896 245 920 c 1
 306 920 l 1xde
 303 846 256 806 208 806 c 0xee
 156 806 119 859 75 859 c 0xde
 69 859 65 858 60 856 c 0
 45 849 36 831 34 805 c 1
 -27 805 l 1
EndSplineSet
Refer: 41 73 N 1 0 0 1 1 0 2
EndChar
StartChar: imacron
Encoding: 299 299 342
Width: 239
Flags: MW
LayerCount: 2
Fore
SplineSet
-1 551 m 1
 -1 615 l 1
 239 615 l 1
 239 551 l 1
 -1 551 l 1
EndSplineSet
Refer: 95 305 N 1 0 0 1 0 0 2
EndChar
StartChar: Iogonek
Encoding: 302 302 314
Width: 278
Flags: MW
LayerCount: 2
Fore
SplineSet
184 0 m 1
 179 -3 94 -49 94 -107 c 0
 94 -113 95 -117 97 -122 c 0
 98 -125 100 -128 102 -130 c 0
 111 -141 126 -147 145 -147 c 0
 171 -147 197 -137 212 -133 c 1
 228 -192 l 1
 174 -217 140 -217 131 -217 c 0
 73 -217 34 -181 34 -128 c 0
 34 -77 72 -29 119 0 c 1
 184 0 l 1
EndSplineSet
Refer: 41 73 N 1 0 0 1 0 0 2
EndChar
StartChar: iogonek
Encoding: 303 303 554
Width: 239
Flags: MW
LayerCount: 2
Fore
SplineSet
156 0 m 1
 151 -3 66 -49 66 -107 c 0
 66 -113 67 -117 69 -122 c 0
 70 -125 72 -128 74 -130 c 0
 83 -141 98 -147 117 -147 c 0
 143 -147 169 -137 184 -133 c 1
 200 -192 l 1
 146 -217 112 -217 103 -217 c 0
 45 -217 6 -181 6 -128 c 0
 6 -77 44 -29 91 0 c 1
 156 0 l 1
EndSplineSet
Refer: 73 105 N 1 0 0 1 0 0 2
EndChar
StartChar: dotlessi
Encoding: 305 305 95
Width: 239
Flags: MW
LayerCount: 2
Fore
SplineSet
81 0 m 1
 81 445 l 1
 156 445 l 1
 156 0 l 1
 81 0 l 1
EndSplineSet
EndChar
StartChar: Kcommaaccent
Encoding: 310 310 327
Width: 694
Flags: MW
LayerCount: 2
Fore
SplineSet
296 -48 m 1
 354 -48 l 1
 354 -97 l 2
 349 -134 334 -161 325 -194 c 1
 296 -194 l 1
 314 -107 l 1
 296 -107 l 1
 296 -48 l 1
EndSplineSet
Refer: 43 75 N 1 0 0 1 0 0 2
EndChar
StartChar: kcommaaccent
Encoding: 311 311 535
Width: 489
Flags: MW
LayerCount: 2
Fore
SplineSet
216 -48 m 1
 274 -48 l 1
 274 -97 l 2
 269 -134 254 -161 245 -194 c 1
 216 -194 l 1
 234 -107 l 1
 216 -107 l 1
 216 -48 l 1
EndSplineSet
Refer: 75 107 N 1 0 0 1 0 0 2
EndChar
StartChar: lacute
Encoding: 314 314 472
Width: 239
Flags: MW
LayerCount: 2
Fore
SplineSet
34 760 m 5
 191 850 l 29
 301 850 l 5
 143 771 l 5
 121 761 l 5
 106 760 l 5
 58 760 l 5
 34 760 l 5
EndSplineSet
Refer: 76 108 N 1 0 0 1 0 0 2
EndChar
StartChar: Lcommaaccent
Encoding: 315 315 329
Width: 542
Flags: MW
LayerCount: 2
Fore
SplineSet
256 -48 m 1
 314 -48 l 1
 314 -97 l 2
 309 -134 294 -161 285 -194 c 1
 256 -194 l 1
 274 -107 l 1
 256 -107 l 1
 256 -48 l 1
EndSplineSet
Refer: 44 76 N 1 0 0 1 0 0 2
EndChar
StartChar: lcommaaccent
Encoding: 316 316 347
Width: 239
Flags: MW
LayerCount: 2
Fore
SplineSet
90 -48 m 1
 148 -48 l 1
 148 -97 l 2
 143 -134 128 -161 119 -194 c 1
 90 -194 l 1
 108 -107 l 1
 90 -107 l 1
 90 -48 l 1
EndSplineSet
Refer: 76 108 N 1 0 0 1 0 0 2
EndChar
StartChar: Lcaron
Encoding: 317 317 441
Width: 542
Flags: MW
LayerCount: 2
Fore
SplineSet
334 611 m 1
 360 694 l 1
 334 694 l 1
 334 778 l 1
 418 778 l 1
 418 709 l 2
 418 703 417 698 416 694 c 0
 412 681 376 611 376 611 c 1
 334 611 l 1
EndSplineSet
Refer: 44 76 N 1 0 0 1 0 0 2
EndChar
StartChar: lcaron
Encoding: 318 318 261
Width: 355
Flags: MW
LayerCount: 2
Fore
SplineSet
212 597 m 1
 238 680 l 1
 212 680 l 1
 212 764 l 1
 296 764 l 1
 296 695 l 2
 296 689 295 684 294 680 c 0
 290 667 254 597 254 597 c 1
 212 597 l 1
EndSplineSet
Refer: 76 108 N 1 0 0 1 0 0 2
EndChar
StartChar: Lslash
Encoding: 321 321 131
Width: 625
Flags: MW
LayerCount: 2
Fore
SplineSet
77 278 m 1
 177 363 l 1
 177 694 l 1
 267 694 l 1
 267 440 l 1
 393 547 l 1
 433 500 l 1
 267 359 l 1
 267 65 l 1
 462 65 l 1
 582 66 l 1
 582 -0 l 1
 177 -0 l 1
 177 282 l 1
 117 231 l 1
 77 278 l 1
EndSplineSet
EndChar
StartChar: lslash
Encoding: 322 322 136
Width: 324
Flags: MW
LayerCount: 2
Fore
SplineSet
27 286 m 1
 122 367 l 1
 122 722 l 1
 198 722 l 1
 198 431 l 1
 269 492 l 1
 307 447 l 1
 198 355 l 1
 198 -0 l 1
 122 -0 l 1
 122 290 l 1
 65 241 l 1
 27 286 l 1
EndSplineSet
EndChar
StartChar: Nacute
Encoding: 323 323 482
Width: 708
Flags: MW
LayerCount: 2
Fore
SplineSet
231 760 m 1
 388 850 l 25
 498 850 l 1
 340 771 l 1
 318 761 l 1
 303 760 l 1
 255 760 l 1
 231 760 l 1
EndSplineSet
Refer: 46 78 N 1 0 0 1 0 0 2
EndChar
StartChar: ncommaaccent
Encoding: 326 326 348
Width: 517
Flags: MW
LayerCount: 2
Fore
SplineSet
234 -48 m 1
 292 -48 l 1
 292 -97 l 2
 287 -134 272 -161 263 -194 c 1
 234 -194 l 1
 252 -107 l 1
 234 -107 l 1
 234 -48 l 1
EndSplineSet
Refer: 78 110 N 1 0 0 1 0 0 2
EndChar
StartChar: Ncaron
Encoding: 327 327 249
Width: 708
Flags: MW
LayerCount: 2
Fore
SplineSet
195 889 m 1
 256 889 l 1
 353 778 l 1
 450 889 l 1
 511 889 l 1
 389 727 l 1
 317 727 l 1
 195 889 l 1
EndSplineSet
Refer: 46 78 S 1 0 0 1 0 0 2
EndChar
StartChar: napostrophe
Encoding: 329 329 389
Width: 517
Flags: MW
LayerCount: 2
Fore
SplineSet
32 495 m 1
 58 578 l 1
 32 578 l 1
 32 662 l 1
 116 662 l 1
 116 593 l 2
 116 587 115 582 114 578 c 0
 110 565 74 495 74 495 c 1
 32 495 l 1
EndSplineSet
Refer: 78 110 N 1 0 0 1 0 0 2
EndChar
StartChar: Eng
Encoding: 330 330 285
Width: 708
Flags: MW
LayerCount: 2
Fore
SplineSet
521 0 m 1
 611 0 l 25
 611 -31 l 2
 611 -71 602 -119 574 -154 c 4
 551 -182 516 -202 463 -202 c 0
 406 -202 356 -183 320 -160 c 1
 333 -85 l 1
 341 -95 372 -140 433 -140 c 0
 483 -140 507 -107 516 -77 c 0
 521 -58 522 -38 521 -19 c 10
 521 0 l 1
95 -0 m 1
 95 694 l 1
 220 694 l 1
 494 150 l 1
 533 70 l 1
 533 694 l 1
 611 694 l 1
 611 -0 l 1
 486 -0 l 1
 212 544 l 1
 173 624 l 1
 173 -0 l 1
 95 -0 l 1
EndSplineSet
EndChar
StartChar: eng
Encoding: 331 331 376
Width: 517
Flags: MW
LayerCount: 2
Fore
SplineSet
80 -0 m 1xf6
 80 450 l 1
 153 450 l 1
 153 411 l 1
 153 380 l 1
 160 389 175 408 200 425 c 0
 224 441 256 455 299 455 c 0
 349 455 381 440 401 418 c 0
 428 388 435 345 436 308 c 0
 436 301 436 294 436 288 c 2
 436 -0 l 1
 435 -0 l 1
 435 -3 435 -5 435 -8 c 0
 433 -79 409 -143 372 -178 c 0
 354 -195 332 -205 307 -205 c 0
 272 -205 230 -195 189 -171 c 1
 216 -110 l 1
 239 -132 262 -141 282 -141 c 0
 298 -141 317 -136 333 -118 c 4
 348 -101 359 -73 359 -27 c 2
 359 -0 l 1
 358 -0 l 1
 358 281 l 2
 358 317 354 352 330 373 c 0
 315 386 293 394 260 394 c 0xfa
 225 394 201 377 185 352 c 0
 166 322 158 280 158 240 c 2
 158 -0 l 1
 80 -0 l 1xf6
EndSplineSet
EndChar
StartChar: Omacron
Encoding: 332 332 215
Width: 736
Flags: MW
LayerCount: 2
Fore
SplineSet
63 786 m 0
 63 808 86 806 97 806 c 2
 639 806 l 2
 650 806 672 808 672 786 c 0
 672 778 668 766 644 766 c 2
 97 766 l 2
 84 766 63 766 63 786 c 0
EndSplineSet
Refer: 47 79 N 1 0 0 1 0 0 3
EndChar
StartChar: omacron
Encoding: 333 333 210
Width: 500
Flags: MW
LayerCount: 2
Fore
SplineSet
69 551 m 1
 69 615 l 1
 429 615 l 1
 429 551 l 1
 69 551 l 1
EndSplineSet
Refer: 79 111 N 1 0 0 1 0 0 3
EndChar
StartChar: Ohungarumlaut
Encoding: 336 336 466
Width: 736
Flags: MW
LayerCount: 2
Fore
SplineSet
366 760 m 1
 523 850 l 25
 633 850 l 1
 475 771 l 1
 453 761 l 1
 438 760 l 1
 390 760 l 1
 366 760 l 1
200 760 m 1
 357 850 l 25
 467 850 l 1
 309 771 l 1
 287 761 l 1
 272 760 l 1
 224 760 l 1
 200 760 l 1
EndSplineSet
Refer: 47 79 N 1 0 0 1 0 0 2
EndChar
StartChar: OE
Encoding: 338 338 118
Width: 972
Flags: MW
LayerCount: 2
Fore
SplineSet
27 345 m 0
 27 465 79 573 160 641 c 0
 215 688 284 716 359 716 c 0xae
 418 716 455 694 527 694 c 2
 915 694 l 1
 915 628 l 1
 858 628 l 1
 834 629 l 1
 595 629 l 1
 558 630 l 1
 558 392 l 1
 887 392 l 1
 887 330 l 1
 558 330 l 1
 558 70 l 1
 644 70 l 1
 668 71 l 1
 861 71 l 1
 883 72 l 1
 929 72 l 1
 929 -0 l 1
 505 -0 l 2x76
 455 -3 411 -22 357 -22 c 0
 273 -22 190 16 129 80 c 0
 67 145 27 237 27 345 c 0
114 358 m 0xae
 114 341 115 323 117 306 c 0
 126 242 150 180 187 132 c 4
 230 76 290 39 363 39 c 0
 456 39 471 77 471 229 c 2
 471 471 l 2
 471 621 453 652 370 655 c 2
 351 655 l 2
 303 653 255 632 214 597 c 0
 156 546 114 464 114 358 c 0xae
EndSplineSet
EndChar
StartChar: oe
Encoding: 339 339 120
Width: 778
Flags: MW
LayerCount: 2
Fore
SplineSet
30 225 m 0
 30 296 59 362 106 406 c 0
 142 440 189 461 241 461 c 0
 265 461 309 456 354 425 c 0
 375 410 396 390 415 362 c 1
 429 385 448 406 470 422 c 0
 503 446 542 461 582 461 c 0
 620 461 669 449 704 401 c 0
 717 383 727 361 735 333 c 4
 744 303 749 265 749 220 c 1
 455 220 l 1
 456 208 457 168 478 129 c 0
 489 108 507 87 533 70 c 0
 544 63 566 51 599 51 c 0
 665 51 708 81 738 106 c 1
 744 40 l 1
 704 10 658 -11 598 -11 c 0
 574 -11 529 -7 482 24 c 0
 460 39 437 60 416 90 c 1
 401 66 382 45 360 29 c 0
 325 3 284 -11 241 -11 c 0
 182 -11 127 17 87 64 c 0
 52 105 30 161 30 225 c 0
103 231 m 0
 103 176 118 130 143 99 c 0
 167 68 201 51 241 51 c 0
 273 51 308 64 335 95 c 0
 357 121 373 159 376 212 c 0
 376 218 377 224 377 231 c 0
 377 292 358 337 328 365 c 0
 304 387 274 399 241 399 c 0
 209 399 173 387 146 358 c 0
 121 331 103 290 103 231 c 0
460 275 m 1
 690 275 l 1
 683 319 669 348 654 366 c 0
 628 397 597 399 584 399 c 0
 555 399 524 385 499 356 c 0
 482 336 467 309 460 275 c 1
EndSplineSet
EndChar
StartChar: Rcommaaccent
Encoding: 342 342 493
Width: 646
Flags: MW
LayerCount: 2
Fore
SplineSet
291 -48 m 1
 349 -48 l 1
 349 -97 l 2
 344 -134 329 -161 320 -194 c 1
 291 -194 l 1
 309 -107 l 1
 291 -107 l 1
 291 -48 l 1
EndSplineSet
Refer: 50 82 N 1 0 0 1 0 0 2
EndChar
StartChar: rcommaaccent
Encoding: 343 343 349
Width: 342
Flags: MW
LayerCount: 2
Fore
SplineSet
133 -48 m 1
 191 -48 l 1
 191 -97 l 2
 186 -134 171 -161 162 -194 c 1
 133 -194 l 1
 151 -107 l 1
 133 -107 l 1
 133 -48 l 1
EndSplineSet
Refer: 82 114 N 1 0 0 1 0 0 2
EndChar
StartChar: Rcaron
Encoding: 344 344 484
Width: 646
Flags: MW
LayerCount: 2
Fore
SplineSet
148 889 m 1
 209 889 l 1
 306 778 l 1
 403 889 l 1
 465 889 l 1xf6
 342 727 l 1
 270 727 l 1
 148 889 l 1
EndSplineSet
Refer: 50 82 S 1 0 0 1 0 0 2
EndChar
StartChar: Sacute
Encoding: 346 346 459
Width: 555
Flags: MW
LayerCount: 2
Fore
SplineSet
138 760 m 1
 295 850 l 25
 405 850 l 1
 247 771 l 1
 225 761 l 1
 210 760 l 1
 162 760 l 1
 138 760 l 1
EndSplineSet
Refer: 51 83 N 1 0 0 1 0 0 2
EndChar
StartChar: Scaron
Encoding: 352 352 215
Width: 555
Flags: MW
LayerCount: 2
Fore
SplineSet
119 889 m 1
 180 889 l 1
 277 778 l 1
 374 889 l 1
 435 889 l 1xe8
 313 727 l 1
 241 727 l 1
 119 889 l 1
EndSplineSet
Refer: 51 83 N 1 0 0 1 0 0 2
EndChar
StartChar: tcedilla
Encoding: 355 355 483
Width: 361
Flags: MW
LayerCount: 2
Fore
SplineSet
18 386 m 1
 18 445 l 1
 104 445 l 1
 104 571 l 1
 174 571 l 1
 174 445 l 1
 315 445 l 1
 315 386 l 1
 174 386 l 1
 174 134 l 2
 175 78 190 53 227 53 c 0xf0
 278 53 308 83 316 86 c 1
 332 27 l 1
 280 -1 228 -11 183 -11 c 0
 113 -11 102 54 102 122 c 2
 102 386 l 1
 18 386 l 1
EndSplineSet
Refer: 115 184 S 1 0 0 1 0 0 2
EndChar
StartChar: tcaron
Encoding: 357 357 425
Width: 361
Flags: MW
LayerCount: 2
Fore
SplineSet
273 488 m 1
 299 571 l 1
 273 571 l 1
 273 655 l 1
 357 655 l 1
 357 586 l 2
 357 580 356 575 355 571 c 0
 351 558 315 488 315 488 c 1
 273 488 l 1
EndSplineSet
Refer: 84 116 N 1 0 0 1 0 0 2
EndChar
StartChar: Tbar
Encoding: 358 358 286
Width: 680
Flags: MW
LayerCount: 2
Fore
SplineSet
35 623 m 1
 35 689 l 1
 643 689 l 1
 643 623 l 1
 384 624 l 1
 384 382 l 1
 526 382 l 1
 526 323 l 1
 384 323 l 1
 384 0 l 1
 295 0 l 1
 295 323 l 1
 158 323 l 1
 158 382 l 1
 295 382 l 1
 295 624 l 1
 35 623 l 1
EndSplineSet
EndChar
StartChar: tbar
Encoding: 359 359 528
Width: 361
Flags: MW
LayerCount: 2
Fore
SplineSet
18 386 m 1
 18 445 l 1
 104 445 l 1
 104 571 l 1
 174 571 l 1
 174 445 l 1
 315 445 l 1
 315 386 l 1
 174 386 l 1
 174 280 l 1
 315 280 l 1
 315 221 l 1
 174 221 l 1
 174 140 l 2
 174 117 176 86 192 68 c 0
 200 59 211 53 228 53 c 0
 275 53 305 80 316 86 c 1
 332 27 l 1
 280 -1 228 -11 184 -11 c 0
 167 -11 146 -6 129 14 c 0
 114 33 102 64 102 117 c 2
 102 221 l 1
 16 221 l 1
 16 280 l 1
 102 280 l 1
 102 386 l 1
 18 386 l 1
EndSplineSet
EndChar
StartChar: Utilde
Encoding: 360 360 362
Width: 687
Flags: MW
LayerCount: 2
Fore
SplineSet
179 805 m 1
 181 879 229 920 277 920 c 0xde
 329 920 366 867 411 867 c 0xee
 417 867 423 868 428 871 c 0
 442 878 450 896 451 920 c 1
 512 920 l 1xde
 509 846 462 806 414 806 c 0xee
 362 806 325 859 281 859 c 0xde
 275 859 271 858 266 856 c 0
 251 849 242 831 240 805 c 1
 179 805 l 1
EndSplineSet
Refer: 53 85 N 1 0 0 1 0 0 2
EndChar
StartChar: Umacron
Encoding: 362 362 211
Width: 687
Flags: MW
LayerCount: 2
Fore
SplineSet
39 786 m 0
 39 808 62 806 73 806 c 2
 615 806 l 2
 626 806 648 808 648 786 c 0
 648 778 644 766 620 766 c 2
 73 766 l 2
 60 766 39 766 39 786 c 0
EndSplineSet
Refer: 53 85 N 1 0 0 1 0 0 3
EndChar
StartChar: umacron
Encoding: 363 363 205
Width: 517
Flags: MW
LayerCount: 2
Fore
SplineSet
78 551 m 1
 78 615 l 1
 438 615 l 1
 438 551 l 1
 78 551 l 1
EndSplineSet
Refer: 85 117 N 1 0 0 1 0 0 3
EndChar
StartChar: Uring
Encoding: 366 366 335
Width: 687
Flags: MW
LayerCount: 2
Fore
SplineSet
235 777 m 0
 235 842 289 888 346 888 c 0
 410 888 457 836 457 777 c 0
 457 720 412 666 346 666 c 0
 281 666 235 719 235 777 c 0
291 777 m 0
 291 764 295 749 306 739 c 0
 314 732 325 728 342 727 c 0
 343 727 345 727 346 727 c 0
 367 727 381 733 389 742 c 0
 398 752 401 765 401 777 c 0
 401 789 398 803 388 813 c 0
 380 821 367 827 347 827 c 0xdf
 346 827 344 827 343 827 c 0
 322 826 309 819 301 809 c 0
 294 800 291 788 291 777 c 0
EndSplineSet
Refer: 53 85 N 1 0 0 1 0 0 2
EndChar
StartChar: Uhungarumlaut
Encoding: 368 368 486
Width: 687
Flags: MW
LayerCount: 2
Fore
SplineSet
342 760 m 1
 499 850 l 25
 609 850 l 1
 451 771 l 1
 429 761 l 1
 414 760 l 1
 366 760 l 1
 342 760 l 1
176 760 m 1
 333 850 l 25
 443 850 l 1
 285 771 l 1
 263 761 l 1
 248 760 l 1
 200 760 l 1
 176 760 l 1
EndSplineSet
Refer: 53 85 N 1 0 0 1 0 0 2
EndChar
StartChar: Uogonek
Encoding: 370 370 320
Width: 687
Flags: MW
LayerCount: 2
Fore
SplineSet
425 0 m 1
 420 -3 335 -49 335 -107 c 0
 335 -113 336 -117 338 -122 c 0
 339 -125 341 -128 343 -130 c 0
 352 -141 367 -147 386 -147 c 0
 412 -147 438 -137 453 -133 c 1
 469 -192 l 1
 415 -217 381 -217 372 -217 c 0
 314 -217 275 -181 275 -128 c 0
 275 -77 313 -29 360 0 c 1
 425 0 l 1
EndSplineSet
Refer: 53 85 N 1 0 0 1 0 0 2
EndChar
StartChar: Zacute
Encoding: 377 377 326
Width: 611
Flags: MW
LayerCount: 2
Fore
SplineSet
193 760 m 1
 350 850 l 25
 460 850 l 1
 302 771 l 1
 280 761 l 1
 265 760 l 1
 217 760 l 1
 193 760 l 1
EndSplineSet
Refer: 58 90 N 1 0 0 1 0 0 2
EndChar
StartChar: Zcaron
Encoding: 381 381 217
Width: 611
Flags: MW
LayerCount: 2
Fore
SplineSet
148 889 m 1
 209 889 l 1
 306 778 l 1
 403 889 l 1
 465 889 l 1
 342 727 l 1
 270 727 l 1
 148 889 l 1
EndSplineSet
Refer: 58 90 S 1 0 0 1 0 0 2
EndChar
StartChar: florin
Encoding: 402 402 101
Width: 620
Flags: MW
LayerCount: 2
Fore
SplineSet
6 -171 m 1
 40 -110 l 1
 50 -120 68 -141 108 -141 c 0
 192 -141 200 -62 200 -62 c 1
 296 386 l 1
 222 386 l 1
 234 445 l 1
 308 445 l 1
 322 514 329 546 335 567 c 0
 340 584 343 593 350 607 c 0
 362 632 396 686 456 715 c 0
 479 726 506 733 538 733 c 0
 568 733 596 727 614 722 c 1
 598 655 l 1
 570 666 558 671 522 672 c 0
 456 672 426 625 418 607 c 0
 413 596 410 583 380 445 c 1
 494 445 l 1
 482 386 l 1
 372 386 l 1
 284 -27 l 2
 278 -55 274 -82 260 -107 c 0
 253 -123 234 -153 204 -176 c 4
 182 -192 154 -205 120 -205 c 0
 74 -205 38 -192 6 -171 c 1
EndSplineSet
EndChar
StartChar: Ghook
Encoding: 403 403 381
Width: 667
Flags: MW
LayerCount: 2
Fore
SplineSet
66 347 m 0
 66 541 200 716 391 716 c 0
 440 716 479 710 514 699 c 1
 521 774 550 817 589 840 c 0
 617 856 651 862 686 862 c 0
 716 862 736 852 750 840 c 4
 767 825 773 807 775 801 c 1
 752 741 l 1
 746 759 738 777 724 788 c 0
 715 796 703 800 687 800 c 0
 669 800 646 796 628 780 c 0
 612 767 600 745 594 709 c 0
 592 697 591 683 591 668 c 1
 576 585 l 1
 520 627 476 652 393 652 c 0
 251 652 156 506 156 348 c 0
 156 176 260 42 392 42 c 0
 466 42 514 62 521 63 c 1
 521 237 l 1
 388 237 l 1
 388 299 l 1
 599 299 l 1
 599 26 l 1
 523 -9 454 -22 391 -22 c 0
 208 -22 66 144 66 347 c 0
EndSplineSet
EndChar
StartChar: clickalveolar
Encoding: 450 450 569
Width: 556
Flags: MW
LayerCount: 2
Fore
SplineSet
55 129 m 1
 55 193 l 1
 238 193 l 1
 238 275 l 1
 55 275 l 1
 55 339 l 1
 238 339 l 1
 238 695 l 1
 316 695 l 1
 316 339 l 1
 499 339 l 1
 499 275 l 1
 316 275 l 1
 316 193 l 1
 499 193 l 1
 499 129 l 1
 316 129 l 1
 316 -195 l 1
 238 -195 l 1
 238 129 l 1
 55 129 l 1
EndSplineSet
EndChar
StartChar: Acaron
Encoding: 461 461 334
Width: 667
Flags: MW
LayerCount: 2
Fore
SplineSet
173 889 m 1
 234 889 l 1
 331 778 l 1
 428 889 l 1
 489 889 l 1
 367 727 l 1
 295 727 l 1
 173 889 l 1
EndSplineSet
Refer: 33 65 N 1 0 0 1 0 0 3
EndChar
StartChar: Icaron
Encoding: 463 463 216
Width: 278
Flags: MW
LayerCount: 2
Fore
SplineSet
-18 889 m 1
 43 889 l 1
 140 778 l 1
 237 889 l 1
 298 889 l 1
 176 727 l 1
 104 727 l 1
 -18 889 l 1
EndSplineSet
Refer: 41 73 N 1 0 0 1 0 0 3
EndChar
StartChar: Ocaron
Encoding: 465 465 341
Width: 736
Flags: MW
LayerCount: 2
Fore
SplineSet
212 889 m 1
 273 889 l 1
 370 778 l 1
 467 889 l 1
 528 889 l 1
 406 727 l 1
 334 727 l 1
 212 889 l 1
EndSplineSet
Refer: 47 79 N 1 0 0 1 0 0 3
EndChar
StartChar: Ucaron
Encoding: 467 467 219
Width: 687
Flags: MW
LayerCount: 2
Fore
SplineSet
182 889 m 1
 243 889 l 1
 340 778 l 1
 437 889 l 1
 498 889 l 1
 376 727 l 1
 304 727 l 1
 182 889 l 1
EndSplineSet
Refer: 53 85 N 1 0 0 1 0 0 3
EndChar
StartChar: Udieresismacron
Encoding: 469 469 407
Width: 687
Flags: MW
LayerCount: 2
Fore
SplineSet
39 936 m 0
 39 958 62 956 73 956 c 2
 615 956 l 2
 626 956 648 958 648 936 c 0
 648 928 644 916 620 916 c 2
 73 916 l 2
 60 916 39 916 39 936 c 0
EndSplineSet
Refer: 164 220 N 1 0 0 1 0 0 2
EndChar
StartChar: udieresismacron
Encoding: 470 470 235
Width: 517
Flags: MW
LayerCount: 2
Fore
SplineSet
78 751 m 1
 78 815 l 1
 438 815 l 1
 438 751 l 1
 78 751 l 1
EndSplineSet
Refer: 189 252 N 1 0 0 1 0 0 2
EndChar
StartChar: Udieresisacute
Encoding: 471 471 543
Width: 687
Flags: MW
LayerCount: 2
Fore
SplineSet
259 910 m 5
 416 1000 l 29
 526 1000 l 5
 368 921 l 5
 346 911 l 5
 331 910 l 5
 283 910 l 5
 259 910 l 5
EndSplineSet
Refer: 179 220 N 1 0 0 1 0 0 2
EndChar
StartChar: Udieresisgrave
Encoding: 475 475 334
Width: 687
Flags: MW
LayerCount: 2
Fore
SplineSet
201 1001 m 5
 312 1001 l 29
 469 911 l 5
 391 911 l 29
 381 912 l 5
 370 916 l 5
 201 1001 l 5
EndSplineSet
Refer: 164 220 N 1 0 0 1 0 0 2
EndChar
StartChar: Ngrave
Encoding: 504 504 314
Width: 708
Flags: MW
LayerCount: 2
Fore
SplineSet
219 856 m 1
 330 856 l 25
 487 766 l 1
 409 766 l 25
 399 767 l 1
 388 771 l 1
 219 856 l 1
EndSplineSet
Refer: 46 78 N 1 0 0 1 0 0 3
EndChar
StartChar: aturn
Encoding: 592 592 599
Width: 481
Flags: MW
LayerCount: 2
Fore
SplineSet
80 139 m 2
 80 445 l 1
 155 445 l 1
 155 409 l 1
 208 447 276 456 322 456 c 0
 359 456 386 440 404 419 c 0
 426 393 436 358 436 332 c 0
 436 299 419 273 392 254 c 0
 333 212 228 200 158 200 c 1
 158 166 l 1
 159 139 l 2
 161 115 169 92 182 75 c 4
 197 55 220 43 247 43 c 0
 322 43 364 72 397 95 c 1
 403 27 l 1
 351 -2 309 -16 246 -16 c 0
 196 -16 155 4 126 34 c 0
 99 62 83 99 80 139 c 2
158 251 m 1
 196 252 279 258 327 283 c 0
 349 294 363 310 363 330 c 0
 363 334 362 339 361 344 c 0
 351 378 310 394 270 394 c 0
 246 394 214 390 191 375 c 0
 175 365 162 350 159 329 c 0
 158 325 158 320 158 316 c 2
 158 251 l 1
EndSplineSet
EndChar
StartChar: ascript
Encoding: 593 593 376
Width: 517
Flags: MW
LayerCount: 2
Fore
SplineSet
35 222 m 0
 35 301 65 376 115 418 c 0
 142 441 176 455 213 455 c 0
 246 455 302 448 359 400 c 1
 359 455 l 1
 434 455 l 1
 434 0 l 1
 356 0 l 1
 356 52 l 1
 321 20 273 -11 207 -11 c 0
 156 -11 109 19 77 68 c 0
 51 108 35 161 35 222 c 0
114 204 m 4
 117 156 131 122 150 98 c 0
 178 63 218 51 249 51 c 0
 306 51 356 100 356 135 c 2
 356 339 l 1
 343 355 317 394 259 394 c 0
 233 394 200 386 173 365 c 0
 143 342 119 305 114 247 c 0
 113 239 113 231 113 223 c 0
 113 216 114 210 114 204 c 4
EndSplineSet
EndChar
StartChar: ascriptturn
Encoding: 594 594 394
Width: 517
Flags: MW
LayerCount: 2
Fore
SplineSet
81 0 m 1
 81 450 l 1
 156 450 l 1
 156 397 l 1
 195 428 248 455 319 455 c 0
 368 455 405 428 432 390 c 0
 464 344 480 280 480 224 c 0
 480 218 479 212 479 206 c 0
 475 138 450 81 412 42 c 4
 380 9 339 -11 295 -11 c 0
 241 -11 197 11 159 47 c 1
 159 0 l 1
 81 0 l 1
159 134 m 2
 159 108 163 108 177 89 c 0
 199 62 224 51 257 51 c 0
 288 51 327 62 357 93 c 0
 381 118 399 155 402 209 c 0
 402 214 402 218 402 223 c 0
 402 279 387 318 366 345 c 0
 337 381 297 394 266 394 c 0
 206 394 176 354 169 348 c 1
 163 339 159 337 159 321 c 2
 159 134 l 2
EndSplineSet
EndChar
StartChar: bhook
Encoding: 595 595 570
Width: 556
Flags: MW
LayerCount: 2
Fore
SplineSet
100 0 m 1
 100 505 l 2
 100 644 222 717 337 717 c 0
 426 717 470 677 499 650 c 1
 475 587 l 1
 458 609 420 655 338 655 c 0
 283 655 175 625 175 504 c 2
 175 394 l 1
 218 427 275 455 351 455 c 0
 451 455 518 343 518 224 c 0
 518 92 433 -11 325 -11 c 0
 255 -11 209 23 178 51 c 1
 178 0 l 1
 100 0 l 1
178 135 m 2
 178 102 222 51 285 51 c 0
 354 51 440 97 440 223 c 0
 440 335 373 394 295 394 c 0
 248 394 209 373 178 332 c 1
 178 135 l 2
EndSplineSet
EndChar
StartChar: oopen
Encoding: 596 596 380
Width: 444
Flags: MW
LayerCount: 2
Fore
SplineSet
27 405 m 1
 72 434 122 456 190 456 c 0
 244 456 293 436 330 402 c 0
 378 359 407 294 407 222 c 0
 407 155 381 87 332 40 c 4
 296 5 247 -17 187 -17 c 0
 116 -17 86 -3 32 31 c 1
 44 98 l 1
 79 73 108 48 188 48 c 0
 231 48 263 65 286 91 c 0
 309 118 323 154 327 193 c 0
 328 203 329 212 329 222 c 0
 329 275 312 321 283 351 c 0
 259 376 227 391 189 391 c 0
 112 391 65 360 33 338 c 1
 27 405 l 1
EndSplineSet
EndChar
StartChar: ccurl
Encoding: 597 597 561
Width: 444
Flags: MW
LayerCount: 2
Fore
SplineSet
25 -146 m 1
 60 -78 l 5
 119 38 l 1
 71 77 36 144 36 223 c 0
 36 293 64 360 112 405 c 0
 149 439 197 461 254 461 c 0
 325 461 355 449 411 417 c 1
 399 351 l 1
 361 375 332 397 257 397 c 0
 211 397 176 378 153 349 c 0
 127 316 114 270 114 223 c 0
 114 218 114 214 114 209 c 0
 118 145 146 109 153 101 c 1
 190 163 242 196 301 196 c 0
 368 196 422 158 422 101 c 0
 422 20 324 -11 252 -11 c 0
 221 -11 201 -6 170 6 c 1
 142 -45 112 -94 86 -146 c 1
 25 -146 l 1
202 63 m 1
 222 56 234 53 255 53 c 0
 339 53 354 81 354 100 c 0
 354 121 331 134 303 134 c 0
 272 134 228 117 202 63 c 1
EndSplineSet
EndChar
StartChar: drthook
Encoding: 598 598 360
Width: 536
Flags: MW
LayerCount: 2
Fore
SplineSet
35 222 m 0
 35 224 35 226 35 228 c 0
 36 303 66 371 111 412 c 0
 138 437 171 453 208 455 c 0
 211 455 214 455 217 455 c 0
 287 455 340 428 378 397 c 1
 378 695 l 1
 453 695 l 1
 453 -40 l 1
 454 -74 l 2
 455 -106 472 -155 516 -155 c 0
 566 -155 583 -109 587 -100 c 1
 610 -162 l 1
 594 -185 571 -217 513 -217 c 0
 458 -217 375 -174 375 -56 c 2
 375 56 l 1
 335 20 284 -11 214 -11 c 0
 163 -11 120 14 89 54 c 0
 55 98 35 159 35 222 c 0
113 221 m 0
 113 169 128 127 153 98 c 4
 179 68 217 51 258 51 c 0
 334 51 371 116 374 127 c 0
 375 132 375 138 375 144 c 2
 375 321 l 2
 375 353 327 394 265 394 c 0
 236 394 206 386 180 368 c 0
 145 344 119 303 114 242 c 0
 113 235 113 228 113 221 c 0
EndSplineSet
EndChar
StartChar: dhook
Encoding: 599 599 590
Width: 517
Flags: MW
LayerCount: 2
Fore
SplineSet
35 222 m 0
 35 295 60 362 102 406 c 0
 132 437 169 456 213 456 c 0
 299 456 355 403 356 403 c 1
 356 506 l 2
 356 599 394 657 439 688 c 0
 469 708 501 717 529 717 c 0
 596 717 616 666 616 658 c 0
 616 652 613 645 595 596 c 1
 585 626 569 655 530 655 c 0
 513 655 493 648 476 632 c 0
 458 615 443 587 437 544 c 0
 435 532 434 519 434 505 c 2
 434 -0 l 1
 356 -0 l 1
 356 52 l 1
 321 20 273 -11 207 -11 c 0
 163 -11 121 12 90 50 c 0
 67 78 50 115 41 158 c 0
 37 178 35 200 35 222 c 0
113 210 m 0
 116 148 137 108 164 84 c 0
 191 60 223 51 249 51 c 0
 306 51 356 100 356 135 c 2
 356 339 l 1
 343 355 317 394 259 394 c 0
 228 394 190 383 160 354 c 0
 136 330 118 295 114 244 c 0
 113 237 113 230 113 223 c 0
 113 219 113 214 113 210 c 0
EndSplineSet
EndChar
StartChar: ereversed
Encoding: 600 600 387
Width: 444
Flags: MW
LayerCount: 2
Fore
SplineSet
29 220 m 1
 31 286 38 357 86 410 c 0
 118 445 165 461 208 461 c 0
 248 461 286 447 318 422 c 0
 372 381 409 310 409 226 c 0
 409 165 388 106 350 62 c 4
 312 18 257 -11 192 -11 c 0
 128 -11 76 11 33 40 c 1
 39 106 l 1
 83 74 131 51 192 51 c 0
 234 51 273 72 301 108 c 0
 323 137 337 175 339 220 c 1
 29 220 l 1
86 275 m 1
 334 275 l 1
 327 309 307 349 276 374 c 0
 257 389 234 399 207 399 c 0
 192 399 161 395 134 372 c 0
 113 354 93 324 86 275 c 1
EndSplineSet
EndChar
StartChar: schwa
Encoding: 601 601 384
Width: 444
Flags: MW
LayerCount: 2
Fore
SplineSet
27 225 m 1
 346 225 l 1
 344 277 322 325 288 356 c 0
 262 380 229 394 191 394 c 0
 123 394 76 366 38 339 c 1
 32 404 l 1
 76 433 128 455 192 455 c 0
 193 455 195 455 196 455 c 4
 249 454 297 434 335 402 c 0
 385 359 416 294 416 219 c 0
 416 152 390 89 348 46 c 0
 311 8 263 -16 209 -16 c 0
 163 -16 106 0 68 56 c 0
 47 88 31 133 28 195 c 2
 27 225 l 1
85 169 m 1
 87 152 95 118 116 90 c 0
 135 65 163 45 207 45 c 0
 237 45 268 56 293 82 c 0
 313 102 329 131 340 169 c 1
 85 169 l 1
EndSplineSet
EndChar
StartChar: schwahook
Encoding: 602 602 349
Width: 599
Flags: MW
LayerCount: 2
Fore
SplineSet
27 147 m 1
 283 344 l 1
 283 344 l 1
 261 369 230 394 182 394 c 0
 114 394 69 363 38 339 c 1
 32 404 l 1
 75 435 125 455 181 455 c 0
 247 455 300 425 335 385 c 1
 427 455 l 1
 486 455 l 1
 486 323 l 2
 486 281 501 281 506 277 c 1
 513 277 l 2
 526 277 537 285 540 310 c 1
 598 310 l 1
 597 278 592 254 573 238 c 0
 553 222 537 214 513 214 c 0
 477 214 427 235 427 319 c 2
 427 395 l 1
 363 346 l 1
 363 345 l 1
 385 309 396 264 396 219 c 0
 396 157 374 96 337 52 c 0
 302 11 254 -16 195 -16 c 0
 155 -16 107 -6 73 26 c 0
 46 51 28 89 27 147 c 1
105 147 m 1
 106 113 115 89 128 74 c 0
 148 50 175 45 196 45 c 0
 233 45 265 65 288 96 c 0
 312 128 326 172 326 219 c 0
 326 236 325 265 309 304 c 1
 309 304 l 1
 105 147 l 1
EndSplineSet
EndChar
StartChar: eopen
Encoding: 603 603 389
Width: 417
Flags: MW
LayerCount: 2
Fore
SplineSet
33 133 m 0xf0
 33 171 51 197 73 216 c 0
 91 231 111 241 126 248 c 1
 69 272 44 303 44 339 c 0
 44 382 60 411 83 429 c 0
 120 458 176 461 218 461 c 0
 306 461 341 441 383 418 c 1
 371 351 l 1
 318 385 296 400 216 400 c 2
 213 400 l 2
 181 399 152 394 135 379 c 0
 124 370 118 356 118 337 c 0xe8
 118 308 146 273 235 272 c 1
 260 272 l 1
 294 272 l 1
 294 216 l 1
 228 216 l 2
 179 216 147 210 125 184 c 0
 115 170 109 153 109 136 c 0
 109 113 118 96 133 83 c 0
 157 62 195 54 228 54 c 0
 302 54 353 88 382 107 c 1
 388 40 l 1
 333 5 281 -11 216 -11 c 0
 148 -11 104 7 76 32 c 0
 43 62 33 102 33 133 c 0xf0
EndSplineSet
EndChar
StartChar: eopenreversed
Encoding: 604 604 459
Width: 472
Flags: MW
LayerCount: 2
Fore
SplineSet
41 55 m 1
 53 122 l 1
 100 74 157 40 235 40 c 0
 310 40 350 82 350 124 c 0
 350 158 323 210 229 210 c 0xe8
 193 210 l 1
 193 271 l 1
 223 273 336 271 336 340 c 0
 336 367 310 408 235 408 c 0
 131 408 70 337 66 335 c 1
 55 400 l 1
 104 440 163 467 236 467 c 0
 334 467 415 412 415 340 c 0xf0
 415 264 335 235 334 233 c 1
 361 222 429 189 429 123 c 0
 429 54 355 -22 236 -22 c 0
 158 -22 94 8 41 55 c 1
EndSplineSet
EndChar
StartChar: eopenreversedclosed
Encoding: 606 606 460
Width: 500
Flags: MW
LayerCount: 2
Fore
SplineSet
27 230 m 0
 27 299 55 365 104 410 c 0
 142 445 193 467 252 467 c 0
 298 467 363 454 407 414 c 0
 425 397 443 373 443 340 c 0xf8
 443 275 386 244 359 232 c 1
 392 219 457 185 457 123 c 0xf4
 457 75 423 32 372 6 c 0
 338 -12 296 -22 252 -22 c 0
 188 -22 134 5 95 48 c 0
 52 95 27 162 27 230 c 0
90 229 m 0
 90 186 108 133 137 94 c 0
 161 62 205 40 252 40 c 0
 287 40 318 49 340 64 c 0
 363 79 377 100 377 124 c 0xf4
 377 145 365 174 330 192 c 0
 309 203 280 210 241 210 c 2
 221 210 l 1
 221 271 l 1
 237 272 294 271 331 290 c 0
 350 300 364 316 364 340 c 0xf8
 364 357 354 377 330 391 c 0
 312 401 287 408 253 408 c 0
 208 408 161 388 135 355 c 0
 109 323 90 278 90 229 c 0
EndSplineSet
EndChar
StartChar: jdotlessbar
Encoding: 607 607 529
Width: 306
Flags: MW
LayerCount: 2
Fore
SplineSet
-41 -171 m 1
 -21 -110 l 1
 1 -128 22 -141 54 -141 c 0
 70 -141 92 -137 108 -123 c 0
 121 -112 130 -96 130 -71 c 0
 130 -67 129 -62 129 -57 c 2
 129 199 l 1
 32 199 l 1
 32 258 l 1
 129 258 l 1
 129 445 l 1
 205 445 l 1
 205 258 l 1
 289 258 l 1
 289 199 l 1
 205 199 l 1
 205 -46 l 2
 205 -70 206 -83 199 -106 c 0
 193 -130 179 -156 158 -175 c 4
 138 -193 112 -205 79 -205 c 0
 29 -205 -11 -188 -41 -171 c 1
EndSplineSet
EndChar
StartChar: ghook
Encoding: 608 608 573
Width: 536
Flags: MW
LayerCount: 2
Fore
SplineSet
35 223 m 0
 35 297 63 365 109 408 c 0
 140 437 179 455 223 455 c 0
 286 455 327 423 357 391 c 1
 357 491 l 2
 357 550 382 590 416 615 c 0
 447 638 485 647 517 647 c 0
 588 647 610 601 618 592 c 1
 595 530 l 1
 582 556 567 586 518 586 c 0
 495 586 476 578 462 565 c 0
 445 550 435 529 433 509 c 2
 432 486 l 1
 432 309 l 1
 434 309 l 1
 434 8 l 2
 434 -61 412 -120 374 -160 c 0
 340 -196 295 -217 240 -217 c 0
 155 -217 101 -183 69 -162 c 1
 69 -96 l 1
 113 -127 161 -156 243 -156 c 0
 269 -156 302 -143 326 -108 c 0
 343 -82 355 -45 355 9 c 2
 355 53 l 5
 355 90 l 1
 322 55 274 20 204 20 c 0
 159 20 118 41 87 76 c 0
 55 112 35 164 35 223 c 0
113 224 m 0
 113 190 124 160 142 136 c 0
 167 103 206 82 247 82 c 0
 312 82 354 141 355 220 c 1
 357 220 l 1
 357 290 l 2
 357 295 356 302 355 308 c 0
 347 345 314 394 258 394 c 0
 217 394 179 372 152 338 c 0
 128 308 113 268 113 224 c 0
EndSplineSet
EndChar
StartChar: gscript
Encoding: 609 609 533
Width: 517
Flags: MW
LayerCount: 2
Fore
SplineSet
35 224 m 0
 35 294 61 358 102 401 c 0
 135 435 177 455 223 455 c 0
 284 455 326 425 359 389 c 1
 359 455 l 1
 434 455 l 1
 434 9 l 2
 434 -64 410 -123 372 -163 c 0
 339 -198 294 -217 245 -217 c 0
 171 -217 123 -198 69 -162 c 1
 69 -96 l 1
 93 -112 146 -156 244 -156 c 0
 269 -156 300 -145 323 -113 c 0
 342 -87 356 -47 356 12 c 0
 356 67 l 0
 356 75 356 83 355 91 c 1
 335 68 312 52 291 41 c 4
 249 20 211 20 204 20 c 0
 160 20 118 40 87 75 c 0
 55 111 35 163 35 224 c 0
113 223 m 0
 113 187 127 152 150 126 c 0
 174 99 207 82 247 82 c 0
 312 82 357 141 359 220 c 1
 359 220 l 1
 359 285 l 2
 359 320 329 394 259 394 c 0
 221 394 178 384 152 354 c 0
 116 311 113 271 113 223 c 0
EndSplineSet
EndChar
StartChar: Gsmallcap
Encoding: 610 610 400
Width: 480
Flags: MW
LayerCount: 2
Fore
SplineSet
45 223 m 0
 45 349 144 459 279 459 c 0
 343 459 381 446 420 429 c 1
 407 355 l 1
 396 365 357 409 282 409 c 0
 281 409 280 409 279 409 c 4
 193 407 133 332 124 244 c 0
 123 237 123 229 123 222 c 0
 123 125 187 35 281 35 c 0
 304 35 326 40 347 44 c 1
 347 131 l 1
 278 131 l 1
 278 188 l 1
 425 188 l 1
 425 16 l 1
 385 -1 338 -15 280 -15 c 0
 145 -15 45 94 45 223 c 0
EndSplineSet
EndChar
StartChar: gammalatin
Encoding: 611 611 477
Width: 461
Flags: MW
LayerCount: 2
Fore
SplineSet
14 445 m 1
 92 445 l 1
 92 445 225 122 232 86 c 1
 240 119 371 445 371 445 c 1
 446 445 l 1
 275 35 l 1
 299 5 344 -38 344 -99 c 0
 344 -156 301 -217 231 -217 c 0
 164 -217 120 -159 120 -100 c 0
 120 -39 163 2 187 32 c 1
 14 445 l 1
188 -100 m 0
 188 -115 193 -129 200 -139 c 4
 208 -149 218 -155 231 -155 c 0
 256 -155 273 -131 273 -100 c 0
 273 -65 252 -34 231 -7 c 1
 212 -31 188 -63 188 -100 c 0
EndSplineSet
EndChar
StartChar: ramshorn
Encoding: 612 612 583
Width: 528
Flags: MW
LayerCount: 2
Fore
SplineSet
8 367 m 1
 9 400 23 424 42 441 c 0
 62 458 87 467 112 467 c 0
 146 467 174 453 196 433 c 0
 234 399 257 351 263 337 c 1
 264 337 l 1
 270 351 292 398 330 432 c 0
 353 452 381 467 415 467 c 0
 440 467 463 459 482 444 c 0
 503 427 517 401 519 367 c 1
 445 355 l 1
 444 365 443 373 440 380 c 0
 433 399 419 407 404 407 c 0
 392 407 382 401 373 393 c 0
 356 376 345 347 335 330 c 2
 307 272 l 2
 300 256 305 256 306 249 c 1
 306 249 344 173 353 152 c 0
 369 118 370 109 370 89 c 0
 370 59 357 28 335 7 c 0
 317 -11 293 -22 264 -22 c 0
 236 -22 212 -12 194 5 c 0
 171 26 157 57 157 90 c 0
 157 109 165 130 173 151 c 0
 177 162 224 249 224 259 c 1
 222 269 223 265 201 310 c 0
 183 347 169 376 154 392 c 0
 145 402 135 407 123 407 c 0
 114 407 104 403 96 394 c 0
 89 386 83 373 82 355 c 1
 8 367 l 1
230 85 m 0
 230 72 233 58 241 49 c 0
 246 43 254 40 263 40 c 0
 275 40 283 45 288 52 c 0
 295 61 297 74 297 85 c 0
 297 99 294 113 290 125 c 0
 282 148 269 168 263 182 c 1
 249 153 241 135 236 122 c 4
 231 107 230 98 230 85 c 0
EndSplineSet
EndChar
StartChar: hturn
Encoding: 613 613 586
Width: 517
Flags: MW
LayerCount: 2
Fore
SplineSet
80 157 m 2
 80 445 l 1
 158 445 l 1
 158 163 l 2
 158 122 163 88 190 68 c 0
 205 57 226 51 256 51 c 0xe8
 333 51 358 131 358 205 c 2
 358 227 l 1
 358 445 l 1
 436 445 l 1xf0
 436 -200 l 1
 361 -200 l 1
 361 30 l 5
 361 61 l 1
 346 44 303 -11 217 -11 c 0
 173 -11 143 0 123 18 c 0
 82 54 80 115 80 157 c 2
EndSplineSet
EndChar
StartChar: hhook
Encoding: 614 614 374
Width: 517
Flags: MW
LayerCount: 2
Fore
SplineSet
80 0 m 1
 80 507 l 1
 81 507 l 1
 81 534 l 2
 81 598 112 644 156 674 c 0
 198 703 252 717 303 717 c 0
 372 717 411 695 453 657 c 1
 430 595 l 1
 398 633 365 654 306 655 c 0
 305 655 303 655 302 655 c 0
 274 655 232 647 200 623 c 0
 175 604 157 576 157 533 c 2
 157 507 l 1
 155 507 l 1
 155 384 l 1
 164 395 174 404 184 413 c 0
 215 439 251 455 299 455 c 0
 339 455 368 445 388 430 c 4
 423 404 432 361 435 324 c 0
 436 311 436 299 436 288 c 2
 436 0 l 1
 358 0 l 1
 358 282 l 2
 358 312 356 347 333 370 c 0
 319 385 296 394 260 394 c 0
 217 394 190 369 175 335 c 0
 163 307 158 273 158 240 c 2
 158 0 l 1
 80 0 l 1
EndSplineSet
EndChar
StartChar: henghook
Encoding: 615 615 473
Width: 508
Flags: MW
LayerCount: 2
Fore
SplineSet
80 0 m 1
 80 507 l 1
 81 507 l 1
 81 534 l 2
 81 662 199 717 294 717 c 0
 372 717 409 683 436 657 c 1
 413 595 l 1
 397 615 368 653 301 655 c 0
 299 655 296 655 294 655 c 0
 246 655 157 631 157 533 c 2
 157 507 l 1
 155 507 l 1
 155 384 l 1
 191 426 235 455 299 455 c 0
 343 455 373 443 393 425 c 0
 435 388 436 324 436 287 c 2
 436 -57 l 2
 436 -107 418 -146 390 -173 c 4
 360 -202 319 -217 276 -217 c 0
 206 -217 175 -180 159 -163 c 1
 181 -100 l 1
 194 -120 219 -155 275 -155 c 0
 293 -155 317 -149 334 -130 c 0
 348 -114 358 -89 358 -51 c 2
 358 284 l 2
 358 321 353 353 330 373 c 0
 315 386 293 394 259 394 c 0
 234 394 200 382 179 342 c 0
 167 319 158 285 158 239 c 2
 158 0 l 1
 80 0 l 1
EndSplineSet
EndChar
StartChar: ibar
Encoding: 616 616 385
Width: 328
Flags: MW
LayerCount: 2
Fore
SplineSet
25 199 m 1xf4
 25 258 l 1
 125 258 l 1
 125 445 l 1
 200 445 l 1
 200 258 l 1
 300 258 l 1
 300 199 l 1
 200 199 l 1
 200 0 l 1
 125 0 l 1
 125 199 l 1
 25 199 l 1xf4
118 590 m 5
 118 679 l 5
 208 679 l 5
 208 590 l 5
 118 590 l 5
EndSplineSet
EndChar
StartChar: Ismallcap
Encoding: 618 618 597
Width: 191
Flags: MW
LayerCount: 2
Fore
SplineSet
56 0 m 1
 56 445 l 1
 134 445 l 1
 134 0 l 1
 56 0 l 1
EndSplineSet
EndChar
StartChar: lbelt
Encoding: 620 620 565
Width: 350
Flags: MW
LayerCount: 2
Fore
SplineSet
19 312 m 0
 19 343 31 378 58 404 c 0
 77 422 103 437 137 443 c 1
 137 695 l 1
 212 695 l 1
 212 274 l 1
 255 294 274 311 299 335 c 1
 339 289 l 1
 339 288 l 1
 307 258 267 227 212 212 c 1
 212 0 l 1
 137 0 l 1
 137 203 l 1
 136 204 83 207 48 240 c 0
 31 256 19 279 19 312 c 0
80 312 m 0
 80 301 83 285 94 274 c 4
 103 265 116 259 137 257 c 1
 137 380 l 1
 119 374 106 365 97 356 c 0
 85 343 80 328 80 312 c 0
EndSplineSet
EndChar
StartChar: lrthook
Encoding: 621 621 437
Width: 258
Flags: MW
LayerCount: 2
Fore
SplineSet
81 -52 m 2
 81 695 l 1
 156 695 l 1
 156 -40 l 1
 157 -74 l 2
 158 -91 163 -112 174 -129 c 0
 184 -144 199 -155 219 -155 c 0
 269 -155 286 -110 290 -100 c 1
 313 -162 l 1
 299 -183 275 -217 217 -217 c 0
 187 -217 149 -205 121 -174 c 4
 98 -148 81 -109 81 -52 c 2
EndSplineSet
EndChar
StartChar: lezh
Encoding: 622 622 354
Width: 526
Flags: MW
LayerCount: 2
Fore
SplineSet
81 0 m 1
 81 695 l 1
 156 695 l 1
 156 445 l 1
 491 445 l 1
 491 420 l 1
 489 403 l 1
 482 390 l 1
 334 185 l 1
 404 166 501 105 501 -2 c 0
 501 -52 480 -103 443 -142 c 0
 407 -179 355 -205 291 -205 c 0
 213 -205 147 -172 95 -122 c 1
 118 -58 l 1
 132 -73 140 -84 161 -100 c 0
 202 -131 252 -144 290 -144 c 0
 337 -144 369 -126 390 -101 c 0
 415 -72 423 -33 423 -4 c 0
 423 28 407 67 365 95 c 4
 332 117 283 132 212 133 c 0
 209 133 206 133 203 133 c 1
 382 380 l 1
 156 380 l 1
 156 0 l 1
 81 0 l 1
EndSplineSet
EndChar
StartChar: mturn
Encoding: 623 623 600
Width: 794
Flags: MW
LayerCount: 2
Fore
SplineSet
80 157 m 2
 80 445 l 1
 158 445 l 1
 158 163 l 2
 158 105 169 51 256 51 c 0
 332 51 358 130 358 204 c 2
 358 445 l 1
 436 445 l 1
 436 163 l 2
 436 105 446 51 533 51 c 0xf4
 610 51 636 130 636 205 c 0
 636 207 635 209 635 211 c 2
 635 445 l 1
 714 445 l 1xf8
 714 -5 l 1
 641 -5 l 1
 641 65 l 1
 627 47 582 -11 494 -11 c 0
 383 -11 371 70 367 71 c 1
 336 26 287 -11 217 -11 c 0
 82 -11 80 102 80 157 c 2
EndSplineSet
EndChar
StartChar: mhook
Encoding: 625 625 353
Width: 814
Flags: MW
LayerCount: 2
Fore
SplineSet
80 0 m 1xee
 80 450 l 1
 153 450 l 1
 153 405 l 1
 153 380 l 1
 161 390 180 414 211 432 c 0
 234 445 263 455 300 455 c 0
 340 455 367 444 386 431 c 0
 419 407 425 374 427 373 c 1
 441 394 462 416 489 432 c 0
 513 446 543 455 577 455 c 0
 620 455 650 444 670 427 c 0
 711 393 715 334 715 288 c 2
 715 -57 l 2
 715 -111 693 -151 662 -178 c 4
 632 -204 593 -217 555 -217 c 0
 479 -217 455 -179 436 -162 c 1
 459 -100 l 1
 474 -120 497 -155 553 -155 c 0
 570 -155 594 -150 611 -131 c 0
 626 -115 636 -90 636 -51 c 2
 636 278 l 2
 636 309 634 344 614 367 c 0
 600 383 577 394 538 394 c 0
 516 394 489 385 468 359 c 0
 457 345 448 326 442 300 c 0
 438 283 436 263 436 239 c 2
 436 214 l 1
 436 0 l 1
 358 0 l 1
 358 282 l 2
 358 317 354 351 331 372 c 0
 316 386 294 394 260 394 c 0xf6
 232 394 211 384 196 367 c 0
 182 352 173 333 167 311 c 0
 161 289 158 264 158 240 c 2
 158 0 l 1
 80 0 l 1xee
EndSplineSet
EndChar
StartChar: nhookleft
Encoding: 626 626 368
Width: 517
Flags: MW
LayerCount: 2
Fore
SplineSet
-61 -162 m 1
 -38 -100 l 1
 -32 -115 -17 -155 24 -155 c 0
 44 -155 58 -145 66 -131 c 0
 80 -109 81 -77 81 -60 c 0
 81 -54 80 -50 80 -50 c 1
 80 450 l 1
 153 450 l 1
 153 412 l 1
 154 383 l 1
 165 398 178 411 193 422 c 0
 223 444 259 455 298 455 c 0
 347 455 378 441 399 420 c 4
 433 385 437 331 437 287 c 2
 437 0 l 1
 359 0 l 1
 359 281 l 2
 359 318 355 355 327 376 c 0
 312 387 290 394 258 394 c 0
 238 394 217 388 199 371 c 0
 188 360 178 345 170 326 c 0
 161 304 156 275 156 239 c 2
 156 -65 l 1
 153 -65 l 1
 152 -116 134 -156 108 -182 c 0
 85 -205 57 -217 27 -217 c 0
 -26 -217 -48 -186 -61 -162 c 1
EndSplineSet
EndChar
StartChar: nrthook
Encoding: 627 627 570
Width: 536
Flags: MW
LayerCount: 2
Fore
SplineSet
80 0 m 1xec
 80 450 l 1
 153 450 l 1
 153 411 l 1
 153 380 l 1
 161 390 178 411 206 429 c 0
 229 443 260 455 299 455 c 0
 351 455 383 439 403 415 c 0
 435 377 436 322 436 287 c 2
 436 -56 l 2
 436 -102 449 -128 464 -142 c 0
 474 -151 486 -155 496 -155 c 0
 545 -155 562 -115 568 -100 c 1
 591 -162 l 1
 570 -194 543 -217 495 -217 c 0
 467 -217 430 -205 402 -177 c 4
 378 -153 360 -118 358 -68 c 0
 358 -67 358 -65 358 -64 c 0
 358 -62 358 -59 358 -57 c 2
 358 283 l 2xf4
 358 315 354 344 337 365 c 0
 323 383 299 394 259 394 c 0
 246 394 231 391 216 382 c 0
 201 373 188 360 177 338 c 0
 166 315 158 283 158 239 c 2
 158 0 l 1
 80 0 l 1xec
EndSplineSet
EndChar
StartChar: Nsmallcap
Encoding: 628 628 403
Width: 505
Flags: MW
LayerCount: 2
Fore
SplineSet
58 0 m 1
 58 445 l 1
 172 445 l 1
 369 70 l 1
 369 445 l 1
 447 445 l 1
 447 0 l 1
 333 0 l 1
 136 375 l 1
 136 0 l 1
 58 0 l 1
EndSplineSet
EndChar
StartChar: obar
Encoding: 629 629 353
Width: 500
Flags: MW
LayerCount: 2
Fore
SplineSet
30 221 m 0
 30 285 56 352 102 399 c 0
 139 436 189 461 249 461 c 0
 303 461 354 439 393 402 c 0
 439 358 469 293 469 220 c 0
 469 153 443 97 404 56 c 0
 363 14 307 -11 249 -11 c 0
 192 -11 137 13 96 54 c 4
 56 95 30 153 30 221 c 0
109 252 m 1
 390 252 l 1
 386 301 367 339 340 364 c 0
 315 387 284 399 249 399 c 0
 230 399 201 394 174 376 c 0
 157 365 141 349 129 326 c 0
 119 307 112 282 109 252 c 1
111 193 m 1
 113 160 128 123 153 96 c 0
 176 71 209 53 248 53 c 0
 288 53 319 68 342 92 c 0
 368 119 383 156 388 193 c 1
 111 193 l 1
EndSplineSet
EndChar
StartChar: OEsmallcap
Encoding: 630 630 480
Width: 686
Flags: MW
LayerCount: 2
Fore
SplineSet
18 220 m 0
 18 289 47 352 93 396 c 0
 134 436 189 460 249 460 c 0xae
 289 460 321 447 358 445 c 2
 639 445 l 1
 639 393 l 1
 582 393 l 1
 558 394 l 1
 407 394 l 1
 407 260 l 1
 620 260 l 1
 620 203 l 1
 407 203 l 1
 407 56 l 1
 506 56 l 1
 649 57 l 1
 649 0 l 1
 397 0 l 2x76
 297 -1 306 -15 249 -15 c 0
 187 -15 125 12 81 59 c 0
 43 100 18 155 18 220 c 0
94 230 m 0
 94 186 108 139 137 103 c 0
 164 69 204 46 256 46 c 0
 305 46 321 61 326 92 c 0
 328 105 328 122 328 141 c 2
 328 157 l 2
 328 170 328 185 329 201 c 2
 329 286 l 2
 327 362 331 398 257 398 c 0xae
 208 398 169 380 142 352 c 4
 110 320 94 275 94 230 c 0
EndSplineSet
EndChar
StartChar: philatin
Encoding: 632 632 481
Width: 611
Flags: MW
LayerCount: 2
Fore
SplineSet
46 245 m 0
 46 352 140 449 266 464 c 1
 266 695 l 1
 344 695 l 1
 344 464 l 1
 452 451 563 367 563 244 c 0
 563 138 471 40 344 25 c 1
 344 -195 l 1
 266 -195 l 1
 266 25 l 1
 265 25 l 2
 157 38 46 122 46 245 c 0
119 244 m 0
 119 158 184 99 266 87 c 1
 266 402 l 5
 266 402 l 1
 183 390 119 331 119 244 c 0
344 87 m 1
 426 100 490 159 490 245 c 0
 490 327 432 388 344 402 c 1
 344 87 l 1
EndSplineSet
EndChar
StartChar: rturn
Encoding: 633 633 429
Width: 342
Flags: MW
LayerCount: 2
Fore
SplineSet
14 -11 m 1
 14 57 l 1
 109 59 170 126 182 197 c 0
 184 211 184 225 184 239 c 2
 184 445 l 1xe0
 260 445 l 1xe0
 260 -5 l 1
 190 -5 l 1
 190 49 l 1xd0
 189 85 l 1
 156 35 99 -9 14 -11 c 1
EndSplineSet
EndChar
StartChar: rturnascend
Encoding: 634 634 401
Width: 342
Flags: MW
LayerCount: 2
Fore
SplineSet
14 -11 m 1
 14 57 l 1
 113 59 179 133 184 215 c 2
 184 639 l 1xc0
 260 639 l 1xc0
 260 -5 l 1
 190 -5 l 1
 190 49 l 1xa0
 189 85 l 1
 156 35 99 -9 14 -11 c 1
EndSplineSet
EndChar
StartChar: rturnrthook
Encoding: 635 635 436
Width: 342
Flags: MW
LayerCount: 2
Fore
SplineSet
14 -11 m 1
 14 57 l 1
 109 59 170 126 182 197 c 0
 184 211 184 225 184 239 c 2
 184 445 l 1
 260 445 l 1
 260 -51 l 2
 260 -61 260 -71 261 -80 c 0
 264 -110 282 -155 323 -155 c 0
 370 -155 387 -114 394 -100 c 1
 416 -162 l 1
 401 -185 378 -217 320 -217 c 0
 266 -217 184 -174 184 -55 c 2
 184 35 l 5
 184 77 l 1
 148 32 97 -9 14 -11 c 1
EndSplineSet
EndChar
StartChar: rrthook
Encoding: 637 637 524
Width: 342
Flags: MW
LayerCount: 2
Fore
SplineSet
81 -55 m 2xd0
 81 450 l 1
 151 450 l 1
 151 406 l 5
 151 360 l 1xe0
 185 409 242 454 327 455 c 1
 327 388 l 1
 223 385 168 309 159 245 c 0
 156 231 156 218 156 204 c 2
 156 -56 l 2xd0
 156 -133 200 -155 230 -155 c 0
 294 -155 311 -100 313 -100 c 1
 336 -162 l 1
 320 -182 293 -217 228 -217 c 0
 150 -217 81 -157 81 -55 c 2xd0
EndSplineSet
EndChar
StartChar: rfishhook
Encoding: 638 638 565
Width: 342
Flags: MW
LayerCount: 2
Fore
SplineSet
81 0 m 1
 81 319 l 1xe0
 86 319 l 1
 90 420 200 448 289 454 c 4
 302 455 315 455 327 455 c 1
 327 388 l 1xd0
 307 388 l 2
 253 388 169 385 158 332 c 0
 156 322 156 312 156 303 c 2
 156 0 l 1
 81 0 l 1
EndSplineSet
EndChar
StartChar: Rsmallcap
Encoding: 640 640 409
Width: 451
Flags: MW
LayerCount: 2
Fore
SplineSet
58 0 m 1
 58 445 l 1
 220 445 l 2
 276 445 318 433 347 414 c 0
 388 388 405 350 405 321 c 0
 405 285 387 259 366 240 c 0
 336 213 299 202 299 202 c 1
 424 0 l 1
 346 0 l 1
 233 192 l 1
 133 192 l 1
 133 0 l 1
 58 0 l 1
133 253 m 1
 220 253 l 2
 244 253 273 257 296 267 c 4
 318 277 335 294 335 321 c 0
 335 348 312 368 290 378 c 0
 264 388 237 389 209 389 c 2
 134 389 l 1
 133 338 l 1
 133 253 l 1
EndSplineSet
EndChar
StartChar: Rsmallcapinv
Encoding: 641 641 370
Width: 451
Flags: MW
LayerCount: 2
Fore
SplineSet
58 -0 m 1
 58 445 l 1
 133 445 l 1
 133 253 l 1
 233 253 l 1
 346 445 l 1
 424 445 l 1
 299 243 l 1
 328 234 352 220 369 203 c 4
 393 180 405 152 405 124 c 0
 405 93 387 53 340 27 c 0
 311 11 272 0 220 -0 c 2
 58 -0 l 1
133 56 m 1
 208 56 l 2
 232 56 257 56 281 64 c 0
 318 75 335 99 335 123 c 0
 335 147 319 170 289 181 c 0
 264 192 236 192 209 192 c 2
 134 192 l 1
 133 141 l 1
 133 56 l 1
EndSplineSet
EndChar
StartChar: esh
Encoding: 643 643 291
Width: 333
Flags: MW
LayerCount: 2
Fore
SplineSet
-27 -162 m 1
 -4 -100 l 1
 4 -120 21 -155 66 -155 c 0
 87 -155 103 -143 114 -126 c 0
 124 -110 129 -90 129 -69 c 2
 129 551 l 2
 129 617 150 659 179 684 c 4
 206 708 240 717 267 717 c 0
 304 717 330 706 361 675 c 1
 338 613 l 1
 331 624 310 655 268 655 c 0
 254 655 240 651 227 635 c 0
 203 606 206 573 205 556 c 2
 205 -51 l 2
 205 -67 205 -84 201 -100 c 0
 196 -122 186 -146 169 -167 c 0
 147 -195 113 -217 69 -217 c 0
 11 -217 -13 -183 -27 -162 c 1
EndSplineSet
EndChar
StartChar: dotlessjstrokehook
Encoding: 644 644 453
Width: 333
Flags: MW
LayerCount: 2
Fore
SplineSet
-41 -162 m 1
 -18 -100 l 1
 -7 -122 10 -155 60 -155 c 0
 102 -155 126 -115 129 -74 c 2
 129 190 l 1
 29 190 l 1
 29 249 l 1
 129 249 l 1
 129 509 l 2
 129 607 210 647 272 647 c 0
 334 647 358 616 375 596 c 1
 353 534 l 1
 340 555 323 586 273 586 c 0
 246 586 205 571 205 506 c 2
 205 249 l 1
 306 249 l 1
 306 190 l 1
 205 190 l 1
 205 -58 l 2
 205 -170 123 -217 62 -217 c 0
 0 -217 -25 -183 -41 -162 c 1
EndSplineSet
EndChar
StartChar: trthook
Encoding: 648 648 549
Width: 361
Flags: MW
LayerCount: 2
Fore
SplineSet
18 386 m 1
 18 445 l 1
 104 445 l 1
 104 571 l 1
 174 571 l 1
 174 445 l 1
 288 445 l 1
 288 386 l 1
 174 386 l 1
 174 -54 l 2
 174 -136 213 -155 238 -155 c 0
 294 -155 308 -100 309 -100 c 1
 332 -162 l 1
 319 -183 294 -217 236 -217 c 0
 182 -217 102 -175 102 -56 c 2
 102 386 l 1
 18 386 l 1
EndSplineSet
EndChar
StartChar: ubar
Encoding: 649 649 576
Width: 572
Flags: MW
LayerCount: 2
Fore
SplineSet
24 199 m 1
 24 258 l 1
 107 258 l 1
 107 445 l 1
 185 445 l 1
 185 258 l 1
 385 258 l 1
 385 445 l 1
 464 445 l 1
 464 258 l 1
 547 258 l 1
 547 199 l 1
 464 199 l 1
 464 -0 l 1
 388 -0 l 1
 388 48 l 1
 370 32 349 20 328 11 c 4
 290 -5 249 -11 212 -11 c 0
 170 -11 145 1 130 20 c 0
 109 46 107 84 107 117 c 2
 107 199 l 1
 24 199 l 1
185 115 m 2
 185 92 187 75 198 63 c 0
 209 51 230 45 267 45 c 0
 303 45 336 57 358 80 c 0
 375 98 385 122 385 153 c 2
 385 199 l 1
 186 199 l 1
 185 164 l 1
 185 115 l 2
EndSplineSet
EndChar
StartChar: upsilonlatin
Encoding: 650 650 392
Width: 556
Flags: MW
LayerCount: 2
Fore
SplineSet
55 375 m 1
 55 445 l 1
 213 445 l 1
 211 350 147 289 147 199 c 0
 147 113 199 39 277 39 c 0
 344 39 407 101 407 198 c 0
 407 287 343 351 341 445 c 1
 499 445 l 1
 499 375 l 1
 418 375 l 1
 447 306 485 267 485 196 c 0
 485 90 402 -22 277 -22 c 0
 156 -22 69 85 69 198 c 0
 69 264 108 309 136 375 c 1
 55 375 l 1
EndSplineSet
EndChar
StartChar: vhook
Encoding: 651 651 563
Width: 481
Flags: MW
LayerCount: 2
Fore
SplineSet
80 149 m 2
 80 450 l 1
 158 450 l 1
 158 144 l 2
 158 63 202 51 231 51 c 0
 307 51 357 143 357 258 c 0
 357 329 345 383 331 435 c 1
 406 455 l 1
 422 401 435 332 435 256 c 0
 435 123 353 -11 227 -11 c 0
 155 -11 80 21 80 149 c 2
EndSplineSet
EndChar
StartChar: vturn
Encoding: 652 652 354
Width: 461
Flags: MW
LayerCount: 2
Fore
SplineSet
14 0 m 1
 186 445 l 1
 274 445 l 1
 446 0 l 1
 369 0 l 1
 276 244 l 2
 240 348 234 363 229 394 c 1
 220 332 97 26 89 0 c 1
 14 0 l 1
EndSplineSet
EndChar
StartChar: wturn
Encoding: 653 653 585
Width: 683
Flags: MW
LayerCount: 2
Fore
SplineSet
14 0 m 1
 152 445 l 1
 238 445 l 1
 246 416 340 119 345 50 c 1
 349 129 446 420 452 445 c 1
 531 445 l 1
 669 0 l 1
 593 0 l 1
 576 48 489 339 486 394 c 1
 482 318 385 23 379 0 c 1
 309 0 l 1
 236 242 l 6
 233 253 202 363 198 394 c 1
 192 331 92 22 87 0 c 1
 14 0 l 1
EndSplineSet
EndChar
StartChar: yturn
Encoding: 654 654 370
Width: 461
Flags: MW
LayerCount: 2
Fore
SplineSet
14 0 m 1
 186 422 l 2
 206 476 222 524 239 561 c 0
 254 594 271 620 293 635 c 0
 307 645 324 650 344 650 c 2
 346 650 l 2
 365 650 395 648 419 642 c 1
 424 577 l 1
 392 587 368 593 350 593 c 0
 324 593 309 581 294 553 c 0
 283 532 272 501 257 460 c 0
 255 453 254 448 254 444 c 0
 254 439 256 435 260 426 c 2
 446 0 l 1
 368 0 l 1
 359 17 235 312 223 365 c 1
 216 332 94 19 89 0 c 1
 14 0 l 1
EndSplineSet
EndChar
StartChar: Ysmallcap
Encoding: 655 655 621
Width: 463
Flags: MW
LayerCount: 2
Fore
SplineSet
8 445 m 1
 100 445 l 1
 187 316 l 1
 233 248 l 1
 260 288 l 5
 365 445 l 1
 453 445 l 1
 278 190 l 2
 269 178 269 177 269 162 c 2
 269 -0 l 1
 193 -0 l 1
 193 178 l 1
 8 445 l 1
EndSplineSet
EndChar
StartChar: zrthook
Encoding: 656 656 573
Width: 435
Flags: MW
LayerCount: 2
Fore
SplineSet
27 0 m 1
 27 41 l 1
 293 386 l 1
 263 385 l 1
 41 385 l 1
 41 445 l 1
 398 445 l 1
 398 405 l 1
 133 62 l 1
 334 62 l 1
 355 63 l 1
 401 63 l 1
 401 -51 l 2
 401 -94 409 -120 419 -136 c 0
 428 -150 440 -155 450 -155 c 0
 488 -155 499 -112 503 -100 c 1
 521 -149 524 -156 524 -162 c 0
 524 -170 517 -185 504 -197 c 4
 492 -208 474 -217 450 -217 c 0
 422 -217 398 -204 380 -184 c 0
 359 -161 345 -127 340 -93 c 0
 338 -78 338 -62 338 -46 c 2
 338 0 l 1
 27 0 l 1
EndSplineSet
EndChar
StartChar: zcurl
Encoding: 657 657 609
Width: 490
Flags: MW
LayerCount: 2
Fore
SplineSet
27 0 m 1
 27 50 l 1
 287 383 l 1
 132 383 l 1
 108 382 l 1
 41 382 l 1
 41 445 l 1
 399 445 l 1
 399 418 l 1
 399 403 l 1
 390 391 l 1
 143 74 l 1
 246 74 l 1
 247 76 267 113 293 147 c 0
 310 170 331 192 348 200 c 0
 357 204 367 205 377 205 c 0
 432 205 482 166 482 108 c 0
 482 44 418 5 347 0 c 2
 278 0 l 1
 205 -146 l 1
 130 -146 l 1
 204 0 l 1
 27 0 l 1
318 74 m 1
 332 74 l 2
 358 74 407 76 407 109 c 0
 407 129 389 143 375 143 c 0
 368 143 361 139 354 131 c 4
 344 120 333 100 318 74 c 1
EndSplineSet
EndChar
StartChar: ezh
Encoding: 658 658 290
Width: 435
Flags: MW
LayerCount: 2
Fore
SplineSet
41 -122 m 1
 65 -58 l 1
 115 -136 192 -144 217 -144 c 0
 259 -144 288 -124 307 -94 c 0
 323 -69 331 -36 331 -4 c 0
 331 31 314 73 265 101 c 0
 233 120 188 132 125 133 c 2
 119 133 l 1
 291 380 l 1
 109 380 l 1
 75 380 l 1
 41 380 l 1
 41 445 l 1
 398 445 l 1
 398 420 l 1
 397 403 l 1
 390 390 l 1
 247 186 l 1
 283 175 313 159 337 140 c 4
 386 101 409 49 409 -1 c 0
 409 -52 391 -104 357 -142 c 0
 324 -180 276 -205 217 -205 c 0
 192 -205 112 -202 41 -122 c 1
EndSplineSet
EndChar
StartChar: glottalstop
Encoding: 660 660 373
Width: 500
Flags: MW
LayerCount: 2
Fore
SplineSet
55 649 m 1
 108 684 164 705 237 705 c 0
 401 705 444 602 444 523 c 0
 444 417 343 371 274 352 c 1
 274 0 l 1
 195 0 l 1
 195 399 l 1
 239 405 365 422 365 525 c 0
 365 620 303 644 236 644 c 0
 234 644 232 644 230 644 c 4
 170 643 125 623 78 585 c 1
 55 649 l 1
EndSplineSet
EndChar
StartChar: bilabialclick
Encoding: 664 664 587
Width: 736
Flags: MW
LayerCount: 2
Fore
SplineSet
326 347 m 0
 326 368 343 389 367 389 c 0
 392 389 409 369 409 347 c 0
 409 323 387 306 367 306 c 0
 346 306 326 323 326 347 c 0
EndSplineSet
Refer: 47 79 N 1 0 0 1 0 0 2
EndChar
StartChar: Bsmallcap
Encoding: 665 665 484
Width: 472
Flags: MW
LayerCount: 2
Fore
SplineSet
59 -0 m 1
 59 445 l 1
 221 445 l 2
 289 445 336 427 365 404 c 0
 394 381 406 353 406 330 c 0
 406 259 301 233 301 233 c 1
 349 224 425 189 425 123 c 0
 425 94 409 57 367 31 c 0
 338 13 296 -0 239 -0 c 2
 59 -0 l 1
132 56 m 1
 210 56 l 2
 242 56 304 55 340 91 c 0
 357 108 353 117 355 125 c 1
 354 138 345 166 305 184 c 0
 284 193 256 200 215 200 c 2
 132 200 l 1
 132 150 l 1
 132 56 l 1
132 262 m 1
 202 262 l 2
 262 262 296 275 315 289 c 4
 338 307 339 327 339 327 c 1
 338 338 339 358 290 376 c 0
 250 391 214 387 195 389 c 2
 132 389 l 1
 132 340 l 1
 132 262 l 1
EndSplineSet
EndChar
StartChar: Hsmallcap
Encoding: 668 668 412
Width: 505
Flags: MW
LayerCount: 2
Fore
SplineSet
56 0 m 1
 56 445 l 1
 134 445 l 1
 134 260 l 1
 369 260 l 1
 369 445 l 1
 447 445 l 1
 447 0 l 1
 369 0 l 1
 369 203 l 1
 134 203 l 1
 134 0 l 1
 56 0 l 1
EndSplineSet
EndChar
StartChar: jcrossedtail
Encoding: 669 669 366
Width: 331
Flags: MW
LayerCount: 2
Fore
SplineSet
-34 -87 m 0
 -34 -20 20 25 75 30 c 2
 101 31 l 1
 137 31 l 1
 137 445 l 1
 212 445 l 1
 212 31 l 1
 314 31 l 1
 314 -30 l 1
 212 -30 l 1
 212 -39 213 -47 213 -55 c 0
 213 -167 138 -205 88 -205 c 0
 30 -205 -34 -159 -34 -87 c 0
27 -87 m 0
 27 -102 33 -115 42 -124 c 0
 53 -135 67 -141 82 -141 c 0
 94 -141 110 -136 122 -121 c 4
 131 -110 137 -94 137 -71 c 0xfa
 137 -30 l 1
 101 -30 l 2
 87 -30 65 -30 49 -43 c 0
 43 -48 37 -55 33 -64 c 0
 29 -71 27 -79 27 -87 c 0
123 591 m 1
 123 680 l 1
 213 680 l 1
 213 591 l 1
 123 591 l 1
EndSplineSet
EndChar
StartChar: Lsmallcap
Encoding: 671 671 486
Width: 372
Flags: MW
LayerCount: 2
Fore
SplineSet
56 0 m 1
 56 445 l 1
 134 445 l 1
 134 50 l 1
 168 51 l 1
 196 51 l 1
 290 51 l 5
 335 51 l 1
 335 0 l 1
 56 0 l 1
EndSplineSet
EndChar
StartChar: glottalstopstrokereversed
Encoding: 674 674 468
Width: 500
Flags: MW
LayerCount: 2
Fore
SplineSet
55 523 m 0
 55 603 98 705 262 705 c 0
 330 705 387 687 444 649 c 1
 420 585 l 1
 372 624 326 644 263 644 c 0
 169 644 133 596 133 525 c 0
 133 408 303 400 303 399 c 2
 303 245 l 1
 442 245 l 1
 442 186 l 1
 303 186 l 1
 303 -0 l 1
 225 -0 l 1
 225 186 l 1
 86 186 l 1
 86 245 l 1
 225 245 l 1
 225 352 l 1
 155 371 55 418 55 523 c 0
EndSplineSet
EndChar
StartChar: hsuper
Encoding: 688 688 487
Width: 258
VWidth: 870
Flags: MW
LayerCount: 2
Fore
SplineSet
40 370 m 1
 40 732 l 1
 78 732 l 1
 78 579 l 1
 78 562 l 1
 93 582 117 598 149 598 c 0
 213 598 218 550 218 514 c 2
 218 370 l 1
 179 370 l 1
 179 511 l 2
 179 541 173 567 131 567 c 0
 114 567 100 560 90 542 c 4
 83 529 79 512 79 487 c 2
 79 370 l 1
 40 370 l 1
EndSplineSet
EndChar
StartChar: jsuper
Encoding: 690 690 415
Width: 133
VWidth: 870
Flags: MW
LayerCount: 2
Fore
SplineSet
-30 285 m 1
 -23 315 l 1
 -10 306 0 300 16 300 c 0
 32 300 55 307 55 338 c 2
 55 593 l 1
 93 593 l 1
 93 346 l 2xd0
 93 284 54 268 29 268 c 0
 11 268 -10 273 -30 285 c 1
48 665 m 1xe0
 48 710 l 1
 93 710 l 1
 93 665 l 1
 48 665 l 1xe0
EndSplineSet
EndChar
StartChar: wsuper
Encoding: 695 695 580
Width: 341
Flags: MW
LayerCount: 2
Fore
SplineSet
7 592 m 1
 45 592 l 1
 91 445 96 413 98 395 c 1
 100 432 149 580 152 592 c 1
 187 592 l 1
 197 560 238 428 242 395 c 1
 246 430 293 572 298 592 c 1
 334 592 l 1
 265 370 l 1
 222 370 l 1
 199 448 173 527 169 567 c 1
 167 527 118 381 115 370 c 1
 76 370 l 1
 7 592 l 1
EndSplineSet
EndChar
StartChar: apostrophemod
Encoding: 700 700 96
Width: 278
Flags: MW
LayerCount: 2
Fore
SplineSet
96 639 m 1
 96 723 l 1
 180 723 l 1
 180 653 l 1
 179 639 l 1
 138 514 l 1
 96 514 l 1
 122 639 l 1
 96 639 l 1
EndSplineSet
EndChar
StartChar: glottalstopreversedmod
Encoding: 705 705 609
Width: 444
Flags: MW
LayerCount: 2
Fore
SplineSet
55 607 m 0
 55 642 66 694 110 727 c 0
 137 747 177 761 234 761 c 0
 292 761 341 746 388 720 c 1
 365 657 l 1
 327 682 293 697 248 700 c 0
 243 700 239 700 234 700 c 0
 204 700 177 695 159 679 c 0
 143 665 133 642 133 608 c 0
 133 577 149 555 171 541 c 4
 213 513 273 511 274 510 c 1
 274 355 l 1
 196 355 l 1
 196 464 l 1
 139 479 55 519 55 607 c 0
EndSplineSet
EndChar
StartChar: circumflex
Encoding: 710 710 107
Width: 500
Flags: MW
LayerCount: 2
Fore
SplineSet
94 509 m 1
 219 650 l 1
 280 650 l 1
 405 509 l 1
 344 509 l 1
 249 608 l 1
 155 509 l 1
 94 509 l 1
EndSplineSet
EndChar
StartChar: caron
Encoding: 711 711 251
Width: 500
Flags: MW
LayerCount: 2
Fore
SplineSet
88 639 m 1
 150 639 l 1
 250 571 l 1
 349 639 l 1
 384 639 l 1
 411 638 l 1
 281 545 285 545 268 545 c 2
 232 545 l 2
 212 545 186 568 88 639 c 1
EndSplineSet
EndChar
StartChar: verticallinemod
Encoding: 712 712 612
Width: 222
Flags: MW
LayerCount: 2
Fore
SplineSet
80 473 m 1
 80 695 l 1
 141 695 l 1
 141 473 l 1
 80 473 l 1
EndSplineSet
EndChar
StartChar: length
Encoding: 720 720 292
Width: 278
Flags: MW
LayerCount: 2
Fore
SplineSet
55 0 m 1
 138 171 l 1
 139 171 l 1
 221 0 l 1
 55 0 l 1
EndSplineSet
Refer: 495 721 S 1 0 0 1 0 0 2
EndChar
StartChar: halflength
Encoding: 721 721 586
Width: 278
Flags: MW
LayerCount: 2
Fore
SplineSet
55 445 m 1
 221 445 l 1
 139 273 l 1
 138 273 l 1
 55 445 l 1
EndSplineSet
EndChar
StartChar: breve
Encoding: 728 728 457
Width: 500
Flags: MW
LayerCount: 2
Fore
SplineSet
80 639 m 1
 141 639 l 1
 147 573 223 565 250 565 c 0
 276 565 352 573 357 639 c 1
 419 639 l 1
 415 546 330 498 249 498 c 0
 168 498 83 547 80 639 c 1
EndSplineSet
EndChar
StartChar: dotaccent
Encoding: 729 729 284
Width: 278
Flags: MW
LayerCount: 2
Fore
SplineSet
108 590 m 1
 108 679 l 1
 198 679 l 1
 198 590 l 1
 108 590 l 1
EndSplineSet
EndChar
StartChar: ogonek
Encoding: 731 731 465
Width: 278
Flags: MW
LayerCount: 2
Fore
SplineSet
-29 -131 m 0
 -29 -67 63 -11 89 7 c 2
 119 30 l 1
 139 48 l 1
 166 -0 l 1
 127 -36 76 -63 59 -95 c 0
 56 -102 54 -109 54 -116 c 0
 54 -119 54 -122 55 -126 c 1
 57 -129 60 -132 65 -135 c 4
 70 -138 76 -140 86 -140 c 0
 125 -140 153 -93 155 -91 c 1
 206 -126 l 1
 172 -182 127 -214 74 -214 c 0
 23 -214 -29 -180 -29 -131 c 0
EndSplineSet
EndChar
StartChar: tilde
Encoding: 732 732 99
Width: 500
Flags: MW
LayerCount: 2
Fore
SplineSet
83 529 m 1x58
 85 596 131 638 181 638 c 0x38
 233 638 271 590 314 590 c 0
 341 590 354 613 355 639 c 1
 416 639 l 1
 414 573 369 529 318 529 c 0x58
 267 529 228 577 185 577 c 0x38
 169 577 148 568 144 529 c 1x98
 83 529 l 1x58
EndSplineSet
EndChar
StartChar: rhotichook
Encoding: 734 734 615
Width: 333
Flags: MW
LayerCount: 2
Fore
SplineSet
-23 341 m 1
 -23 342 l 1
 -23 341 62 442 65 447 c 1
 66 450 69 464 78 473 c 0
 84 479 92 483 105 483 c 0
 122 483 144 475 144 438 c 2
 144 416 l 2
 144 385 142 332 161 302 c 4
 169 289 181 281 198 281 c 0
 247 281 252 332 252 332 c 1
 330 332 l 1
 328 311 326 297 315 280 c 0
 292 241 246 220 200 220 c 0
 156 220 126 242 106 268 c 0
 77 307 70 356 70 356 c 1
 24 302 l 1
 -23 341 l 1
EndSplineSet
EndChar
StartChar: gammasuper
Encoding: 736 736 582
Width: 230
VWidth: 870
Flags: MW
LayerCount: 2
Fore
SplineSet
7 593 m 1
 46 593 l 5
 54 571 111 440 116 413 c 1
 121 441 183 586 186 593 c 1
 223 593 l 1
 137 388 l 1
 148 375 172 352 172 321 c 0
 172 292 150 262 115 262 c 0
 81 262 60 293 60 321 c 0
 60 347 75 363 93 387 c 1
 7 593 l 1
94 320 m 0
 94 312 97 305 101 300 c 0
 105 296 109 293 115 293 c 0
 117 293 119 293 121 294 c 4
 131 297 137 308 137 321 c 0
 137 338 126 354 115 367 c 1
 106 355 94 338 94 320 c 0
EndSplineSet
EndChar
StartChar: lsuper
Encoding: 737 737 419
Width: 119
VWidth: 870
Flags: MW
LayerCount: 2
Fore
SplineSet
40 370 m 1
 40 732 l 1
 78 732 l 1
 78 370 l 1
 40 370 l 1
EndSplineSet
EndChar
StartChar: toneextrahigh
Encoding: 741 741 679
Width: 333
Flags: MW
LayerCount: 2
Fore
SplineSet
-38 677 m 4
 -38 692 -30 716 8 716 c 6
 323 716 l 6
 367 716 371 688 371 677 c 4
 371 662 363 638 324 638 c 6
 8 638 l 6
 -33 638 -38 666 -38 677 c 4
293 -22 m 5
 293 717 l 5
 371 717 l 5
 371 -22 l 5
 293 -22 l 5
EndSplineSet
EndChar
StartChar: tonehigh
Encoding: 742 742 680
Width: 333
Flags: MW
LayerCount: 2
Fore
SplineSet
-38 512 m 4
 -38 527 -30 551 8 551 c 6
 323 551 l 6
 367 551 371 523 371 512 c 4
 371 497 363 473 324 473 c 6
 8 473 l 6
 -33 473 -38 501 -38 512 c 4
293 -22 m 5
 293 717 l 5
 371 717 l 5
 371 -22 l 5
 293 -22 l 5
EndSplineSet
EndChar
StartChar: tonemid
Encoding: 743 743 600
Width: 333
Flags: MW
LayerCount: 2
Fore
SplineSet
-38 347 m 4
 -38 362 -30 386 8 386 c 6
 323 386 l 6
 367 386 371 358 371 347 c 4
 371 332 363 308 324 308 c 6
 8 308 l 6
 -33 308 -38 336 -38 347 c 4
293 -22 m 5
 293 717 l 5
 371 717 l 5
 371 -22 l 5
 293 -22 l 5
EndSplineSet
EndChar
StartChar: tonelow
Encoding: 744 744 429
Width: 333
Flags: MW
LayerCount: 2
Fore
SplineSet
-38 182 m 4
 -38 197 -30 221 8 221 c 6
 323 221 l 6
 367 221 371 193 371 182 c 4
 371 167 363 143 324 143 c 6
 8 143 l 6
 -33 143 -38 171 -38 182 c 4
293 -22 m 5
 293 717 l 5
 371 717 l 5
 371 -22 l 5
 293 -22 l 5
EndSplineSet
EndChar
StartChar: toneextralow
Encoding: 745 745 682
Width: 333
Flags: MW
LayerCount: 2
Fore
SplineSet
-38 16 m 4
 -38 31 -30 55 8 55 c 6
 323 55 l 6
 367 55 371 27 371 16 c 4
 371 1 363 -23 324 -23 c 6
 8 -23 l 6
 -33 -23 -38 5 -38 16 c 4
293 -22 m 5
 293 717 l 5
 371 717 l 5
 371 -22 l 5
 293 -22 l 5
EndSplineSet
EndChar
StartChar: dblgravecmb
Encoding: 783 783 677
Width: 0
Flags: MW
LayerCount: 2
Fore
SplineSet
-417 695 m 1
 -339 695 l 1
 -275 528 l 1
 -337 528 l 1
 -417 695 l 1
-251 695 m 1
 -172 695 l 1
 -109 528 l 1
 -170 528 l 1
 -251 695 l 1
EndSplineSet
EndChar
StartChar: lefttackbelowcmb
Encoding: 792 792 618
Width: 0
VWidth: 660
Flags: MW
LayerCount: 2
Fore
SplineSet
-334 -214 m 5
 -334 -152 l 5
 -198 -152 l 5
 -198 -57 l 5
 -137 -57 l 5
 -137 -309 l 5
 -198 -309 l 5
 -198 -214 l 5
 -334 -214 l 5
EndSplineSet
EndChar
StartChar: righttackbelowcmb
Encoding: 793 793 649
Width: 0
VWidth: 660
Flags: MW
LayerCount: 2
Fore
SplineSet
-309 -309 m 5
 -309 -57 l 5
 -248 -57 l 5
 -248 -152 l 5
 -112 -152 l 5
 -112 -214 l 5
 -248 -214 l 5
 -248 -309 l 5
 -309 -309 l 5
EndSplineSet
EndChar
StartChar: leftangleabovecmb
Encoding: 794 794 706
Width: 0
VWidth: 1134
Flags: MW
LayerCount: 2
Fore
SplineSet
-279 745 m 5
 -279 806 l 5
 -57 806 l 5
 -57 584 l 5
 -118 584 l 5
 -118 745 l 5
 -279 745 l 5
EndSplineSet
EndChar
StartChar: ringhalfleftbelowcmb
Encoding: 796 796 688
Width: 0
VWidth: 660
Flags: MW
LayerCount: 2
Fore
SplineSet
-253 -198 m 4
 -253 -132 -200 -59 -99 -57 c 5
 -99 -118 l 5
 -174 -122 -191 -173 -191 -198 c 4
 -191 -230 -167 -275 -99 -279 c 5
 -99 -340 l 5
 -187 -338 -253 -278 -253 -198 c 4
EndSplineSet
EndChar
StartChar: uptackbelowcmb
Encoding: 797 797 451
Width: 0
VWidth: 660
Flags: MW
LayerCount: 2
Fore
SplineSet
-349 -254 m 5
 -349 -192 l 5
 -254 -192 l 5
 -254 -57 l 5
 -192 -57 l 5
 -192 -192 l 5
 -97 -192 l 5
 -97 -254 l 5
 -349 -254 l 5
EndSplineSet
EndChar
StartChar: downtackbelowcmb
Encoding: 798 798 526
Width: 0
VWidth: 660
Flags: MW
LayerCount: 2
Fore
SplineSet
-349 -118 m 5
 -349 -57 l 5
 -97 -57 l 5
 -97 -118 l 5
 -192 -118 l 5
 -192 -254 l 5
 -254 -254 l 5
 -254 -118 l 5
 -349 -118 l 5
EndSplineSet
EndChar
StartChar: plusbelowcmb
Encoding: 799 799 689
Width: 0
VWidth: 660
Flags: MW
LayerCount: 2
Fore
SplineSet
-364 -229 m 5
 -364 -168 l 5
 -253 -168 l 5
 -253 -57 l 5
 -192 -57 l 5
 -192 -168 l 5
 -81 -168 l 5
 -81 -229 l 5
 -192 -229 l 5
 -192 -340 l 5
 -253 -340 l 5
 -253 -229 l 5
 -364 -229 l 5
EndSplineSet
EndChar
StartChar: bridgebelowcmb
Encoding: 810 810 455
Width: 0
Flags: MW
LayerCount: 2
Fore
SplineSet
-420 -111 m 1xb0
 -81 -111 l 1
 -81 -295 l 1
 -143 -295 l 1xb0
 -143 -173 l 1
 -359 -173 l 1x70
 -359 -295 l 1
 -420 -295 l 1
 -420 -111 l 1xb0
EndSplineSet
EndChar
StartChar: breveinvertedbelowcmb
Encoding: 815 815 520
Width: 0
VWidth: 220
Flags: MW
LayerCount: 2
Fore
SplineSet
-920 -269 m 5
 -917 -177 -831 -129 -751 -129 c 4
 -669 -129 -585 -177 -581 -269 c 5
 -643 -269 l 5
 -648 -204 -725 -196 -750 -196 c 4
 -777 -196 -853 -204 -859 -269 c 5
 -920 -269 l 5
EndSplineSet
EndChar
StartChar: macronbelowcmb
Encoding: 817 817 691
Width: 0
VWidth: 800
Flags: MW
LayerCount: 2
Fore
SplineSet
-371 -200 m 0
 -371 -185 -363 -161 -325 -161 c 2
 -10 -161 l 2
 34 -161 38 -189 38 -200 c 0
 38 -215 30 -239 -9 -239 c 2
 -325 -239 l 2
 -366 -239 -371 -211 -371 -200 c 0
EndSplineSet
EndChar
StartChar: bridgeinvertedbelowcmb
Encoding: 826 826 456
Width: 0
Flags: MW
LayerCount: 2
Fore
SplineSet
-420 -111 m 1x70
 -359 -111 l 1x70
 -359 -234 l 1
 -143 -234 l 1xb0
 -143 -111 l 1
 -81 -111 l 1
 -81 -295 l 1
 -420 -295 l 1
 -420 -111 l 1x70
EndSplineSet
EndChar
StartChar: squarebelowcmb
Encoding: 827 827 622
Width: 0
Flags: MW
LayerCount: 2
Fore
SplineSet
-420 -111 m 1
 -81 -111 l 1
 -81 -325 l 1
 -420 -325 l 1
 -420 -111 l 1
-359 -173 m 5
 -359 -264 l 1
 -143 -264 l 1
 -143 -173 l 1
 -359 -173 l 5
EndSplineSet
EndChar
StartChar: seagullbelowcmb
Encoding: 828 828 523
Width: 0
Flags: MW
LayerCount: 2
Fore
SplineSet
-460 -234 m 1
 -448 -186 -421 -101 -341 -101 c 0
 -298 -101 -270 -123 -250 -145 c 1
 -231 -123 -202 -101 -159 -101 c 0
 -64 -101 -42 -229 -40 -234 c 1
 -94 -264 l 1
 -99 -241 -109 -162 -158 -162 c 0
 -220 -162 -219 -239 -223 -247 c 0
 -228 -257 -239 -264 -250 -264 c 0
 -282 -264 -281 -230 -282 -224 c 0
 -285 -191 -310 -162 -342 -162 c 0
 -388 -162 -398 -224 -407 -264 c 1
 -460 -234 l 1
EndSplineSet
EndChar
StartChar: xabovecmb
Encoding: 829 829 609
Width: 0
VWidth: 1134
Flags: MW
LayerCount: 2
Fore
SplineSet
-405 648 m 5
 -314 699 l 5
 -405 750 l 5
 -379 806 l 5
 -250 734 l 5
 -122 806 l 5
 -96 750 l 5
 -188 699 l 5
 -96 648 l 5
 -122 592 l 5
 -251 664 l 5
 -379 592 l 5
 -405 648 l 5
EndSplineSet
EndChar
StartChar: tonos
Encoding: 900 900 497
Width: 167
Flags: MW
LayerCount: 2
Fore
SplineSet
-8 495 m 5
 83 694 l 5
 162 694 l 5
 53 495 l 5
 -8 495 l 5
EndSplineSet
EndChar
StartChar: iotadieresistonos
Encoding: 912 912 399
Width: 264
Flags: MW
LayerCount: 2
Fore
SplineSet
23 495 m 1
 114 694 l 1
 193 694 l 1
 84 495 l 1
 23 495 l 1
-39 507 m 1
 -39 569 l 1
 22 569 l 1
 22 507 l 1
 -39 507 l 1
152 507 m 1
 152 569 l 1
 214 569 l 1
 214 507 l 1
 152 507 l 1
EndSplineSet
Refer: 239 953 N 1 0 0 1 0 0 2
EndChar
StartChar: Gamma
Encoding: 915 915 207
Width: 542
Flags: MW
LayerCount: 2
Fore
SplineSet
94 0 m 1
 94 691 l 1
 499 691 l 1
 499 625 l 1
 184 627 l 1
 184 0 l 1
 94 0 l 1
EndSplineSet
EndChar
StartChar: Delta
Encoding: 916 916 210
Width: 833
Flags: MW
LayerCount: 2
Fore
SplineSet
41 -0 m 1
 370 694 l 1
 461 694 l 1
 790 -0 l 1
 41 -0 l 1
158 84 m 1
 651 84 l 2
 651 84 426 584 405 624 c 5
 158 84 l 1
EndSplineSet
EndChar
StartChar: Theta
Encoding: 920 920 230
Width: 778
Flags: MW
LayerCount: 2
Fore
SplineSet
55 345 m 0
 55 545 200 716 389 716 c 0
 565 716 721 557 721 345 c 0
 721 143 574 -22 388 -22 c 0
 212 -22 55 133 55 345 c 0
139 345 m 0
 139 165 253 41 388 41 c 0
 514 41 637 155 637 345 c 0
 637 523 526 655 388 655 c 0
 260 655 139 533 139 345 c 0
195 306 m 1
 195 390 l 1
 581 390 l 1
 581 306 l 1
 195 306 l 1
EndSplineSet
EndChar
StartChar: Lambda
Encoding: 923 923 233
Width: 611
Flags: MW
LayerCount: 2
Fore
SplineSet
27 -0 m 1
 261 694 l 1
 348 694 l 1
 582 -0 l 1
 487 -0 l 1
 294 624 l 1
 101 -0 l 1
 27 -0 l 1
EndSplineSet
EndChar
StartChar: Xi
Encoding: 926 926 220
Width: 667
Flags: MW
LayerCount: 2
Fore
SplineSet
41 -0 m 1
 41 75 l 1
 623 75 l 1
 623 -0 l 1
 41 -0 l 1
46 614 m 1
 46 689 l 1
 618 689 l 1
 618 614 l 1
 46 614 l 1
110 321 m 1
 110 395 l 1
 554 395 l 1
 554 321 l 1
 110 321 l 1
EndSplineSet
EndChar
StartChar: Pi
Encoding: 928 928 220
Width: 708
Flags: MW
LayerCount: 2
Fore
SplineSet
94 0 m 1
 94 691 l 1
 614 691 l 1
 614 0 l 1
 524 0 l 1
 524 630 l 1
 184 630 l 1
 184 0 l 1
 94 0 l 1
EndSplineSet
EndChar
StartChar: Sigma
Encoding: 931 931 240
Width: 722
Flags: MW
LayerCount: 2
Fore
SplineSet
55 -0 m 5
 287 335 l 5
 55 629 l 1
 55 694 l 1
 666 694 l 1
 666 628 l 1
 169 630 l 1
 391 346 l 1
 199 70 l 1
 666 71 l 1
 666 -0 l 1
 55 -0 l 5
EndSplineSet
EndChar
StartChar: Upsilon
Encoding: 933 933 241
Width: 778
Flags: MW
LayerCount: 2
Fore
SplineSet
55 555 m 1
 57 650 128 716 214 716 c 0
 374 716 385 494 389 492 c 1
 395 547 423 716 562 716 c 0
 649 716 719 649 721 555 c 1
 643 555 l 1
 640 613 606 649 561 649 c 0
 439 649 433 471 433 366 c 2
 433 -0 l 1
 344 -0 l 1
 344 365 l 2
 344 470 338 649 216 649 c 0
 167 649 136 608 133 555 c 1
 55 555 l 1
EndSplineSet
EndChar
StartChar: Phi
Encoding: 934 934 242
Width: 722
Flags: MW
LayerCount: 2
Fore
SplineSet
55 347 m 0
 55 470 172 573 316 587 c 1
 316 694 l 1
 400 694 l 1
 400 588 l 1
 548 566 666 469 666 347 c 0
 666 272 611 133 400 106 c 1
 400 -0 l 1
 316 -0 l 1
 316 107 l 1
 185 120 55 214 55 347 c 0
142 347 m 0
 142 302 165 192 316 169 c 1
 316 525 l 1
 205 508 142 435 142 347 c 0
400 168 m 1
 562 195 579 305 579 347 c 0
 579 390 563 498 400 526 c 1
 400 168 l 1
EndSplineSet
EndChar
StartChar: Psi
Encoding: 936 936 245
Width: 778
Flags: MW
LayerCount: 2
Fore
SplineSet
55 552 m 1
 55 614 l 1
 128 614 l 2
 154 614 181 612 197 560 c 0
 208 524 208 485 208 446 c 2
 208 429 l 2
 208 374 210 317 237 261 c 0
 261 212 295 185 344 171 c 1
 344 694 l 1
 428 694 l 1
 428 170 l 1
 450 177 496 191 529 244 c 0
 551 279 568 331 568 409 c 2
 568 436 l 2
 568 514 576 557 589 582 c 0
 605 614 629 614 654 614 c 2
 721 614 l 1
 721 552 l 1
 689 549 672 531 663 504 c 0
 649 461 654 398 648 348 c 0
 640 282 617 218 569 172 c 0
 535 140 490 116 428 107 c 1
 428 0 l 1
 344 0 l 1
 344 107 l 1
 343 107 l 2
 316 111 251 122 199 179 c 4
 165 216 136 272 127 357 c 0
 122 400 128 463 112 506 c 0
 103 531 85 549 55 552 c 1
EndSplineSet
EndChar
StartChar: Omega
Encoding: 937 937 228
Width: 722
Flags: MW
LayerCount: 2
Fore
SplineSet
44 0 m 1
 44 71 l 1
 218 70 l 1
 177 212 55 319 55 462 c 0
 55 598 185 716 360 716 c 0
 534 716 666 599 666 462 c 0
 666 317 544 215 503 70 c 1
 677 71 l 1
 677 0 l 1
 432 0 l 1
 434 170 576 299 576 461 c 0
 576 577 477 655 361 655 c 0
 238 655 144 572 144 461 c 0
 144 299 287 169 289 0 c 1
 44 0 l 1
EndSplineSet
EndChar
StartChar: alphatonos
Encoding: 940 940 303
Width: 633
Flags: MW
LayerCount: 2
Fore
SplineSet
230 495 m 5
 321 694 l 5
 400 694 l 5
 291 495 l 5
 230 495 l 5
EndSplineSet
Refer: 229 945 S 1 0 0 1 0 0 2
EndChar
StartChar: epsilontonos
Encoding: 941 941 412
Width: 430
Flags: MW
LayerCount: 2
Fore
SplineSet
150 495 m 5
 241 694 l 5
 320 694 l 5
 211 495 l 5
 150 495 l 5
EndSplineSet
Refer: 250 949 S 1 0 0 1 0 0 2
EndChar
StartChar: etatonos
Encoding: 942 942 396
Width: 514
Flags: MW
LayerCount: 2
Fore
SplineSet
233 495 m 5
 324 694 l 5
 403 694 l 5
 294 495 l 5
 233 495 l 5
EndSplineSet
Refer: 237 951 S 1 0 0 1 0 0 2
EndChar
StartChar: iotatonos
Encoding: 943 943 415
Width: 264
Flags: MW
LayerCount: 2
Fore
SplineSet
23 495 m 5
 114 694 l 5
 193 694 l 5
 84 495 l 5
 23 495 l 5
EndSplineSet
Refer: 255 953 S 1 0 0 1 0 0 2
EndChar
StartChar: upsilondieresistonos
Encoding: 944 944 377
Width: 500
Flags: MW
LayerCount: 2
Fore
SplineSet
176 495 m 1
 267 694 l 1
 346 694 l 1
 237 495 l 1
 176 495 l 1
114 507 m 1
 114 569 l 1
 175 569 l 1
 175 507 l 1
 114 507 l 1
305 507 m 1
 305 569 l 1
 367 569 l 1
 367 507 l 1
 305 507 l 1
EndSplineSet
Refer: 248 965 N 1 0 0 1 0 0 2
EndChar
StartChar: alpha
Encoding: 945 945 246
Width: 633
Flags: MW
LayerCount: 2
Fore
SplineSet
41 222 m 0
 41 339 114 455 229 455 c 0
 333 455 381 343 402 287 c 1
 459 455 l 1
 537 455 l 1
 527 421 465 229 436 179 c 1
 455 121 480 65 509 65 c 0
 517 65 529 67 533 89 c 1
 611 89 l 1
 608 23 557 -11 509 -11 c 0xb0
 435 -11 399 59 385 90 c 1
 362 56 308 -11 227 -11 c 0x70
 133 -11 41 83 41 222 c 0
119 223 m 0
 119 99 183 64 226 64 c 0x70
 299 64 352 170 352 181 c 1
 333 261 305 380 226 380 c 4
 180 380 119 341 119 223 c 0
EndSplineSet
EndChar
StartChar: beta
Encoding: 946 946 230
Width: 500
Flags: MW
LayerCount: 2
Fore
SplineSet
41 -139 m 1
 41 452 l 2
 41 595 42 733 224 733 c 0
 325 733 407 697 407 553 c 0xf8
 407 468 348 432 315 412 c 1
 425 382 457 294 457 205 c 0xf4
 457 74 354 -11 251 -11 c 0
 189 -11 148 21 119 63 c 1
 119 -139 l 1
 41 -139 l 1
119 218 m 2
 119 136 150 48 249 48 c 4
 319 48 379 112 379 205 c 0xf4
 379 389 205 376 167 378 c 1
 167 429 l 1
 250 431 329 468 329 555 c 0xf8
 329 649 287 680 225 680 c 0
 122 680 120 597 119 498 c 2
 119 218 l 2
EndSplineSet
EndChar
StartChar: gamma
Encoding: 947 947 233
Width: 555
Flags: MW
LayerCount: 2
Fore
SplineSet
27 351 m 1
 29 420 84 455 130 455 c 0
 193 455 229 388 287 203 c 1
 375 408 438 453 513 455 c 1
 513 377 l 1
 456 375 422 338 378 238 c 0
 330 131 319 65 319 56 c 0
 319 55 320 48 321 36 c 0
 325 6 332 -53 332 -96 c 0
 332 -143 319 -171 277 -171 c 4
 255 -171 222 -161 222 -110 c 0
 222 -51 231 3 237 36 c 0
 240 53 242 64 242 67 c 0
 242 90 207 303 163 357 c 0
 147 378 133 376 132 377 c 1
 125 376 110 375 105 351 c 1
 27 351 l 1
EndSplineSet
EndChar
StartChar: delta
Encoding: 948 948 234
Width: 472
Flags: MW
LayerCount: 2
Fore
SplineSet
41 211 m 0xd8
 41 274 66 381 182 425 c 1
 106 472 58 500 58 583 c 0xe8
 58 647 111 721 190 721 c 0
 237 721 259 705 440 577 c 1
 408 525 l 1
 389 535 238 640 238 640 c 2
 225 649 211 658 191 658 c 0
 153 658 121 622 121 585 c 0xe8
 121 546 155 524 170 513 c 2
 334 402 l 2
 394 358 429 290 429 211 c 0
 429 85 339 -11 235 -11 c 0
 133 -11 41 83 41 211 c 0xd8
119 203 m 0
 119 117 164 51 233 51 c 0
 304 51 351 130 351 219 c 0
 351 305 306 371 238 371 c 0xd8
 167 371 119 289 119 203 c 0
EndSplineSet
EndChar
StartChar: epsilon
Encoding: 949 949 251
Width: 430
Flags: MW
LayerCount: 2
Fore
SplineSet
41 112 m 0xf0
 41 178 94 209 121 222 c 1
 72 252 54 290 54 326 c 0xe8
 54 404 131 455 214 455 c 0
 278 455 333 420 374 377 c 1
 318 322 l 1
 286 354 255 387 213 387 c 0
 176 387 128 355 128 314 c 0xe8
 128 256 214 250 261 250 c 1
 261 189 l 1
 211 189 114 187 114 126 c 4
 114 79 178 57 212 57 c 0
 268 57 304 97 332 122 c 1
 387 67 l 1
 310 -8 239 -11 213 -11 c 0
 120 -11 41 37 41 112 c 0xf0
EndSplineSet
EndChar
StartChar: eta
Encoding: 951 951 252
Width: 514
Flags: MW
LayerCount: 2
Fore
SplineSet
27 355 m 1
 33 442 85 467 123 467 c 0
 173 467 195 429 209 385 c 1
 238 441 279 467 326 467 c 0
 393 467 471 407 471 257 c 2
 471 -195 l 1
 392 -195 l 1
 392 244 l 2
 392 348 350 388 307 388 c 0
 255 388 226 333 222 279 c 2
 222 0 l 1
 143 0 l 1
 143 280 l 2
 143 380 138 390 122 390 c 3
 104 390 103 366 102 355 c 1
 27 355 l 1
EndSplineSet
EndChar
StartChar: theta
Encoding: 952 952 253
Width: 500
Flags: MW
LayerCount: 2
Fore
SplineSet
41 360 m 0
 41 519 83 733 249 733 c 0
 415 733 457 520 457 362 c 0
 457 186 410 -11 249 -11 c 0
 83 -11 41 201 41 360 c 0
120 322 m 2
 123 223 129 67 249 67 c 0
 353 67 379 185 379 349 c 1
 120 349 l 1
 120 322 l 2
120 407 m 1
 378 407 l 1
 374 507 365 655 249 655 c 0
 128 655 123 489 120 407 c 1
EndSplineSet
EndChar
StartChar: iota
Encoding: 953 953 237
Width: 278
Flags: MW
LayerCount: 2
Fore
SplineSet
41 116 m 2
 41 445 l 1
 119 445 l 1
 119 117 l 2
 119 95 123 81 128 71 c 0
 140 51 158 53 158 52 c 1
 167 53 177 58 184 70 c 4
 189 79 193 92 194 110 c 1
 249 110 l 1
 247 39 201 -11 145 -11 c 0
 96 -11 41 31 41 116 c 2
EndSplineSet
EndChar
StartChar: kappa
Encoding: 954 954 240
Width: 483
Flags: MW
LayerCount: 2
Fore
SplineSet
55 0 m 1
 55 445 l 1
 133 445 l 1
 133 253 l 1
 299 411 291 404 300 411 c 0
 314 422 331 430 351 436 c 0
 371 442 395 445 422 445 c 1
 422 374 l 1
 397 374 381 373 369 369 c 4
 354 365 345 357 331 344 c 2
 215 235 l 1
 449 0 l 1
 339 0 l 1
 159 180 l 1
 133 156 l 1
 133 0 l 1
 55 0 l 1
EndSplineSet
EndChar
StartChar: lambda
Encoding: 955 955 241
Width: 500
Flags: MW
LayerCount: 2
Fore
SplineSet
27 0 m 1
 216 417 l 2
 219 424 220 428 220 433 c 0
 220 443 148 643 95 643 c 0
 76 643 55 620 40 606 c 1
 27 684 l 1
 42 697 68 722 105 722 c 0
 164 722 216 658 249 572 c 6
 472 0 l 5
 387 0 l 1
 262 329 l 1
 113 0 l 1
 27 0 l 1
EndSplineSet
EndChar
StartChar: mu
Encoding: 956 956 257
Width: 555
Flags: MW
LayerCount: 2
Fore
SplineSet
41 -195 m 1
 41 445 l 1
 119 445 l 1
 119 195 l 2
 119 149 156 67 232 67 c 0
 302 67 346 119 346 195 c 2
 346 445 l 1
 424 445 l 1
 424 127 l 2
 424 104 424 63 455 63 c 0
 465 63 487 73 487 98 c 0
 486 107 l 1
 541 107 l 1
 541 100 542 94 542 87 c 0
 542 32 495 -11 443 -11 c 0
 414 -11 373 5 353 60 c 1
 305 -8 256 -11 232 -11 c 0
 177 -11 146 17 119 49 c 1
 119 -195 l 1
 41 -195 l 1
EndSplineSet
EndChar
StartChar: nu
Encoding: 957 957 258
Width: 472
Flags: MW
LayerCount: 2
Fore
SplineSet
-0 445 m 1
 106 445 l 1
 153 403 150 389 245 95 c 1
 294 165 365 235 367 341 c 0
 366 351 364 362 352 445 c 1
 430 445 l 1
 442 367 444 358 444 348 c 0
 444 224 340 105 275 0 c 1
 197 0 l 1
 94 311 l 2
 63 402 49 399 -0 445 c 1
EndSplineSet
EndChar
StartChar: xi
Encoding: 958 958 260
Width: 472
Flags: MW
LayerCount: 2
Fore
SplineSet
41 204 m 0
 41 323 125 398 193 430 c 1
 152 461 121 501 121 556 c 0
 121 591 135 617 159 644 c 1
 67 656 56 708 55 743 c 1
 133 743 l 1
 137 724 149 711 195 711 c 0
 253 712 341 739 367 743 c 1
 386 667 l 1
 324 653 266 641 228 622 c 0
 199 607 181 588 181 559 c 0
 181 509 253 467 351 467 c 1
 351 389 l 1
 228 387 119 315 119 206 c 0
 119 143 160 89 219 80 c 4
 238 77 254 80 291 74 c 0
 352 65 429 38 429 -39 c 0
 429 -94 380 -154 272 -156 c 1
 272 -81 l 1
 325 -81 351 -61 351 -40 c 0
 351 -9 321 0 245 -0 c 0
 103 0 41 113 41 204 c 0
EndSplineSet
EndChar
StartChar: omicron
Encoding: 959 959 260
Width: 528
Flags: MW
LayerCount: 2
Fore
SplineSet
41 223 m 0
 41 340 129 455 263 455 c 0
 383 455 485 355 485 222 c 0
 485 105 397 -11 263 -11 c 0
 143 -11 41 90 41 223 c 0
119 222 m 0
 119 143 177 67 263 67 c 0
 339 67 406 132 406 222 c 0
 406 302 348 377 263 377 c 0
 187 377 119 312 119 222 c 0
EndSplineSet
EndChar
StartChar: pi
Encoding: 960 960 246
Width: 583
Flags: MW
LayerCount: 2
Fore
SplineSet
8 420 m 1
 65 441 114 445 159 445 c 2
 541 445 l 1
 541 370 l 1
 421 370 l 1
 421 115 l 2
 421 79 441 63 462 63 c 0
 503 63 506 107 506 107 c 1
 560 107 l 1
 559 35 507 -11 452 -11 c 0
 414 -11 343 13 343 121 c 2
 343 370 l 1
 223 370 l 1
 223 -11 l 1
 145 -11 l 1
 145 370 l 1
 94 369 67 358 36 347 c 1
 8 420 l 1
EndSplineSet
EndChar
StartChar: rho
Encoding: 961 961 245
Width: 472
Flags: MW
LayerCount: 2
Fore
SplineSet
41 -195 m 1
 41 208 l 2
 41 256 45 296 69 344 c 0
 85 375 135 455 235 455 c 0
 351 455 429 343 429 222 c 0
 429 102 351 -11 235 -11 c 0
 196 -11 143 13 119 34 c 5
 119 -195 l 1
 41 -195 l 1
119 223 m 0
 119 125 165 52 236 52 c 0
 305 52 351 127 351 221 c 0
 351 319 305 393 235 393 c 0
 165 393 119 318 119 223 c 0
EndSplineSet
EndChar
StartChar: sigma.end
Encoding: 962 962 401
Width: 444
Flags: MW
LayerCount: 2
Fore
SplineSet
40 198 m 0
 40 296 109 444 402 445 c 1
 402 366 l 1
 243 366 174 328 140 275 c 0
 125 251 117 223 117 194 c 0
 117 153 136 77 231 75 c 0
 376 69 402 13 402 -28 c 0
 402 -129 271 -129 250 -130 c 5
 250 -55 l 1
 273 -55 323 -56 323 -27 c 0
 323 11 228 -9 174 7 c 0
 99 28 40 103 40 198 c 0
EndSplineSet
EndChar
StartChar: tau
Encoding: 964 964 265
Width: 458
Flags: MW
LayerCount: 2
Fore
SplineSet
-9 419 m 1
 37 440 73 445 118 445 c 2
 416 445 l 1
 416 370 l 1
 239 370 l 1
 239 117 l 2
 239 70 267 64 278 63 c 0
 303 64 317 91 317 107 c 5
 372 107 l 1
 369 31 318 -11 267 -11 c 0
 228 -11 161 14 161 123 c 2
 161 370 l 1
 120 370 l 2
 50 370 37 351 25 349 c 1
 -9 419 l 1
EndSplineSet
EndChar
StartChar: upsilon
Encoding: 965 965 248
Width: 500
Flags: MW
LayerCount: 2
Fore
SplineSet
41 445 m 1
 130 445 l 1
 174 344 176 279 176 224 c 3
 176 158 195 68 277 68 c 0
 338 68 379 132 379 225 c 0
 379 313 352 385 318 445 c 5
 406 445 l 1
 445 366 457 286 457 226 c 0
 457 96 385 -11 277 -11 c 0
 172 -11 112 90 101 184 c 0
 96 222 105 306 66 391 c 2
 41 445 l 1
EndSplineSet
EndChar
StartChar: phi
Encoding: 966 966 251
Width: 583
Flags: MW
LayerCount: 2
Fore
SplineSet
41 252 m 0
 41 373 125 493 256 512 c 1
 256 722 l 1
 326 722 l 1
 326 512 l 1
 446 495 543 389 543 251 c 0
 543 129 458 8 326 -10 c 1
 326 -195 l 1
 256 -195 l 1
 256 -10 l 1
 137 8 41 115 41 252 c 0
108 251 m 0
 108 161 166 75 256 56 c 1
 256 447 l 1
 174 429 108 352 108 251 c 0
326 55 m 1
 410 71 477 148 477 251 c 0
 477 343 417 431 326 448 c 1
 326 55 l 1
EndSplineSet
EndChar
StartChar: chi
Encoding: 967 967 267
Width: 555
Flags: MW
LayerCount: 2
Fore
SplineSet
41 -205 m 1
 233 128 l 1
 182 250 129 378 51 378 c 0
 48 378 45 378 41 377 c 1
 41 455 l 1
 50 457 58 458 67 458 c 0
 166 458 228 337 283 213 c 1
 422 455 l 1
 512 455 l 1
 320 122 l 1
 370 2 422 -128 503 -128 c 0
 506 -128 509 -128 512 -127 c 1
 513 -205 l 1
 504 -207 495 -208 486 -208 c 0
 387 -208 325 -87 271 37 c 1
 131 -205 l 1
 41 -205 l 1
EndSplineSet
EndChar
StartChar: omega
Encoding: 969 969 270
Width: 667
Flags: MW
LayerCount: 2
Fore
SplineSet
33 178 m 0
 33 298 107 394 156 445 c 1
 249 445 l 1
 202 392 111 297 111 177 c 0
 111 109 148 52 202 52 c 0
 261 52 298 111 298 189 c 2
 298 264 l 1
 368 264 l 1
 368 188 l 2
 368 110 408 52 463 52 c 0
 521 52 554 113 554 177 c 0
 554 304 451 407 416 445 c 1
 510 445 l 1
 573 379 632 285 632 178 c 0
 632 67 553 -11 464 -11 c 0
 385 -11 345 44 333 60 c 1
 309 27 266 -11 202 -11 c 0
 112 -11 33 67 33 178 c 0
EndSplineSet
EndChar
StartChar: omicrontonos
Encoding: 972 972 374
Width: 528
Flags: MW
LayerCount: 2
Fore
SplineSet
197 495 m 1
 288 694 l 1
 367 694 l 1
 258 495 l 1
 197 495 l 1
EndSplineSet
Refer: 243 959 N 1 0 0 1 0 0 2
EndChar
StartChar: upsilontonos
Encoding: 973 973 419
Width: 500
Flags: MW
LayerCount: 2
Fore
SplineSet
176 495 m 1
 267 694 l 1
 346 694 l 1
 237 495 l 1
 176 495 l 1
EndSplineSet
Refer: 266 965 N 1 0 0 1 0 0 2
EndChar
StartChar: omegatonos
Encoding: 974 974 313
Width: 667
Flags: MW
LayerCount: 2
Fore
SplineSet
268 495 m 5
 359 694 l 5
 438 694 l 5
 329 495 l 5
 268 495 l 5
EndSplineSet
Refer: 252 969 S 1 0 0 1 0 0 2
EndChar
StartChar: theta.alt
Encoding: 977 977 614
Width: 569
Flags: MW
LayerCount: 2
Fore
SplineSet
-2 298 m 1
 -2 376 15 463 85 463 c 0
 122 463 202 438 202 334 c 2
 202 190 l 2xf4
 202 116 212 62 301 62 c 0
 387 62 400 201 400 357 c 1
 233 405 179 486 179 574 c 0
 179 649 240 700 305 700 c 0
 375 700 468 630 480 395 c 1
 531 386 536 383 536 383 c 1
 536 326 l 17
 536 326 498 333 481 336 c 1
 479 108 401 -5 302 -5 c 0
 134 -5 120 115 120 194 c 2
 120 325 l 2
 120 365 120 404 87 404 c 4
 55 404 58 336 58 298 c 1
 -2 298 l 1
248 574 m 0
 248 481 325 437 399 416 c 1
 388 602 346 631 305 631 c 0xec
 274 631 248 617 248 574 c 0
EndSplineSet
EndChar
StartChar: phi.alt
Encoding: 981 981 565
Width: 583
Flags: MW
LayerCount: 2
Fore
SplineSet
41 227 m 0
 41 287 55 368 97 445 c 1
 186 445 l 1
 145 394 104 323 104 225 c 0
 104 155 148 78 251 55 c 1
 251 279 l 2
 251 410 338 455 396 455 c 0
 509 455 540 313 540 227 c 0
 540 85 426 5 330 -8 c 1
 330 -195 l 1
 251 -195 l 1
 251 -8 l 1
 153 6 41 86 41 227 c 0
330 55 m 1
 431 77 477 148 477 231 c 4
 477 371 429 393 397 393 c 0
 330 393 330 295 330 294 c 2
 330 55 l 1
EndSplineSet
EndChar
StartChar: stigma
Encoding: 987 987 623
Width: 500
Flags: MW
LayerCount: 2
Fore
SplineSet
55 312 m 0xda
 55 419 177 465 285 466 c 6xda
 444 467 l 5
 444 389 l 1xea
 343 389 302 399 259 399 c 0
 141 399 117 347 117 312 c 0
 117 243 192 236 262 236 c 2
 344 236 l 1
 344 158 l 1
 297 160 l 1xda
 304 -0 l 1
 225 -0 l 1xdc
 233 167 l 1
 160 178 55 213 55 312 c 0xda
EndSplineSet
EndChar
StartChar: epsilon.alt
Encoding: 1013 1013 654
Width: 430
Flags: MW
LayerCount: 2
Fore
SplineSet
48 225 m 0
 48 365 194 455 381 455 c 1
 381 389 l 1
 202 387 144 318 124 263 c 1
 326 263 l 1
 326 199 l 1
 121 199 l 1
 144 101 255 57 381 55 c 1
 381 -11 l 1
 199 -11 48 83 48 225 c 0
EndSplineSet
EndChar
StartChar: Dje
Encoding: 1026 1026 379
Width: 819
Flags: MW
HStem: -22 61<511.267 665.5> 405 62<478.8 720.6> 630 64<35 295 384 644>
VStem: 295 89<0 287.405 378 630> 704 78<136.255 352>
LayerCount: 2
Fore
SplineSet
35 628 m 1
 35 694 l 1
 644 694 l 1
 644 629 l 1
 384 630 l 1
 384 378 l 1
 391 386 404 400 422 414 c 0
 455 440 508 467 587 467 c 0
 759 467 782 374 782 284 c 2
 782 196 l 2
 782 134 763 80 728 42 c 0
 692 2 639 -22 576 -22 c 0
 527 -22 500 -16 454 -0 c 1
 472 68 l 1
 502 52 524 39 581 39 c 0
 646 39 677 82 689 110 c 0
 703 140 704 173 704 206 c 2
 704 277 l 2
 704 352 678 405 536 405 c 0
 492 405 457 393 426 359 c 0
 390 319 384 275 384 234 c 2
 384 -0 l 1
 295 -0 l 1
 295 630 l 1
 35 628 l 1
EndSplineSet
EndChar
StartChar: Gje
Encoding: 1027 1027 406
Width: 542
Flags: MW
LayerCount: 2
Fore
SplineSet
173 760 m 1
 330 850 l 25
 440 850 l 1
 282 771 l 1
 260 761 l 1
 245 760 l 1
 197 760 l 1
 173 760 l 1
EndSplineSet
Refer: 258 1043 N 1 0 0 1 0 0 2
EndChar
StartChar: Ie.ukran
Encoding: 1028 1028 381
Width: 639
Flags: MW
HStem: -22 64<208.7 503.2> 316 62<157 501> 652 64<208.7 488.3>
LayerCount: 2
Fore
SplineSet
66 347 m 0
 66 541 198 716 396 716 c 0
 467 716 525 701 577 682 c 1
 562 599 l 1
 510 631 467 652 392 652 c 0
 251 652 165 507 157 378 c 1
 501 378 l 1
 501 316 l 1
 157 316 l 1
 165 186 251 42 392 42 c 0
 496 42 527 68 582 103 c 1
 588 33 l 1
 518 -8 478 -22 394 -22 c 0
 197 -22 66 155 66 347 c 0
EndSplineSet
EndChar
StartChar: Lje
Encoding: 1033 1033 386
Width: 1037
Flags: MW
HStem: -0 63<19 106.157> 0 56<616 780.469> 331 61<617 805.8> 630 64<288 527>
VStem: 224 64<481.633 694> 527 90<56 330 392 630> 899 82<122.5 262.9>
LayerCount: 2
Fore
SplineSet
19 -0 m 1
 19 63 l 1
 57 63 l 2xbe
 111 63 138 79 162 128 c 0
 209 224 224 465 224 694 c 1
 616 694 l 1
 616 392 l 1
 746 392 l 2
 869 392 981 320 981 195 c 0
 981 76 875 0 747 0 c 2
 527 0 l 1x7e
 527 630 l 1
 288 630 l 1
 288 403 273 216 217 95 c 0
 180 16 131 -0 80 -0 c 2xbe
 19 -0 l 1
616 56 m 1
 726 56 l 2
 823 56 899 115 899 194 c 0x7e
 899 288 811 330 700 330 c 2
 617 330 l 1
 616 292 l 1
 616 56 l 1
EndSplineSet
EndChar
StartChar: Nje
Encoding: 1034 1034 413
Width: 1021
Flags: MW
LayerCount: 2
Fore
SplineSet
94 0 m 1
 94 694 l 1
 184 694 l 1
 184 392 l 1
 510 392 l 1
 510 694 l 1
 599 694 l 1
 599 392 l 1
 730 392 l 2
 855 392 964 316 964 195 c 0
 964 84 866 0 731 0 c 6
 510 0 l 1
 510 330 l 1
 184 330 l 1
 184 0 l 1
 94 0 l 1
599 56 m 1
 709 56 l 2
 807 56 883 111 883 194 c 4
 883 285 795 330 684 330 c 2
 600 330 l 1
 599 293 l 1
 599 56 l 1
EndSplineSet
EndChar
StartChar: Tshe
Encoding: 1035 1035 432
Width: 764
Flags: MW
LayerCount: 2
Fore
SplineSet
35 628 m 1
 35 694 l 1
 629 694 l 1
 629 629 l 1
 349 630 l 1
 349 382 l 1
 387 423 433 455 507 455 c 0
 656 455 660 347 660 284 c 2
 660 -0 l 1
 582 -0 l 1
 582 281 l 2
 582 356 544 394 468 394 c 0
 382 394 349 313 349 240 c 6
 349 -0 l 1
 260 -0 l 1
 260 629 l 1
 35 628 l 1
EndSplineSet
EndChar
StartChar: Kje
Encoding: 1036 1036 433
Width: 694
Flags: MW
LayerCount: 2
Fore
SplineSet
262 760 m 1
 419 850 l 25
 529 850 l 1
 371 771 l 1
 349 761 l 1
 334 760 l 1
 286 760 l 1
 262 760 l 1
EndSplineSet
Refer: 282 1050 N 1 0 0 1 0 0 2
EndChar
StartChar: U.short
Encoding: 1038 1038 434
Width: 667
Flags: MW
LayerCount: 2
Fore
SplineSet
171 889 m 1
 232 889 l 1
 238 824 314 817 340 817 c 0
 366 817 443 824 449 889 c 1
 510 889 l 1
 507 796 420 750 340 750 c 0
 260 750 174 797 171 889 c 1
EndSplineSet
Refer: 291 1059 S 1 0 0 1 0 0 2
EndChar
StartChar: Dzhe
Encoding: 1039 1039 391
Width: 694
Flags: MW
HStem: -195 21G<309 384> 0 67<184 309 384 510> 674 20G<94 184 510 599>
VStem: 94 90<67 694> 309 75<-195 0> 510 89<67 694>
LayerCount: 2
Fore
SplineSet
94 0 m 1
 94 694 l 1
 184 694 l 1
 184 67 l 1
 510 67 l 1
 510 694 l 1
 599 694 l 1
 599 0 l 1
 384 0 l 1
 384 -195 l 1
 309 -195 l 1
 309 0 l 1
 94 0 l 1
EndSplineSet
EndChar
StartChar: Be
Encoding: 1041 1041 254
Width: 667
Flags: MW
HStem: 0 56<96 443.5> 330 62<180 348> 628 66<96 554>
VStem: 96 84<0 694> 528 82<156.5 228.5>
LayerCount: 2
Fore
SplineSet
96 0 m 1
 96 694 l 1
 554 694 l 1
 554 628 l 1
 180 630 l 1
 180 392 l 1
 313 392 l 2
 460 392 610 332 610 194 c 0
 610 74 492 0 344 0 c 6
 96 0 l 1
180 56 m 1
 296 56 l 2
 401 56 528 80 528 194 c 4
 528 300 407 330 293 330 c 2
 181 330 l 1
 181 330 180 313 180 293 c 2
 180 56 l 1
EndSplineSet
EndChar
StartChar: Ge
Encoding: 1043 1043 256
Width: 542
Flags: MW
HStem: 0 21G<94 184> 628 66<94 499>
VStem: 94 90<0 694>
LayerCount: 2
Fore
SplineSet
94 0 m 1
 94 694 l 1
 499 694 l 1
 499 628 l 1
 184 630 l 5
 184 0 l 1
 94 0 l 1
EndSplineSet
EndChar
StartChar: De
Encoding: 1044 1044 257
Width: 728
Flags: MW
HStem: -195 21G<35 99 627 691> -0 67<170 526 616 627> 630 64<288 526>
VStem: 35 64<-195 0> 223 65<453.274 640> 526 90<67 630> 627 64<-195 0>
LayerCount: 2
Fore
SplineSet
35 67 m 1
 88 67 l 1
 168 163 223 290 223 694 c 1
 616 694 l 1
 616 67 l 1
 691 67 l 1
 691 -195 l 1
 627 -195 l 1
 627 -0 l 1
 99 -0 l 1
 99 -195 l 1
 35 -195 l 1
 35 67 l 1
170 67 m 1
 526 67 l 1
 526 630 l 1
 288 630 l 1
 283 405 269 226 170 67 c 1
EndSplineSet
EndChar
StartChar: Ie
Encoding: 1045 1045 258
Width: 597
Flags: MW
LayerCount: 2
Fore
SplineSet
94 0 m 1
 94 694 l 1
 541 694 l 1
 541 628 l 1
 184 630 l 1
 184 392 l 1
 514 392 l 1
 514 330 l 1
 184 330 l 1
 184 70 l 1
 555 72 l 5
 555 0 l 1
 94 0 l 1
EndSplineSet
EndChar
StartChar: Zhe
Encoding: 1046 1046 278
Width: 1111
Flags: MW
LayerCount: 2
Fore
SplineSet
41 0 m 1
 323 420 l 1
 55 694 l 1
 148 694 l 1
 511 323 l 1
 511 694 l 1
 597 694 l 1
 597 323 l 1
 961 694 l 1
 1054 694 l 1
 786 420 l 1
 1068 0 l 1
 974 0 l 1
 731 363 l 1
 597 228 l 1
 597 0 l 1
 511 0 l 1
 511 228 l 1
 378 363 l 1
 135 0 l 1
 41 0 l 1
EndSplineSet
EndChar
StartChar: I.cyr
Encoding: 1048 1048 262
Width: 694
Flags: MW
HStem: 0 21G<94 216 514 599> 674 20G<94 180 477 599>
VStem: 94 86<0 694> 514 85<0 694>
LayerCount: 2
Fore
SplineSet
94 0 m 1
 94 694 l 1
 180 694 l 1
 180 70 l 1
 477 694 l 1
 599 694 l 1
 599 0 l 1
 514 0 l 1
 514 592 l 2
 514 607 513 624 513 624 c 1
 216 0 l 1
 94 0 l 1
EndSplineSet
EndChar
StartChar: I.short
Encoding: 1049 1049 263
Width: 694
Flags: MW
HStem: 0 21<94 216 514 599> 674 20<94 180 477 599> 750 67<305.527 387.857>
VStem: 94 86<70 694> 177 61<847.4 889> 455 61<831.079 894.694> 514 85<0 624>
LayerCount: 2
Fore
SplineSet
177 889 m 5
 238 889 l 5
 244 825 320 817 346 817 c 4
 374 817 449 825 455 889 c 5
 516 889 l 5
 513 796 426 750 347 750 c 4
 267 750 180 797 177 889 c 5
EndSplineSet
Refer: 262 1048 S 1 0 0 1 0 0 2
EndChar
StartChar: El
Encoding: 1051 1051 265
Width: 711
Flags: MW
LayerCount: 2
Fore
SplineSet
19 -0 m 1
 19 63 l 1
 57 63 l 2
 122 63 169 122 189 215 c 4
 215 334 224 518 224 694 c 1
 616 694 l 1
 616 -0 l 1
 527 -0 l 1
 527 630 l 1
 288 630 l 1
 287 585 286 360 248 190 c 0
 211 27 147 0 80 -0 c 2
 19 -0 l 1
EndSplineSet
EndChar
StartChar: En
Encoding: 1053 1053 285
Width: 694
Flags: MW
LayerCount: 2
Fore
SplineSet
94 0 m 1
 94 694 l 1
 184 694 l 1
 184 392 l 1
 510 392 l 1
 510 694 l 1
 599 694 l 1
 599 0 l 1
 510 0 l 1
 510 330 l 1
 184 330 l 1
 184 0 l 1
 94 0 l 1
EndSplineSet
EndChar
StartChar: Pe
Encoding: 1055 1055 269
Width: 694
Flags: MW
HStem: 0 21G<94 184 510 599> 630 64<184 510>
VStem: 94 90<0 630> 510 89<0 630>
LayerCount: 2
Fore
SplineSet
94 0 m 1
 94 694 l 1
 599 694 l 1
 599 0 l 1
 510 0 l 1
 510 630 l 1
 184 630 l 1
 184 0 l 1
 94 0 l 1
EndSplineSet
EndChar
StartChar: Te
Encoding: 1058 1058 272
Width: 680
Flags: MW
HStem: -0 21G<294 384> 628 66<35 643>
VStem: 294 90<-0 630>
LayerCount: 2
Fore
SplineSet
35 628 m 1
 35 694 l 1
 643 694 l 1
 643 628 l 1
 384 630 l 1
 384 -0 l 1
 294 -0 l 1
 294 630 l 1
 35 628 l 1
EndSplineSet
EndChar
StartChar: U.cyr
Encoding: 1059 1059 291
Width: 667
Flags: MW
LayerCount: 2
Fore
SplineSet
14 694 m 1
 109 694 l 5
 109 694 360 250 369 197 c 1
 377 220 401 276 429 347 c 2
 572 694 l 1
 652 694 l 1
 462 244 l 2
 435 181 397 74 332 29 c 0
 296 4 264 0 218 0 c 2
 166 0 l 1
 166 65 l 1
 227 65 l 2
 287 65 310 88 328 115 c 1
 14 694 l 1
EndSplineSet
EndChar
StartChar: Ef
Encoding: 1060 1060 274
Width: 833
Flags: MW
LayerCount: 2
Fore
SplineSet
55 361 m 0
 55 584 249 614 374 617 c 1
 374 694 l 1
 458 694 l 1
 458 617 l 1
 583 614 777 584 777 361 c 0
 777 138 583 108 458 105 c 1
 458 0 l 1
 374 0 l 1
 374 105 l 1
 249 108 55 138 55 361 c 0
142 361 m 0
 142 179 307 169 374 166 c 1
 374 556 l 1
 307 553 142 543 142 361 c 0
458 166 m 1
 525 169 690 179 690 361 c 0
 690 543 525 553 458 556 c 1
 458 166 l 1
EndSplineSet
EndChar
StartChar: Tse
Encoding: 1062 1062 276
Width: 711
Flags: MW
HStem: -195 21G<610 674> 0 67<184 510 599 610> 674 20G<94 184 510 599>
VStem: 94 90<67 694> 510 89<67 694> 610 64<-195 0>
LayerCount: 2
Fore
SplineSet
94 0 m 1
 94 694 l 1
 184 694 l 1
 184 67 l 1
 510 67 l 1
 510 694 l 1
 599 694 l 1
 599 67 l 1
 674 67 l 1
 674 -195 l 1
 610 -195 l 1
 610 0 l 1
 94 0 l 1
EndSplineSet
EndChar
StartChar: Che
Encoding: 1063 1063 295
Width: 694
Flags: MW
LayerCount: 2
Fore
SplineSet
94 449 m 2
 94 694 l 1
 184 694 l 1
 184 455 l 2
 184 424 193 403 206 389 c 4
 230 363 268 363 285 363 c 2
 510 363 l 1
 510 694 l 1
 599 694 l 1
 599 -0 l 1
 510 -0 l 1
 510 304 l 1
 288 304 l 2
 233 304 184 316 139 356 c 0
 99 391 94 423 94 449 c 2
EndSplineSet
EndChar
StartChar: Sha
Encoding: 1064 1064 278
Width: 1083
Flags: MW
HStem: 0 67<180 496 582 902> 674 20G<94 180 496 582 902 988>
VStem: 94 86<67 694> 496 86<67 694> 902 86<67 694>
LayerCount: 2
Fore
SplineSet
94 0 m 1
 94 694 l 1
 180 694 l 1
 180 67 l 1
 498 67 l 1
 498 694 l 1
 584 694 l 1
 584 67 l 1
 902 67 l 1
 902 694 l 1
 988 694 l 1
 988 0 l 1
 94 0 l 1
EndSplineSet
EndChar
StartChar: Shcha
Encoding: 1065 1065 279
Width: 1100
Flags: MW
HStem: -195 21G<999 1063> 0 67<180 496 582 902 988 999> 674 20G<94 180 496 582 902 988>
VStem: 94 86<67 694> 496 86<67 694> 902 86<67 694> 999 64<-195 0>
LayerCount: 2
Fore
SplineSet
94 0 m 1
 94 694 l 1
 180 694 l 1
 180 67 l 1
 498 67 l 1
 498 694 l 1
 584 694 l 1
 584 67 l 1
 902 67 l 1
 902 694 l 1
 988 694 l 1
 988 67 l 1
 1063 67 l 1
 1063 -195 l 1
 999 -195 l 1
 999 0 l 1
 94 0 l 1
EndSplineSet
EndChar
StartChar: Hard
Encoding: 1066 1066 280
Width: 868
Flags: MW
LayerCount: 2
Fore
SplineSet
35 628 m 1
 35 694 l 1
 381 694 l 1
 381 392 l 1
 514 392 l 2
 661 392 811 332 811 194 c 0
 811 74 693 -0 545 -0 c 2
 297 -0 l 1
 297 630 l 1
 35 628 l 1
381 56 m 1
 498 56 l 2
 588 56 729 78 729 194 c 0
 729 298 609 330 495 330 c 2
 382 330 l 1
 382 330 381 312 381 292 c 2
 381 56 l 1
EndSplineSet
EndChar
StartChar: Soft
Encoding: 1068 1068 284
Width: 667
Flags: MW
LayerCount: 2
Fore
SplineSet
96 0 m 1
 96 694 l 1
 180 694 l 1
 180 392 l 1
 342 392 l 2
 491 392 610 311 610 194 c 0
 610 74 492 0 344 0 c 2
 96 0 l 1
180 56 m 1
 322 56 l 2
 436 56 528 104 528 194 c 0
 528 291 416 330 293 330 c 2
 181 330 l 1
 180 293 l 1
 180 56 l 1
EndSplineSet
EndChar
StartChar: E.cyr
Encoding: 1069 1069 300
Width: 639
Flags: MW
LayerCount: 2
Fore
SplineSet
50 33 m 1
 56 103 l 1
 110 68 142 42 246 42 c 0
 387 42 472 185 481 316 c 1
 136 316 l 1
 136 378 l 1
 481 378 l 1
 473 508 387 652 246 652 c 0
 170 652 127 631 75 599 c 1
 61 682 l 1
 126 706 185 717 237 717 c 0
 444 717 572 538 572 347 c 0
 572 155 441 -22 244 -22 c 0
 160 -22 120 -8 50 33 c 1
EndSplineSet
EndChar
StartChar: Iu
Encoding: 1070 1070 284
Width: 1041
Flags: MW
HStem: -22 65<520.9 838.1> 314 61<184 362> 652 64<513.1 823.8>
VStem: 94 90<0 314 375 694> 896 89<128.9 594.3>
LayerCount: 2
Fore
SplineSet
94 0 m 1
 94 694 l 1
 184 694 l 1
 184 375 l 1
 362 375 l 1
 383 601 533 716 673 716 c 0
 837 716 985 560 985 345 c 0
 985 147 850 -22 673 -22 c 0
 556 -22 386 67 362 314 c 1
 184 314 l 1
 184 0 l 1
 94 0 l 1
450 359 m 0
 450 180 548 43 673 43 c 0
 800 43 896 182 896 359 c 0
 896 540 789 652 673 652 c 0
 550 652 450 531 450 359 c 0
EndSplineSet
EndChar
StartChar: Ia
Encoding: 1071 1071 285
Width: 646
Flags: MW
HStem: -0 21G<27 125 462 549> 319 59<356 462> 638 56<125.2 462>
VStem: 55 81<442.8 578> 462 87<0 319 378 638>
LayerCount: 2
Fore
SplineSet
27 -0 m 1
 272 321 l 1
 134 337 55 426 55 513 c 0
 55 629 178 694 323 694 c 2
 549 694 l 1
 549 -0 l 1
 462 -0 l 1
 462 319 l 1
 356 319 l 1
 125 -0 l 1
 27 -0 l 1
136 513 m 0
 136 430 218 378 328 378 c 2
 462 378 l 1
 462 638 l 1
 328 638 l 2
 221 638 136 595 136 513 c 0
EndSplineSet
EndChar
StartChar: be
Encoding: 1073 1073 305
Width: 498
Flags: MW
LayerCount: 2
Fore
SplineSet
28 236 m 0
 28 416 28 668 220 700 c 0
 240 703 261 705 428 722 c 1
 428 699 l 2
 428 688 429 663 399 654 c 0
 392 652 250 635 233 631 c 0
 128 609 93 492 93 375 c 1
 119 414 172 461 248 461 c 0
 366 461 467 354 467 220 c 0
 467 95 371 -11 247 -11 c 0
 118 -11 28 94 28 236 c 0
106 230 m 0
 106 126 163 53 247 53 c 0
 314 53 388 105 388 231 c 0
 388 337 326 399 247 399 c 0
 180 399 106 347 106 230 c 0
EndSplineSet
EndChar
StartChar: ve
Encoding: 1074 1074 306
Width: 480
Flags: MW
LayerCount: 2
Fore
SplineSet
81 -0 m 1
 81 445 l 1
 268 445 l 2
 345 445 424 417 424 333 c 0xf8
 424 281 371 260 335 245 c 1
 388 224 446 191 446 135 c 0xf4
 446 30 359 0 262 -0 c 6
 81 -0 l 1
156 61 m 1
 247 61 l 2
 283 61 376 63 376 136 c 0xf4
 376 168 340 216 220 216 c 2
 156 216 l 1
 156 61 l 1
156 272 m 1
 180 272 l 2
 248 272 356 284 356 332 c 0xf8
 356 377 299 386 244 386 c 2
 156 386 l 1
 156 272 l 1
EndSplineSet
EndChar
StartChar: ge
Encoding: 1075 1075 289
Width: 404
Flags: MW
HStem: 0 21G<80 158> 385 60<80 379>
VStem: 80 78<0 445>
LayerCount: 2
Fore
SplineSet
80 0 m 1
 80 445 l 1
 379 445 l 1
 379 385 l 1
 158 386 l 1
 158 0 l 1
 80 0 l 1
EndSplineSet
EndChar
StartChar: de
Encoding: 1076 1076 308
Width: 539
Flags: MW
LayerCount: 2
Fore
SplineSet
27 61 m 1
 71 61 l 1
 131 121 160 185 160 439 c 2xf4
 160 445 l 1
 444 445 l 1xf4
 444 61 l 1xec
 510 61 l 1
 510 -162 l 1
 446 -162 l 1
 446 -0 l 1
 91 -0 l 1
 91 -162 l 1
 27 -162 l 1
 27 61 l 1
160 61 m 1xf4
 369 61 l 1xec
 369 383 l 1xec
 228 383 l 1
 223 336 237 185 160 61 c 1xf4
EndSplineSet
EndChar
StartChar: zhe
Encoding: 1078 1078 293
Width: 739
Flags: MW
HStem: -0 21G<16 98 331 403 639 721> 425 20G<38 128 331 403 609 699>
VStem: 331 72<0 145 239 445>
LayerCount: 2
Fore
SplineSet
16 -0 m 1
 208 272 l 1
 38 445 l 1
 128 445 l 1
 331 239 l 1
 331 445 l 1
 403 445 l 1
 403 236 l 1
 609 445 l 1
 699 445 l 1
 529 272 l 1
 721 -0 l 1
 639 -0 l 1
 482 224 l 1
 403 145 l 1
 403 -0 l 1
 331 -0 l 1
 331 148 l 1
 255 224 l 1
 98 -0 l 1
 16 -0 l 1
EndSplineSet
EndChar
StartChar: ze
Encoding: 1079 1079 296
Width: 444
Flags: MW
LayerCount: 2
Fore
SplineSet
28 42 m 1
 56 104 l 1
 99 70 135 53 197 53 c 0
 281 53 341 80 341 135 c 0
 341 171 287 216 185 216 c 2
 138 216 l 1
 138 272 l 1xe8
 195 272 l 2
 265 272 332 295 332 337 c 0
 332 398 233 400 197 400 c 0
 129 400 99 382 61 357 c 1
 33 417 l 1
 96 454 127 461 197 461 c 0
 261 461 399 456 399 339 c 0xf0
 399 290 346 255 316 246 c 1
 360 230 410 195 410 133 c 0
 410 35 336 -11 198 -11 c 0
 134 -11 83 3 28 42 c 1
EndSplineSet
EndChar
StartChar: i.cyr
Encoding: 1080 1080 295
Width: 537
Flags: MW
HStem: 0 21G<81 191 379 454> 425 20G<81 156 344 454>
VStem: 81 75<70 445> 379 75<0 375>
LayerCount: 2
Fore
SplineSet
81 0 m 1
 81 445 l 1
 156 445 l 1
 156 70 l 1
 344 445 l 1
 454 445 l 1
 454 0 l 1
 379 0 l 1
 379 375 l 1
 191 0 l 1
 81 0 l 1
EndSplineSet
EndChar
StartChar: i.short
Encoding: 1081 1081 296
Width: 537
Flags: MW
HStem: 0 21<81 191 379 454> 425 20<81 156 344 454> 500 67<226.172 309.606>
VStem: 81 75<70 445> 98 62<589.08 639> 376 61<580.712 644.694> 379 75<0 375>
LayerCount: 2
Fore
SplineSet
98 639 m 1
 160 639 l 1
 165 575 240 567 268 567 c 0xec
 296 567 370 575 376 639 c 1
 437 639 l 1
 434 547 348 500 268 500 c 0
 187 500 101 547 98 639 c 1
EndSplineSet
Refer: 295 1080 S 1 0 0 1 0 0 2
EndChar
StartChar: ka
Encoding: 1082 1082 299
Width: 489
Flags: MW
LayerCount: 2
Fore
SplineSet
81 -0 m 1
 81 445 l 1
 153 445 l 1
 153 236 l 1
 359 445 l 1
 449 445 l 1
 279 273 l 1
 471 -0 l 1
 389 -0 l 1
 232 224 l 1
 153 145 l 1
 153 -0 l 1
 81 -0 l 1
EndSplineSet
EndChar
StartChar: el
Encoding: 1083 1083 298
Width: 528
Flags: MW
HStem: -0 65<19 59> 383 62<229 370>
VStem: 160 69<10.5 420> 160 285<10.5 445> 370 75<0 383>
LayerCount: 2
Fore
SplineSet
19 -0 m 1
 19 65 l 1xe8
 56 65 l 2
 126 65 160 133 160 445 c 1
 445 445 l 1xd0
 445 0 l 1
 370 0 l 1
 370 383 l 1
 229 383 l 1
 229 58 161 0 59 -0 c 2
 19 -0 l 1
EndSplineSet
EndChar
StartChar: em
Encoding: 1084 1084 299
Width: 669
Flags: MW
HStem: 0 21G<80 158 510 588> 425 20G<80 186 476 588>
VStem: 80 78<0 394> 510 78<0 126.375>
LayerCount: 2
Fore
SplineSet
80 0 m 1
 80 445 l 1
 186 445 l 1
 331 92 l 1
 476 445 l 1
 588 445 l 1
 588 0 l 1
 510 0 l 1
 510 368 l 1
 365 11 l 1
 298 11 l 1
 251 124 173 314 158 364 c 1
 158 0 l 1
 80 0 l 1
EndSplineSet
EndChar
StartChar: en
Encoding: 1085 1085 300
Width: 517
Flags: MW
HStem: 0 21G<81 156 358 433> 216 56<156 358> 425 20G<81 156 358 433>
VStem: 81 75<0 216 272 445> 358 75<0 216 272 445>
LayerCount: 2
Fore
SplineSet
81 0 m 1
 81 445 l 1
 156 445 l 1
 156 272 l 1
 358 272 l 1
 358 445 l 1
 433 445 l 1
 433 0 l 1
 358 0 l 1
 358 216 l 1
 156 216 l 1
 156 0 l 1
 81 0 l 1
EndSplineSet
EndChar
StartChar: pe
Encoding: 1087 1087 302
Width: 517
Flags: MW
HStem: 0 21G<81 156 358 433> 383 62<156 358>
VStem: 81 75<0 383> 358 75<0 383>
LayerCount: 2
Fore
SplineSet
81 0 m 1
 81 445 l 1
 433 445 l 1
 433 0 l 1
 358 0 l 1
 358 383 l 1
 156 383 l 1
 156 0 l 1
 81 0 l 1
EndSplineSet
EndChar
StartChar: te
Encoding: 1090 1090 323
Width: 458
Flags: MW
LayerCount: 2
Fore
SplineSet
25 382 m 5
 25 445 l 1
 433 445 l 1
 433 382 l 1
 268 383 l 1
 268 -0 l 1
 190 -0 l 1
 190 383 l 1
 25 382 l 5
EndSplineSet
EndChar
StartChar: ef
Encoding: 1092 1092 325
Width: 766
Flags: MW
LayerCount: 2
Fore
SplineSet
35 222 m 0
 35 343 104 455 205 455 c 0
 236 455 290 448 345 403 c 1
 345 722 l 1
 420 722 l 1
 420 403 l 1
 475 448 529 455 560 455 c 0
 661 455 730 343 730 222 c 0
 730 94 652 -11 548 -11 c 0
 487 -11 445 21 420 45 c 1
 420 -195 l 1
 345 -195 l 1
 345 45 l 1
 320 21 278 -11 217 -11 c 0
 113 -11 35 94 35 222 c 0
113 222 m 0
 113 122 181 50 253 50 c 0
 300 50 345 90 345 129 c 2
 345 327 l 2
 345 352 302 391 252 391 c 0
 184 391 113 325 113 222 c 0
420 129 m 2
 420 90 466 51 513 51 c 0
 585 51 652 119 652 222 c 0
 652 322 581 391 513 391 c 0
 463 391 420 352 420 327 c 2
 420 129 l 2
EndSplineSet
EndChar
StartChar: tse
Encoding: 1094 1094 309
Width: 548
Flags: MW
HStem: 0 61<156 379 454 456> 425 20G<81 156 379 454>
VStem: 81 75<61 445> 379 75<61 445> 456 64<-162 0>
LayerCount: 2
Fore
SplineSet
81 0 m 1
 81 445 l 1
 156 445 l 1
 156 61 l 1
 379 61 l 1
 379 445 l 1
 454 445 l 1
 454 61 l 1
 520 61 l 1
 520 -162 l 1
 456 -162 l 1
 456 0 l 1
 81 0 l 1
EndSplineSet
EndChar
StartChar: che
Encoding: 1095 1095 310
Width: 537
Flags: MW
HStem: -0 21G<379 454> 185 57<175.438 379> 425 20G<81 156 379 454>
VStem: 81 75<262.888 445> 379 75<0 185 241 445>
LayerCount: 2
Fore
SplineSet
81 289 m 2
 81 445 l 1
 156 445 l 1
 156 289 l 2
 156 256 173 242 219 242 c 2
 379 242 l 25
 379 445 l 1
 454 445 l 1
 454 -0 l 1
 379 -0 l 1
 379 185 l 1
 229 185 l 2
 137 185 81 200 81 289 c 2
EndSplineSet
EndChar
StartChar: sha
Encoding: 1096 1096 311
Width: 766
Flags: MW
HStem: 0 61<156 345 420 608> 425 20G<81 156 345 420 608 683>
VStem: 81 75<61 445> 345 75<61 445> 608 75<61 445>
LayerCount: 2
Fore
SplineSet
81 0 m 1
 81 445 l 1
 156 445 l 1
 156 61 l 1
 345 61 l 1
 345 445 l 1
 420 445 l 1
 420 61 l 1
 608 61 l 1
 608 445 l 1
 683 445 l 1
 683 0 l 1
 81 0 l 1
EndSplineSet
EndChar
StartChar: shcha
Encoding: 1097 1097 312
Width: 778
Flags: MW
HStem: 0 61<156 345 420 608 683 685> 425 20G<81 156 345 420 608 683>
VStem: 81 75<61 445> 345 75<61 445> 608 75<61 445> 685 64<-162 0>
LayerCount: 2
Fore
SplineSet
81 0 m 1
 81 445 l 1
 156 445 l 1
 156 61 l 1
 345 61 l 1
 345 445 l 1
 420 445 l 1
 420 61 l 1
 608 61 l 1
 608 445 l 1
 683 445 l 1
 683 61 l 1
 749 61 l 1
 749 -162 l 1
 685 -162 l 1
 685 0 l 1
 81 0 l 1
EndSplineSet
EndChar
StartChar: hard
Encoding: 1098 1098 313
Width: 590
Flags: MW
HStem: 0 64<192 363> 216 56<267 350> 382 63<25 267>
VStem: 192 75<0 445> 486 70<112.5 165.5>
LayerCount: 2
Fore
SplineSet
25 382 m 1
 25 445 l 1
 267 445 l 1
 267 272 l 1
 350 272 l 2
 447 272 556 259 556 138 c 0
 556 0 448 0 354 0 c 2
 192 0 l 1
 192 383 l 1
 25 382 l 1
267 64 m 1
 341 64 l 2
 432 64 486 76 486 139 c 0
 486 199 406 216 340 216 c 2
 267 216 l 1
 267 64 l 1
EndSplineSet
EndChar
StartChar: yeri
Encoding: 1099 1099 314
Width: 683
Flags: MW
HStem: 0 21<525 600> 0 64<156 292.412> 216 56<156 373> 425 20<81 156 525 600>
VStem: 81 75<64 216 272 445> 376 70<112.4 178.7> 525 75<0 445>
LayerCount: 2
Fore
SplineSet
525 0 m 1
 525 445 l 1
 600 445 l 1
 600 0 l 1
 525 0 l 1
EndSplineSet
Refer: 315 1100 N 1 0 0 1 0 0 2
EndChar
StartChar: soft
Encoding: 1100 1100 315
Width: 480
Flags: MW
LayerCount: 2
Fore
SplineSet
81 -0 m 1
 81 445 l 1
 156 445 l 1
 156 272 l 1
 261 272 l 2
 399 272 446 192 446 138 c 0
 446 83 418 0 262 -0 c 2
 81 -0 l 1
156 64 m 1
 244 64 l 2
 322 64 376 86 376 141 c 0
 376 170 343 216 243 216 c 2
 156 216 l 1
 156 64 l 1
EndSplineSet
EndChar
StartChar: e.cyr
Encoding: 1101 1101 316
Width: 444
Flags: MW
HStem: -11 64<102.6 263.8> 216 56<88 325> 397 64<100.9 293>
LayerCount: 2
Fore
SplineSet
28 40 m 1
 33 107 l 1
 72 80 118 53 191 53 c 0
 273 53 325 121 330 216 c 5
 88 216 l 1
 88 272 l 1
 325 272 l 1
 312 336 269 397 189 397 c 0
 112 397 84 375 45 351 c 1
 33 417 l 1
 89 450 121 461 188 461 c 0
 328 461 408 339 408 223 c 0
 408 101 321 -11 191 -11 c 0
 123 -11 71 11 28 40 c 1
EndSplineSet
EndChar
StartChar: iu
Encoding: 1102 1102 334
Width: 730
Flags: MW
LayerCount: 2
Fore
SplineSet
80 0 m 1
 80 445 l 1
 158 445 l 1
 158 272 l 1
 266 272 l 1
 285 370 368 461 480 461 c 0
 599 461 699 355 699 220 c 0
 699 93 603 -11 480 -11 c 0
 375 -11 265 72 261 216 c 1
 158 216 l 1
 158 0 l 1
 80 0 l 1
339 231 m 0
 339 119 402 53 480 53 c 0
 546 53 621 105 621 231 c 0
 621 337 559 399 480 399 c 0
 416 399 339 352 339 231 c 0
EndSplineSet
EndChar
StartChar: ia
Encoding: 1103 1103 318
Width: 515
Flags: MW
HStem: 0 21G<16 109 357 432> 194 56<274 357> 383 62<188.924 357>
VStem: 69 70<272 386.4> 357 75<0 194 250 383>
LayerCount: 2
Fore
SplineSet
16 0 m 1
 203 198 l 1
 88 219 69 284 69 324 c 0
 69 372 100 436 223 444 c 0
 236 444 249 445 262 445 c 2
 432 445 l 1
 432 0 l 1
 357 0 l 1
 357 194 l 1
 274 194 l 1
 109 0 l 1
 16 0 l 1
139 323 m 0
 139 251 232 250 267 250 c 2
 357 250 l 1
 357 383 l 1
 258 383 l 2
 206 383 139 380 139 323 c 0
EndSplineSet
EndChar
StartChar: dje
Encoding: 1106 1106 392
Width: 489
Flags: MW
HStem: -195 56<158 257.45> 0 21G<79 158> 394 61<212.4 385.6> 554 59<18 79 155 452> 702 20G<79 155>
VStem: 79 79<0 554 613 722> 373 79<161.741 363>
LayerCount: 2
Fore
SplineSet
18 554 m 1
 18 613 l 1
 79 613 l 1
 79 722 l 1
 155 722 l 1
 155 613 l 1
 452 613 l 1
 452 554 l 1
 155 554 l 1
 155 381 l 1
 189 420 234 455 306 455 c 0
 449 455 452 345 452 285 c 2
 452 236 l 1
 447 36 367 -190 158 -195 c 1
 158 -139 l 1
 306 -133 373 36 373 222 c 6
 373 281 l 2
 373 345 358 394 266 394 c 0
 223 394 158 366 158 237 c 2
 158 0 l 1
 79 0 l 1
 79 554 l 1
 18 554 l 1
EndSplineSet
EndChar
StartChar: ie.ukran
Encoding: 1108 1108 438
Width: 439
Flags: MW
LayerCount: 2
Fore
SplineSet
30 223 m 0
 30 339 110 461 250 461 c 0
 320 461 349 450 405 417 c 1
 393 351 l 1
 354 375 326 397 249 397 c 0
 166 397 125 331 113 272 c 1
 350 272 l 1
 350 216 l 1
 108 216 l 1
 115 90 191 53 247 53 c 0
 326 53 374 86 404 107 c 1
 410 40 l 1
 362 8 312 -11 247 -11 c 0
 120 -11 30 98 30 223 c 0
EndSplineSet
EndChar
StartChar: lje
Encoding: 1113 1113 443
Width: 755
Flags: MW
LayerCount: 2
Fore
SplineSet
19 -0 m 1
 19 65 l 1
 56 65 l 0
 81 65 103 72 120 100 c 0
 144 141 160 261 160 445 c 1
 445 445 l 1
 445 272 l 1
 536 272 l 2
 639 272 722 220 722 138 c 0
 722 50 650 -0 537 -0 c 2
 370 -0 l 1
 370 383 l 1
 229 383 l 1
 229 203 208 105 172 53 c 0
 143 12 104 -0 59 -0 c 2
 19 -0 l 1
446 64 m 1
 519 64 l 2
 582 64 652 77 652 139 c 0
 652 191 587 216 519 216 c 2
 446 216 l 1
 446 64 l 1
EndSplineSet
EndChar
StartChar: nje
Encoding: 1114 1114 443
Width: 765
Flags: MW
LayerCount: 2
Fore
SplineSet
81 0 m 1
 81 445 l 1
 156 445 l 1
 156 272 l 1
 379 272 l 1
 379 445 l 1
 454 445 l 1
 454 272 l 1
 545 272 l 2
 648 272 730 218 730 138 c 0
 730 47 660 0 546 -0 c 6
 379 -0 l 1
 379 216 l 1
 156 216 l 1
 156 0 l 1
 81 0 l 1
455 64 m 1
 528 64 l 2
 595 64 660 79 660 139 c 0
 660 191 596 216 529 216 c 6
 455 216 l 1
 455 64 l 1
EndSplineSet
EndChar
StartChar: tshe
Encoding: 1115 1115 401
Width: 517
Flags: MW
HStem: 0 21G<79 158 357 435> 394 61<209.6 373.4> 554 59<18 79 155 396> 702 20G<79 155>
VStem: 79 78<0 336.2 384 554 613 722> 357 78<0 357.7>
LayerCount: 2
Fore
SplineSet
18 554 m 1
 18 613 l 1
 79 613 l 1
 79 722 l 1
 155 722 l 1
 155 613 l 1
 396 613 l 1
 396 554 l 1
 155 554 l 1
 155 384 l 1
 187 422 230 455 298 455 c 0
 431 455 435 349 435 288 c 2
 435 0 l 1
 357 0 l 1
 357 281 l 2
 357 340 347 394 259 394 c 0
 178 394 158 309 158 233 c 6
 158 0 l 1
 79 0 l 1
 79 554 l 1
 18 554 l 1
EndSplineSet
EndChar
StartChar: u.short
Encoding: 1118 1118 403
Width: 461
Flags: MW
HStem: -205 56<77.8551 157.1> 425 20<14 93 371 446> 500 67<190.527 272.857>
VStem: 14 432<445 445> 62 61<597.4 639> 340 61<581.079 644.694>
LayerCount: 2
Fore
SplineSet
62 639 m 5
 123 639 l 5
 129 575 205 567 231 567 c 4
 259 567 334 575 340 639 c 5
 401 639 l 5
 398 546 311 500 232 500 c 4
 152 500 65 547 62 639 c 5
EndSplineSet
Refer: 89 121 S 1 0 0 1 0 0 2
EndChar
StartChar: dzhe
Encoding: 1119 1119 430
Width: 537
Flags: MW
LayerCount: 2
Fore
SplineSet
81 0 m 1
 81 445 l 1
 156 445 l 1
 156 61 l 1
 379 61 l 1
 379 445 l 1
 454 445 l 1
 454 0 l 1
 300 0 l 1
 300 -162 l 1
 236 -162 l 1
 236 0 l 1
 81 0 l 1
EndSplineSet
EndChar
StartChar: Etilde
Encoding: 7868 7868 355
Width: 597
Flags: MW
LayerCount: 2
Fore
SplineSet
158 766 m 1
 160 840 208 881 256 881 c 0xde
 308 881 345 828 390 828 c 0xee
 396 828 402 829 407 832 c 0
 421 839 429 857 430 881 c 1
 491 881 l 1xde
 488 807 441 767 393 767 c 0xee
 341 767 304 820 260 820 c 0xde
 254 820 250 819 245 817 c 0
 230 810 221 792 219 766 c 1
 158 766 l 1
EndSplineSet
Refer: 37 69 N 1 0 0 1 0 0 3
EndChar
StartChar: figuredash
Encoding: 8210 8210 113
Width: 500
Flags: MW
LayerCount: 2
Fore
SplineSet
0 244 m 5
 0 305 l 5
 500 305 l 5
 500 244 l 5
 0 244 l 5
EndSplineSet
EndChar
StartChar: emdash
Encoding: 8212 8212 665
Width: 1000
Flags: MW
LayerCount: 2
Fore
SplineSet
0 244 m 1
 0 305 l 1
 999 305 l 1
 999 244 l 1
 0 244 l 1
EndSplineSet
EndChar
StartChar: daggerdbl
Encoding: 8225 8225 115
Width: 444
Flags: MW
LayerCount: 2
Fore
SplineSet
55 29 m 0
 55 44 64 68 98 68 c 0
 118 68 187 56 197 55 c 1
 193 124 183 178 183 213 c 0
 183 240 190 263 222 263 c 0
 235 263 261 257 261 218 c 0
 260 161 250 110 246 55 c 1
 279 60 330 68 346 68 c 0
 380 68 388 43 388 29 c 0
 388 15 380 -10 346 -10 c 0
 326 -10 256 3 246 4 c 1
 249 -33 261 -125 261 -161 c 0
 261 -199 233 -205 221 -205 c 0
 207 -205 183 -197 183 -160 c 0
 184 -103 194 -51 197 4 c 1
 164 -1 113 -10 98 -10 c 0
 64 -10 55 15 55 29 c 0
55 499 m 0
 55 512 64 538 98 538 c 0
 118 538 187 525 197 524 c 1
 195 561 183 653 183 689 c 0
 183 727 210 733 222 733 c 0
 237 733 261 725 261 688 c 0
 260 631 250 579 246 524 c 1
 279 529 330 538 346 538 c 0
 380 538 388 513 388 498 c 0
 388 485 380 459 346 459 c 0
 326 459 256 472 246 473 c 1
 249 436 261 345 261 308 c 0
 261 270 233 264 221 264 c 0
 207 264 183 272 183 310 c 0
 184 366 194 418 197 473 c 1
 164 468 113 459 98 459 c 0
 64 459 55 484 55 499 c 0
EndSplineSet
EndChar
StartChar: perthousand
Encoding: 8240 8240 123
Width: 1166
Flags: MW
LayerCount: 2
Fore
SplineSet
55 556 m 0
 55 648 105 750 195 750 c 0
 280 750 333 653 333 555 c 0
 333 462 283 361 195 361 c 0
 109 361 55 460 55 556 c 0
130 556 m 4
 130 471 155 423 198 423 c 3
 242 423 263 498 263 556 c 0
 263 615 244 689 195 689 c 0
 146 689 130 618 130 556 c 4
176 -7 m 0
 176 1 183 11 185 13 c 1
 620 737 l 2
 623 742 630 749 639 749 c 0
 649 749 658 741 658 730 c 0
 658 721 650 710 646 702 c 2
 221 -5 l 2
 215 -14 209 -27 196 -27 c 0
 185 -27 176 -18 176 -7 c 0
499 167 m 0
 499 259 551 361 639 361 c 0
 728 361 777 260 777 166 c 0
 777 73 726 -28 639 -28 c 0
 554 -28 499 71 499 167 c 0
574 167 m 0
 574 89 596 34 642 34 c 3
 687 34 707 111 707 167 c 0
 707 227 688 300 639 300 c 0
 590 300 574 230 574 167 c 0
832 167 m 0
 832 273 894 361 972 361 c 0
 1036 361 1110 291 1110 166 c 0
 1110 58 1047 -28 972 -28 c 0
 903 -28 832 49 832 167 c 0
907 167 m 0
 907 78 936 34 975 34 c 3
 1009 34 1040 89 1040 167 c 0
 1040 249 1006 300 972 300 c 0
 930 300 907 252 907 167 c 0
EndSplineSet
EndChar
StartChar: minute
Encoding: 8242 8242 674
Width: 194
Flags: MW
LayerCount: 2
Fore
SplineSet
13 495 m 1
 104 694 l 1
 183 694 l 1
 74 495 l 1
 13 495 l 1
EndSplineSet
EndChar
StartChar: guilsinglright
Encoding: 8250 8250 110
Width: 444
Flags: MW
LayerCount: 2
Fore
SplineSet
110 -0 m 1
 254 220 l 1
 110 439 l 1
 171 439 l 1
 332 219 l 1
 171 -0 l 1
 110 -0 l 1
EndSplineSet
EndChar
StartChar: overline
Encoding: 8254 8254 666
Width: 778
Flags: MW
LayerCount: 2
Fore
SplineSet
84 789 m 0
 84 811 107 809 118 809 c 2
 660 809 l 2
 671 809 693 811 693 789 c 0
 693 781 689 769 665 769 c 2
 118 769 l 2
 105 769 84 769 84 789 c 0
EndSplineSet
EndChar
StartChar: fraction
Encoding: 8260 8260 103
Width: 500
Flags: MW
LayerCount: 2
Fore
SplineSet
56 -230 m 0
 56 -224 58 -220 59 -215 c 1
 400 723 l 2
 405 735 409 749 424 749 c 0
 434 749 443 740 443 729 c 0
 443 722 440 716 437 709 c 2
 99 -222 l 2
 96 -231 91 -249 75 -249 c 0
 65 -249 56 -241 56 -230 c 0
EndSplineSet
EndChar
StartChar: zero.superior
Encoding: 8304 8304 635
Width: 444
VWidth: 950
Flags: MW
LayerCount: 2
Fore
SplineSet
35 546 m 1
 35 550 35 559 35 563 c 1
 36 631 46 734 161 762 c 0
 178 766 198 768 221 768 c 0
 267 768 315 757 347 731 c 0
 402 687 407 610 408 567 c 1
 408 563 408 556 408 553 c 1
 408 450 385 367 280 343 c 0
 263 339 245 337 221 337 c 0
 92 337 35 412 35 546 c 1
126 548 m 1
 126 450 146 415 186 400 c 0
 197 396 210 394 222 394 c 0
 233 394 254 397 273 409 c 0
 305 430 316 470 317 550 c 1
 317 553 317 572 317 576 c 1
 317 623 308 664 291 683 c 0
 274 702 247 710 221 710 c 0
 159 710 126 667 126 577 c 1
 126 573 126 552 126 548 c 1
EndSplineSet
EndChar
StartChar: four.superior
Encoding: 8308 8308 637
Width: 444
VWidth: 950
Flags: MW
LayerCount: 2
Fore
SplineSet
24 447 m 1
 24 501 l 1
 24 505 25 505 29 509 c 1
 234 755 l 1
 338 755 l 1
 338 504 l 1
 418 504 l 1
 418 447 l 1
 338 447 l 1
 338 350 l 1
 252 350 l 1
 252 447 l 1
 24 447 l 1
102 504 m 1
 257 504 l 1
 257 702 l 1
 244 663 206 622 102 504 c 1
EndSplineSet
EndChar
StartChar: five.superior
Encoding: 8309 8309 637
Width: 444
VWidth: 950
Flags: MW
LayerCount: 2
Fore
SplineSet
31 397 m 1
 68 444 l 1
 72 439 76 435 81 431 c 0
 95 419 113 410 130 404 c 0
 155 396 181 393 199 393 c 0
 230 393 257 400 275 416 c 0
 291 430 298 451 298 478 c 1
 298 481 298 491 298 494 c 1
 296 517 289 537 275 549 c 0
 263 559 246 564 228 564 c 0
 164 564 140 520 140 520 c 1
 68 520 l 1
 68 755 l 1
 369 755 l 1
 369 699 l 1
 154 699 l 1
 154 601 l 1
 176 610 196 617 231 617 c 0
 276 617 316 607 346 588 c 0
 379 567 399 524 399 477 c 0
 399 432 378 398 344 375 c 0
 307 349 255 337 201 337 c 0
 166 337 134 342 107 352 c 0
 70 364 45 383 31 397 c 1
EndSplineSet
EndChar
StartChar: six.superior
Encoding: 8310 8310 639
Width: 444
VWidth: 950
Flags: MW
LayerCount: 2
Fore
SplineSet
37 561 m 4
 37 635 62 679 95 709 c 4
 136 748 198 768 272 768 c 4
 309 768 333 765 359 757 c 5
 359 708 l 5
 334 714 312 720 274 720 c 4
 220 720 187 702 169 686 c 4
 147 666 133 637 132 597 c 5
 159 624 203 644 261 644 c 4
 318 644 345 629 366 611 c 4
 398 583 405 546 406 511 c 5
 406 509 406 506 406 504 c 5
 406 466 398 433 362 402 c 4
 320 364 267 359 224 359 c 4
 172 359 124 371 91 402 c 4
 48 440 37 503 37 561 c 4
133 512 m 4
 133 507 134 504 134 499 c 4
 138 459 152 413 225 413 c 4
 284 413 305 442 310 467 c 4
 312 478 312 491 312 502 c 5
 312 506 312 517 312 520 c 5
 311 540 308 556 296 570 c 4
 279 588 255 595 228 595 c 4
 172 595 142 565 135 530 c 4
 134 524 133 518 133 512 c 4
EndSplineSet
EndChar
StartChar: seven.superior
Encoding: 8311 8311 640
Width: 444
VWidth: 950
Flags: MW
LayerCount: 2
Fore
SplineSet
36 690 m 5
 36 755 l 5
 406 755 l 5
 406 693 l 5
 285 598 220 487 220 364 c 5
 124 364 l 5
 124 485 193 594 344 690 c 5
 36 690 l 5
EndSplineSet
EndChar
StartChar: eight.superior
Encoding: 8312 8312 641
Width: 444
Flags: MW
LayerCount: 2
Fore
SplineSet
36 479 m 4
 36 523 70 562 148 579 c 5
 106 589 49 613 49 664 c 4
 49 718 102 768 221 768 c 5
 222 768 223 768 224 768 c 5
 340 767 394 719 394 664 c 4
 394 611 333 589 295 579 c 5
 359 567 406 531 406 479 c 4
 406 417 348 359 221 359 c 4
 94 359 36 417 36 479 c 4
130 477 m 5
 130 454 137 434 159 423 c 4
 173 415 194 411 221 411 c 4
 245 411 265 415 281 423 c 4
 306 435 313 457 313 479 c 5
 313 481 312 490 312 492 c 5
 309 511 302 528 285 538 c 4
 270 548 249 551 221 551 c 4
 197 551 176 548 161 539 c 4
 139 527 133 507 130 489 c 5
 130 487 130 479 130 477 c 5
132 660 m 5
 132 641 141 627 157 617 c 4
 172 608 193 605 220 605 c 4
 248 605 270 609 284 617 c 4
 303 627 310 643 310 660 c 5
 310 663 310 670 309 672 c 5
 306 687 299 699 285 707 c 4
 271 716 250 720 222 720 c 4
 195 720 173 716 159 708 c 4
 140 698 135 684 133 669 c 5
 133 668 132 662 132 660 c 5
EndSplineSet
EndChar
StartChar: nine.superior
Encoding: 8313 8313 642
Width: 444
VWidth: 950
Flags: MW
LayerCount: 2
Fore
SplineSet
37 613 m 0
 37 656 44 691 85 725 c 0
 118 753 156 768 223 768 c 0
 267 768 308 758 339 735 c 0
 390 697 406 629 406 558 c 0
 406 493 387 425 330 382 c 0
 290 352 236 337 182 337 c 0
 130 337 98 348 64 365 c 1
 97 411 l 1
 119 400 140 391 183 391 c 0
 224 391 259 405 281 428 c 0
 295 444 307 470 310 506 c 1
 310 509 311 514 311 517 c 1
 286 492 245 467 182 467 c 0
 124 467 97 484 77 503 c 0
 44 534 37 574 37 613 c 0
131 616 m 1
 132 570 135 555 154 538 c 0
 168 526 188 520 215 520 c 0
 241 520 268 527 286 545 c 0
 301 560 310 581 310 608 c 0
 310 647 302 713 223 713 c 0
 201 713 184 709 171 703 c 0
 141 689 137 662 133 644 c 1
 130 638 131 623 131 616 c 1
EndSplineSet
EndChar
StartChar: n.superior
Encoding: 8319 8319 708
Width: 323
VWidth: 950
Flags: MW
LayerCount: 2
Fore
SplineSet
42 350 m 1
 42 628 l 1
 103 628 l 1
 103 597 l 1
 103 576 l 1
 113 594 140 631 196 631 c 0
 227 631 247 624 260 611 c 0
 277 595 279 569 280 543 c 0
 280 535 281 527 281 519 c 2
 281 350 l 1
 217 350 l 1
 217 532 l 2
 217 564 211 592 167 592 c 0
 124 592 107 546 106 509 c 2
 106 350 l 1
 42 350 l 1
EndSplineSet
EndChar
StartChar: euro
Encoding: 8364 8364 337
Width: 722
Flags: MW
LayerCount: 2
Fore
SplineSet
-0 256 m 1
 31 328 l 1
 107 328 l 1
 107 328 106 339 106 347 c 24
 106 355 107 366 107 366 c 1
 -0 366 l 1
 31 438 l 1
 119 438 l 1
 150 561 271 694 453 694 c 0
 553 694 628 654 687 601 c 1
 656 529 l 1
 604 583 531 616 453 616 c 0
 381 616 255 582 200 438 c 1
 615 438 l 1
 584 366 l 1
 185 366 l 1
 185 366 184 355 184 347 c 24
 184 339 185 328 185 328 c 1
 567 328 l 1
 535 256 l 1
 200 256 l 1
 241 150 336 78 455 78 c 0
 599 78 683 168 687 168 c 1
 687 90 l 1
 628 38 551 0 453 0 c 0
 280 0 153 124 119 256 c 1
 -0 256 l 1
EndSplineSet
EndChar
StartChar: celsius
Encoding: 8451 8451 715
Width: 861
Flags: MW
LayerCount: 2
Fore
SplineSet
0 583 m 0
 0 644 50 694 111 694 c 0
 175 694 222 642 222 584 c 0
 222 522 172 472 111 472 c 0
 47 472 0 525 0 583 c 0
40 583 m 0
 40 547 69 513 111 513 c 0
 149 513 181 542 181 583 c 0
 181 624 148 654 111 654 c 0xde
 73 654 40 624 40 583 c 0
EndSplineSet
Refer: 35 67 N 1 0 0 1 222 0 2
EndChar
StartChar: numero
Encoding: 8470 8470 517
Width: 819
Flags: MW
LayerCount: 2
Fore
SplineSet
95 -0 m 1
 95 694 l 1
 220 694 l 1
 267 528 380 86 380 86 c 1
 380 694 l 1
 458 694 l 1
 458 -0 l 1
 333 -0 l 1
 293 144 188 495 173 611 c 1
 173 -0 l 1
 95 -0 l 1
537 160 m 1
 537 219 l 1
 738 219 l 1
 738 160 l 1
 537 160 l 1
537 401 m 0
 537 477 581 544 637 544 c 0
 692 544 738 482 738 401 c 0
 738 324 691 267 637 267 c 0
 590 267 537 316 537 401 c 0
600 401 m 0
 600 347 617 332 637 332 c 0
 659 332 675 347 675 397 c 0
 675 469 653 482 638 482 c 0
 622 482 600 470 600 401 c 0
EndSplineSet
EndChar
StartChar: trademark
Encoding: 8482 8482 219
Width: 667
Flags: MW
LayerCount: 2
Fore
SplineSet
1 716 m 1
 1 748 33 750 44 750 c 2
 283 750 l 2
 304 750 332 742 332 720 c 0
 332 699 312 689 272 689 c 2
 205 689 l 1
 205 391 l 2
 205 361 184 353 166 353 c 0
 125 353 127 387 127 397 c 2
 127 689 l 1
 46 689 l 2
 0 689 3 715 1 716 c 1
350 392 m 10
 350 733 l 2
 350 760 365 772 389 772 c 0
 405 772 420 766 426 751 c 2
 500 587 l 1
 574 751 l 2
 580 765 593 772 610 772 c 0
 640 772 650 758 650 733 c 2
 650 392 l 2
 648 374 643 353 610 353 c 0
 584 353 571 368 571 397 c 2
 571 560 l 5
 537 484 534 463 500 463 c 0
 466 463 463 482 428 560 c 1
 428 398 l 2
 428 367 415 353 389 353 c 0
 363 353 350 367 350 392 c 10
EndSplineSet
EndChar
StartChar: mho
Encoding: 8487 8487 711
Width: 722
Flags: MW
LayerCount: 2
Fore
SplineSet
44 623 m 1
 44 694 l 1
 289 694 l 1
 287 524 144 395 144 233 c 0
 144 117 244 39 360 39 c 0
 476 39 576 117 576 233 c 0
 576 395 434 525 432 694 c 1
 677 694 l 1
 677 623 l 1
 613 624 l 1
 503 624 l 1
 543 484 666 375 666 232 c 0
 666 95 534 -22 360 -22 c 0
 200 -22 55 83 55 232 c 0
 55 377 176 479 218 624 c 1
 108 624 l 1
 44 623 l 1
EndSplineSet
EndChar
StartChar: estimated
Encoding: 8494 8494 517
Width: 669
Flags: MW
LayerCount: 2
Fore
SplineSet
27 351 m 0
 27 539 161 710 349 710 c 0
 466 710 640 651 640 361 c 1
 112 361 l 1
 112 354 l 2
 112 178 227 50 365 50 c 0
 493 50 586 89 629 106 c 1
 635 40 l 1
 565 14 473 -11 366 -11 c 0
 163 -11 27 163 27 351 c 0
118 417 m 1
 561 417 l 1
 548 553 476 649 348 649 c 0
 236 649 139 547 118 417 c 1
EndSplineSet
EndChar
StartChar: aleph
Encoding: 8501 8501 778
Width: 722
Flags: W
LayerCount: 2
Fore
SplineSet
559 694 m 1
 637 694 l 1
 578 476 l 2
 550 371 514 297 471 255 c 1
 655 0 l 1
 566 0 l 1
 287 388 l 1
 271 377 256 358 244 332 c 128
 232 306 217 266 201 210 c 2
 144 0 l 1
 67 0 l 1
 125 218 l 2
 155 332 194 409 242 450 c 1
 67 694 l 1
 156 694 l 1
 427 317 l 1
 453 341 478 398 502 484 c 2
 559 694 l 1
EndSplineSet
Colour: ff
EndChar
StartChar: onethird
Encoding: 8531 8531 656
Width: 444
Flags: MW
LayerCount: 2
Fore
SplineSet
41 -164 m 1
 50 -103 l 1
 82 -112 116 -121 155 -126 c 0
 174 -128 194 -130 216 -130 c 0xe8
 255 -130 279 -120 293 -108 c 4
 308 -95 312 -79 312 -68 c 0xe8
 312 -46 295 -29 281 -21 c 0
 259 -8 233 -7 207 -7 c 2
 166 -7 l 1
 166 55 l 1
 207 59 243 58 272 84 c 0
 283 95 291 109 291 125 c 0
 291 143 277 171 219 171 c 0
 160 171 121 146 88 119 c 1
 55 175 l 1
 100 208 154 230 219 230 c 0
 305 230 374 184 374 125 c 4xf0
 374 55 305 26 303 23 c 1
 337 13 401 -15 401 -69 c 0
 401 -100 380 -138 337 -163 c 0
 308 -180 268 -192 218 -192 c 0
 198 -192 178 -191 157 -189 c 0
 122 -185 84 -177 41 -164 c 1
8 280 m 1
 10 286 13 290 16 293 c 0
 22 298 29 298 35 298 c 2
 48 298 l 1
 404 298 l 2
 413 298 420 298 425 295 c 0
 429 293 432 289 434 283 c 1
 434 281 434 280 434 278 c 0
 434 272 433 267 428 263 c 0
 424 260 417 258 407 258 c 2
 36 258 l 2
 25 258 18 260 14 263 c 0
 7 268 9 277 8 280 c 1
69 672 m 1
 69 731 l 1
 123 731 191 733 252 772 c 1
 272 772 l 1
 272 396 l 1
 374 396 l 1
 374 338 l 1
 82 338 l 1
 82 396 l 1
 192 396 l 1
 192 686 l 1xfc
 156 676 124 673 69 672 c 1
EndSplineSet
EndChar
StartChar: twothirds
Encoding: 8532 8532 657
Width: 444
Flags: MW
LayerCount: 2
Fore
SplineSet
41 -164 m 1
 50 -103 l 1
 82 -112 116 -121 155 -126 c 0
 174 -128 194 -130 216 -130 c 0xe8
 255 -130 279 -120 293 -108 c 4
 308 -95 312 -79 312 -68 c 0xe8
 312 -46 295 -29 281 -21 c 0
 259 -8 233 -7 207 -7 c 2
 166 -7 l 1
 166 55 l 1
 207 59 243 58 272 84 c 0
 283 95 291 109 291 125 c 0
 291 143 277 171 219 171 c 0
 160 171 121 146 88 119 c 1
 55 175 l 1
 100 208 154 230 219 230 c 0
 305 230 374 184 374 125 c 0xf0
 374 55 305 26 303 23 c 1
 337 13 401 -15 401 -69 c 0
 401 -100 380 -138 337 -163 c 0
 308 -180 268 -192 218 -192 c 0
 198 -192 178 -191 157 -189 c 0
 122 -185 84 -177 41 -164 c 1
41 688 m 1
 87 748 134 774 207 774 c 0
 317 774 393 708 393 617 c 0
 393 533 303 517 232 480 c 0
 220 475 209 467 116 412 c 1
 265 412 l 1
 290 413 l 1
 393 413 l 1
 393 338 l 1
 49 338 l 1
 49 412 l 1
 138 468 150 476 161 482 c 0
 222 515 310 539 310 615 c 0
 310 669 262 706 194 706 c 0
 122 706 98 662 80 626 c 1
 41 688 l 1
8 280 m 1
 10 286 13 290 16 293 c 0
 22 298 29 298 35 298 c 2
 48 298 l 1
 404 298 l 2
 413 298 420 298 425 295 c 0
 429 293 432 289 434 283 c 1
 434 281 434 280 434 278 c 0
 434 272 433 267 428 263 c 0
 424 260 417 258 407 258 c 2
 36 258 l 2
 25 258 18 260 14 263 c 0
 7 268 9 277 8 280 c 1
EndSplineSet
EndChar
StartChar: onefifth
Encoding: 8533 8533 659
Width: 444
Flags: MW
LayerCount: 2
Fore
SplineSet
31 -132 m 1
 68 -85 l 1
 72 -90 76 -94 81 -98 c 0
 95 -110 113 -119 130 -125 c 0
 155 -133 181 -136 199 -136 c 0
 230 -136 257 -129 275 -113 c 0
 291 -99 298 -78 298 -51 c 1
 298 -48 298 -38 298 -35 c 1
 296 -12 289 8 275 20 c 0
 263 30 246 35 228 35 c 0
 164 35 140 -9 140 -9 c 1
 68 -9 l 1
 68 226 l 1
 369 226 l 1
 369 170 l 1
 154 170 l 1
 154 72 l 1
 176 81 196 88 231 88 c 0
 276 88 316 78 346 59 c 0
 379 38 399 -5 399 -52 c 0
 399 -97 378 -131 344 -154 c 0
 307 -180 255 -192 201 -192 c 0
 166 -192 134 -187 107 -177 c 0
 70 -165 45 -146 31 -132 c 1
8 280 m 1
 10 286 13 290 16 293 c 0
 22 298 29 298 35 298 c 2
 48 298 l 1
 404 298 l 2
 413 298 420 298 425 295 c 0
 429 293 432 289 434 283 c 1
 434 281 434 280 434 278 c 0
 434 272 433 267 428 263 c 0
 424 260 417 258 407 258 c 2
 36 258 l 2
 25 258 18 260 14 263 c 0
 7 268 9 277 8 280 c 1
69 672 m 1
 69 731 l 1
 123 731 191 733 252 772 c 1
 272 772 l 1
 272 396 l 1
 374 396 l 1
 374 338 l 1
 82 338 l 1
 82 396 l 1
 192 396 l 1
 192 686 l 1xfc
 156 676 124 673 69 672 c 1
EndSplineSet
EndChar
StartChar: oneeighth
Encoding: 8539 8539 653
Width: 444
Flags: MW
LayerCount: 2
Fore
SplineSet
36 -55 m 4
 36 -11 70 28 148 45 c 5
 106 55 49 79 49 130 c 4
 49 184 102 234 221 234 c 5
 222 234 223 234 224 234 c 5
 340 233 394 185 394 130 c 4
 394 77 333 55 295 45 c 5
 359 33 406 -3 406 -55 c 4
 406 -117 348 -175 221 -175 c 4
 94 -175 36 -117 36 -55 c 4
130 -57 m 5
 130 -80 137 -100 159 -111 c 4
 173 -119 194 -123 221 -123 c 4
 245 -123 265 -119 281 -111 c 4
 306 -99 313 -77 313 -55 c 5
 313 -53 312 -44 312 -42 c 5
 309 -23 302 -6 285 4 c 4
 270 14 249 17 221 17 c 4
 197 17 176 14 161 5 c 4
 139 -7 133 -27 130 -45 c 5
 130 -47 130 -55 130 -57 c 5
132 126 m 5
 132 107 141 93 157 83 c 4
 172 74 193 71 220 71 c 4
 248 71 270 75 284 83 c 4
 303 93 310 109 310 126 c 5
 310 129 310 136 309 138 c 5
 306 153 299 165 285 173 c 4
 271 182 250 186 222 186 c 4
 195 186 173 182 159 174 c 4
 140 164 135 150 133 135 c 5
 133 134 132 128 132 126 c 5
8 280 m 1
 10 286 13 290 16 293 c 0
 22 298 29 298 35 298 c 2
 48 298 l 1
 404 298 l 2
 413 298 420 298 425 295 c 0
 429 293 432 289 434 283 c 1
 434 281 434 280 434 278 c 0
 434 272 433 267 428 263 c 0
 424 260 417 258 407 258 c 2
 36 258 l 2
 25 258 18 260 14 263 c 0
 7 268 9 277 8 280 c 1
69 672 m 1
 69 731 l 1
 123 731 191 733 252 772 c 1
 272 772 l 1
 272 396 l 1
 374 396 l 1
 374 338 l 1
 82 338 l 1
 82 396 l 1
 192 396 l 1
 192 686 l 1xfc
 156 676 124 673 69 672 c 1
EndSplineSet
EndChar
StartChar: threeeighths
Encoding: 8540 8540 653
Width: 444
Flags: MW
LayerCount: 2
Fore
SplineSet
36 -70 m 0
 36 -24 70 17 148 35 c 1
 106 45 49 70 49 124 c 0
 49 181 102 234 221 234 c 1
 222 234 223 234 224 234 c 1
 340 233 394 182 394 124 c 0
 394 68 333 45 295 35 c 1
 359 22 406 -15 406 -70 c 0
 406 -135 348 -197 221 -197 c 0
 94 -197 36 -135 36 -70 c 0
130 -72 m 1
 130 -96 137 -117 159 -129 c 0
 173 -137 194 -142 221 -142 c 0
 245 -142 265 -137 281 -129 c 0
 306 -116 313 -93 313 -70 c 1
 313 -68 312 -59 312 -57 c 1
 309 -37 302 -19 285 -8 c 0
 270 2 249 6 221 6 c 0
 197 6 176 2 161 -7 c 0
 139 -20 133 -41 130 -60 c 1
 130 -62 130 -70 130 -72 c 1
132 120 m 1
 132 100 141 85 157 75 c 0
 172 66 193 62 220 62 c 0
 248 62 270 67 284 75 c 0
 303 86 310 102 310 120 c 1
 310 123 310 131 309 133 c 1
 306 149 299 162 285 170 c 0
 271 179 250 183 222 183 c 0
 195 183 173 179 159 171 c 0
 140 161 135 146 133 130 c 1
 133 129 132 122 132 120 c 1
41 345 m 1
 50 412 l 1
 82 402 116 391 155 386 c 0
 174 383 194 382 216 382 c 0xe8
 255 382 279 392 293 406 c 0
 308 420 312 437 312 449 c 0xe8
 312 473 295 491 281 500 c 0
 259 514 233 515 207 515 c 2
 166 515 l 1
 166 583 l 1
 207 587 243 586 272 614 c 0
 283 626 291 641 291 658 c 0
 291 677 277 708 219 708 c 0
 160 708 121 681 88 652 c 1
 55 712 l 1
 100 748 154 772 219 772 c 0
 305 772 374 722 374 658 c 0xf0
 374 582 305 551 303 548 c 1
 337 537 401 506 401 448 c 0
 401 414 380 374 337 347 c 0
 308 328 268 315 218 315 c 0
 198 315 178 317 157 319 c 0
 122 323 84 331 41 345 c 1
8 280 m 1
 10 286 13 290 16 293 c 0
 22 298 29 298 35 298 c 2
 48 298 l 1
 404 298 l 2
 413 298 420 298 425 295 c 0
 429 293 432 289 434 283 c 1
 434 281 434 280 434 278 c 0
 434 272 433 267 428 263 c 0
 424 260 417 258 407 258 c 2
 36 258 l 2
 25 258 18 260 14 263 c 0
 7 268 9 277 8 280 c 1
EndSplineSet
EndChar
StartChar: fiveeighths
Encoding: 8541 8541 655
Width: 444
Flags: MW
LayerCount: 2
Fore
SplineSet
31 379 m 5
 68 428 l 5
 72 423 76 419 81 415 c 4
 95 402 113 392 130 386 c 4
 155 378 181 375 199 375 c 4
 230 375 257 382 275 399 c 4
 291 414 298 436 298 464 c 5
 298 467 298 478 298 481 c 5
 296 505 289 526 275 539 c 4
 263 549 246 554 228 554 c 4
 164 554 140 508 140 508 c 5
 68 508 l 5
 68 755 l 5
 369 755 l 5
 369 696 l 5
 154 696 l 5
 154 593 l 5
 176 602 196 610 231 610 c 4
 276 610 316 600 346 580 c 4
 379 558 399 512 399 463 c 4
 399 416 378 380 344 356 c 4
 307 329 255 316 201 316 c 4
 166 316 134 322 107 332 c 4
 70 345 45 364 31 379 c 5
8 280 m 1
 10 286 13 290 16 293 c 0
 22 298 29 298 35 298 c 2
 48 298 l 1
 404 298 l 2
 413 298 420 298 425 295 c 0
 429 293 432 289 434 283 c 1
 434 281 434 280 434 278 c 0
 434 272 433 267 428 263 c 0
 424 260 417 258 407 258 c 2
 36 258 l 2
 25 258 18 260 14 263 c 0
 7 268 9 277 8 280 c 1
36 -55 m 0
 36 -11 70 28 148 45 c 1
 106 55 49 79 49 130 c 0
 49 184 102 234 221 234 c 1
 222 234 223 234 224 234 c 1
 340 233 394 185 394 130 c 0
 394 77 333 55 295 45 c 1
 359 33 406 -3 406 -55 c 0
 406 -117 348 -175 221 -175 c 0
 94 -175 36 -117 36 -55 c 0
130 -57 m 1
 130 -80 137 -100 159 -111 c 0
 173 -119 194 -123 221 -123 c 0
 245 -123 265 -119 281 -111 c 0
 306 -99 313 -77 313 -55 c 1
 313 -53 312 -44 312 -42 c 1
 309 -23 302 -6 285 4 c 0
 270 14 249 17 221 17 c 0
 197 17 176 14 161 5 c 0
 139 -7 133 -27 130 -45 c 1
 130 -47 130 -55 130 -57 c 1
132 126 m 1
 132 107 141 93 157 83 c 0
 172 74 193 71 220 71 c 0
 248 71 270 75 284 83 c 0
 303 93 310 109 310 126 c 1
 310 129 310 136 309 138 c 1
 306 153 299 165 285 173 c 0
 271 182 250 186 222 186 c 0
 195 186 173 182 159 174 c 0
 140 164 135 150 133 135 c 1
 133 134 132 128 132 126 c 1
EndSplineSet
EndChar
StartChar: seveneighths
Encoding: 8542 8542 656
Width: 444
Flags: MW
LayerCount: 2
Fore
SplineSet
36 684 m 1
 36 755 l 1
 406 755 l 1
 406 687 l 1
 285 582 220 457 220 322 c 1
 124 322 l 1
 124 455 193 578 344 684 c 1
 36 684 l 1
8 280 m 1
 10 286 13 290 16 293 c 0
 22 298 29 298 35 298 c 2
 48 298 l 1
 404 298 l 2
 413 298 420 298 425 295 c 0
 429 293 432 289 434 283 c 1
 434 281 434 280 434 278 c 0
 434 272 433 267 428 263 c 0
 424 260 417 258 407 258 c 2
 36 258 l 2
 25 258 18 260 14 263 c 0
 7 268 9 277 8 280 c 1
36 -55 m 0
 36 -11 70 28 148 45 c 1
 106 55 49 79 49 130 c 0
 49 184 102 234 221 234 c 1
 222 234 223 234 224 234 c 1
 340 233 394 185 394 130 c 0
 394 77 333 55 295 45 c 1
 359 33 406 -3 406 -55 c 0
 406 -117 348 -175 221 -175 c 0
 94 -175 36 -117 36 -55 c 0
130 -57 m 1
 130 -80 137 -100 159 -111 c 0
 173 -119 194 -123 221 -123 c 0
 245 -123 265 -119 281 -111 c 0
 306 -99 313 -77 313 -55 c 1
 313 -53 312 -44 312 -42 c 1
 309 -23 302 -6 285 4 c 0
 270 14 249 17 221 17 c 0
 197 17 176 14 161 5 c 0
 139 -7 133 -27 130 -45 c 1
 130 -47 130 -55 130 -57 c 1
132 126 m 1
 132 107 141 93 157 83 c 0
 172 74 193 71 220 71 c 0
 248 71 270 75 284 83 c 0
 303 93 310 109 310 126 c 1
 310 129 310 136 309 138 c 1
 306 153 299 165 285 173 c 0
 271 182 250 186 222 186 c 0
 195 186 173 182 159 174 c 0
 140 164 135 150 133 135 c 1
 133 134 132 128 132 126 c 1
EndSplineSet
EndChar
StartChar: arrowboth
Encoding: 8596 8596 783
Width: 1000
Flags: MW
LayerCount: 2
Fore
SplineSet
55 250 m 1
 161 298 238 396 257 510 c 1
 297 510 l 1
 288 452 258 355 159 270 c 1
 840 270 l 1
 777 320 717 408 701 510 c 1
 741 510 l 1
 760 396 837 298 943 250 c 1
 837 202 760 104 741 -10 c 1
 701 -10 l 1
 710 48 740 145 840 230 c 1
 159 230 l 1
 221 179 281 92 297 -10 c 1
 257 -10 l 1
 238 104 161 202 55 250 c 1
EndSplineSet
EndChar
StartChar: arrowdblright
Encoding: 8658 8658 781
Width: 1000
Flags: W
LayerCount: 2
Fore
SplineSet
140 235 m 2
 140 255 l 2
 140 261 146 265 150 265 c 2
 760 265 l 1
 783 285 l 1
 805 305 l 1
 784 324 l 1
 760 345 l 1
 150 345 l 2
 144 345 140 351 140 355 c 2
 140 375 l 2
 140 381 146 385 150 385 c 2
 715 385 l 1
 560 523 l 2
 556 527 556 533 559 537 c 2
 572 552 l 2
 576 557 584 555 587 552 c 2
 811 353 l 1
 857 312 l 2
 862 308 861 302 857 298 c 2
 812 258 l 1
 587 58 l 2
 583 54 575 55 572 58 c 2
 559 73 l 2
 555 77 556 84 560 87 c 2
 715 225 l 1
 150 225 l 2
 144 225 140 231 140 235 c 2
EndSplineSet
Colour: ff
EndChar
StartChar: arrowdblboth
Encoding: 8660 8660 782
Width: 1000
Flags: MW
LayerCount: 2
Fore
SplineSet
55 250 m 1
 160 298 246 393 265 550 c 1
 305 550 l 1
 295 455 266 391 232 345 c 1
 766 345 l 1
 732 391 703 455 693 550 c 1
 733 550 l 1
 752 393 838 298 943 250 c 1
 835 199 752 108 732 -50 c 1
 692 -50 l 1
 703 39 731 105 766 155 c 1
 232 155 l 1
 267 105 295 39 306 -50 c 1
 266 -50 l 1
 246 108 163 199 55 250 c 1
135 250 m 1
 157 235 179 217 200 195 c 1
 798 195 l 1
 819 217 841 235 863 250 c 1
 843 266 822 283 800 305 c 1
 198 305 l 1
 176 283 155 266 135 250 c 1
EndSplineSet
EndChar
StartChar: universal
Encoding: 8704 8704 762
Width: 778
Flags: W
LayerCount: 2
Fore
SplineSet
81 524 m 0
 81 542 96 555 111 555 c 0
 133 555 141 534 148 520 c 2
 218 381 l 1
 560 381 l 1
 630 520 l 2
 637 534 645 555 667 555 c 0
 682 555 697 542 697 524 c 0
 697 513 687 497 681 485 c 2
 425 -22 l 2
 411 -50 397 -55 389 -55 c 0
 373 -55 368 -51 353 -22 c 2
 88 503 l 2
 84 510 81 517 81 524 c 0
249 320 m 1
 389 43 l 1
 398 60 409 83 420 104 c 2
 529 320 l 1
 249 320 l 1
EndSplineSet
EndChar
StartChar: partialdiff
Encoding: 8706 8706 723
Width: 500
Flags: W
LayerCount: 2
Fore
SplineSet
22 177 m 0
 22 269 65 339 122 392 c 0
 168 434 227 461 288 461 c 0
 329 461 355 450 384 434 c 1
 345 559 262 642 146 677 c 1
 206 722 l 1
 357 676 478 540 478 337 c 0
 478 230 460 159 406 91 c 0
 354 27 277 -11 204 -11 c 0
 146 -11 96 14 62 56 c 0
 37 88 22 129 22 177 c 0
102 185 m 0
 102 143 114 109 136 86 c 0
 155 65 183 53 216 53 c 0
 253 53 288 67 316 92 c 0
 360 131 390 191 390 272 c 0
 390 315 377 349 352 372 c 0
 333 389 307 399 276 399 c 0
 244 399 206 387 174 360 c 0
 136 328 102 265 102 185 c 0
EndSplineSet
EndChar
StartChar: existential
Encoding: 8707 8707 763
Width: 777
Flags: W
LayerCount: 2
Fore
SplineSet
106 13 m 0
 106 30 119 44 142 44 c 0
 145 44 149 43 152 43 c 2
 609 43 l 1
 609 224 l 1
 144 224 l 2
 121 224 106 237 106 255 c 0
 106 272 119 286 142 286 c 0
 145 286 149 285 152 285 c 2
 609 285 l 1
 609 494 l 1
 142 494 l 2
 118 494 106 507 106 524 c 0
 106 543 121 555 146 555 c 2
 630 555 l 2
 653 555 670 545 670 524 c 2
 670 13 l 2
 670 -7 655 -18 630 -18 c 2
 144 -18 l 2
 121 -18 106 -5 106 13 c 0
EndSplineSet
EndChar
StartChar: emptyset
Encoding: 8709 8709 764
Width: 778
Flags: W
LayerCount: 2
Fore
SplineSet
87 250 m 0
 87 417 222 552 389 552 c 0
 461 552 528 526 580 484 c 1
 625 529 l 2
 634 538 642 544 653 544 c 0
 668 544 682 530 682 515 c 0
 682 504 677 496 666 485 c 2
 623 441 l 1
 666 389 691 323 691 250 c 0
 691 83 556 -52 389 -52 c 0
 316 -52 250 -27 198 16 c 1
 152 -30 l 2
 142 -39 135 -44 124 -44 c 0
 107 -44 94 -29 94 -13 c 0
 94 2 105 9 115 19 c 2
 155 59 l 1
 113 111 87 178 87 250 c 0
148 250 m 0
 148 195 166 144 198 103 c 1
 536 441 l 1
 495 473 444 491 389 491 c 0
 256 491 148 383 148 250 c 0
241 60 m 1
 282 28 333 9 389 9 c 0
 522 9 630 117 630 250 c 0
 630 306 611 357 579 398 c 1
 241 60 l 1
EndSplineSet
EndChar
StartChar: nabla
Encoding: 8711 8711 724
Width: 833
Flags: W
LayerCount: 2
Fore
SplineSet
792 691 m 1
 463 -3 l 1
 372 -3 l 1
 43 691 l 1
 792 691 l 1
675 607 m 1
 182 607 l 2
 182 607 407 107 428 67 c 1
 675 607 l 1
EndSplineSet
EndChar
StartChar: suchthat
Encoding: 8715 8715 760
Width: 778
Flags: W
LayerCount: 2
Fore
SplineSet
85 -21 m 0
 85 -4.275390625 100 9 123 9 c 2
 393 9 l 2
 515.497139969 9 616.786821488 100.616220502 632.020383053 219 c 1
 123 219 l 2
 111 219 103 222 97 226 c 0
 87 233 85 243 85 250 c 0
 85 258 88 270 99 276 c 0
 104 279 111 281 121 281 c 0
 124 281 128 280 131 280 c 2
 632.146935233 280 l 1
 617.356694627 398.867453597 515.841836481 491 393 491 c 2
 122 491 l 2
 100 491 85 502.896484375 85 521 c 0
 85 538.91796875 100 552 125 552 c 2
 393 552 l 2
 560 552 695 417 695 250 c 0
 695 83 560 -52 393 -52 c 2
 126 -52 l 2
 101 -52 85 -40.4169921875 85 -21 c 0
EndSplineSet
EndChar
